<?xml version="1.0" standalone="no"?>
<!DOCTYPE svg PUBLIC "-//W3C//DTD SVG 1.1//EN" "http://www.w3.org/Graphics/SVG/1.1/DTD/svg11.dtd" >
<svg>
<metadata>
Created by FontForge 20110222 at Thu Mar  1 08:04:37 2012
 By Stefan Warting
Copyright (c) 2006 Senamirmir Project. All Right Reserved. Distributed under the terms of the GNU General Public License. As a special exception, if you create a document which uses this font, and embed this font or unaltered portions of this font into the document, this font does not by itself cause the resulting document to be covered by the GNU General Public License. This exception does not however invalidate any other reasons why the document might be covered by the GNU General Public License. If you modify this font, you may extend this exception to your version of the font, but you are not obligated to do so. If you do not wish to do so, delete this exception statement from your version.
</metadata>
<defs>
<font id="EthiopiaJiretSlant" horiz-adv-x="600" >
  <font-face 
    font-family="Ethiopia Jiret Slant"
    font-weight="400"
    font-stretch="normal"
    units-per-em="1000"
    panose-1="2 0 5 9 3 0 0 2 0 4"
    ascent="800"
    descent="-200"
    x-height="430"
    cap-height="563"
    bbox="-72 -185 1068 775"
    underline-thickness="50"
    underline-position="-75"
    unicode-range="U+0020-2122"
  />
<missing-glyph horiz-adv-x="500" 
 />
    <glyph glyph-name=".notdef" horiz-adv-x="500" 
 />
    <glyph glyph-name=".null" horiz-adv-x="0" 
 />
    <glyph glyph-name="nonmarkingreturn" horiz-adv-x="500" 
 />
    <glyph glyph-name="space" unicode=" " horiz-adv-x="280" 
 />
    <glyph glyph-name="space" unicode="&#xa0;" horiz-adv-x="280" 
 />
    <glyph glyph-name="exclam" unicode="!" 
d="M315 193l55 378h83l-92 -378h-46zM321 106q30 0 46 -18t11 -44t-28.5 -43.5t-52.5 -17.5t-45.5 18t-11.5 44t28.5 43.5t52.5 17.5z" />
    <glyph glyph-name="quotedbl" unicode="&#x22;" 
d="M297 282h-74l43 281h95zM487 282h-74l44 281h95z" />
    <glyph glyph-name="numbersign" unicode="#" 
d="M324 454h145l52 205h47l-52 -205h94l-12 -65h-97l-43 -167h107l-12 -65h-110l-54 -214h-47l54 214h-146l-53 -214h-47l53 214h-94l12 65h98l43 167h-108l12 65h111l52 205h47zM266 222h145l43 167h-145z" />
    <glyph glyph-name="dollar" unicode="$" 
d="M582 547q-2 -10 -5 -21.5t-6 -26.5q-9 -48 -12 -84.5t-5 -61.5l-47 -5q2 49 -6.5 78.5t-22 45.5t-29.5 22t-29 9l-40 -204q30 -9 58 -19t49 -25.5t31 -39.5t3 -60q-6 -32 -24 -56.5t-44.5 -42.5t-59 -28.5t-68.5 -13.5l-29 -150h-48l29 150q-15 0 -30 3.5t-50 15.5
q-11 4 -15 4.5t-6 0.5q-10 0 -12.5 -6t-6.5 -23h-47q13 55 18.5 99.5t8.5 94.5h47q0 -17 1.5 -39.5t11.5 -43.5t30.5 -37t58.5 -21l39 199q-24 7 -50.5 16t-46.5 25t-31 41t-3 64q12 63 63.5 101t123.5 44l21 104h48l-21 -104q18 -2 33.5 -7.5t31.5 -13.5l15 -7.5t7 -1.5
q8 0 11 5t8 20h47zM372 504q-12 -2 -31 -6t-38 -14.5t-35 -28t-21 -46.5q-5 -24 1.5 -39.5t19.5 -26t31 -17.5t36 -13zM334 62q16 1 37 5.5t41 15t36 28t21 43.5q4 23 -3 38.5t-22 26t-34.5 17.5t-39.5 13z" />
    <glyph glyph-name="percent" unicode="%" 
d="M450 253q35 0 59 -12t38.5 -31.5t18.5 -43.5t0 -47q-5 -24 -19 -47.5t-35.5 -42.5t-50.5 -31t-63 -12q-35 0 -58.5 12t-38 31.5t-19 43t0.5 46.5q4 22 18 46t35.5 43.5t50 32t63.5 12.5zM441 206q-21 0 -38.5 -7.5t-31 -19.5t-22.5 -27.5t-12 -31.5q-6 -34 11 -60.5
t59 -26.5q21 0 39 7.5t31.5 20t22.5 28t12 31.5q3 15 0.5 30.5t-11 28t-23.5 20t-37 7.5zM305 614q34 0 58.5 -12t38.5 -31.5t19 -43t0 -47.5t-19 -48t-35.5 -43t-50.5 -30.5t-63 -11.5q-33 0 -57 12t-38.5 30.5t-19.5 42.5t0 48q4 23 18 47t35.5 43.5t50 31.5t63.5 12z
M297 567q-22 0 -40 -7.5t-31.5 -20t-22 -28t-11.5 -31.5t0 -31.5t12 -27.5t24 -19.5t36 -7.5q42 0 69.5 26t33.5 60q7 33 -10.5 60t-59.5 27zM145 193l-11 47l441 180l11 -47z" />
    <glyph glyph-name="ampersand" unicode="&#x26;" 
d="M574 233h-60q-29 -53 -47 -80.5t-28 -41.5l31 -64h75l-9 -47h-114l-29 60q-11 -10 -25.5 -21.5t-33.5 -22t-42.5 -17.5t-50.5 -7q-35 0 -59.5 12.5t-38.5 33.5t-18.5 47t0.5 53q10 51 50 96t100 66q1 2 -2 7q-12 25 -19.5 41t-11 29t-3.5 24t3 25q9 49 50 81.5t101 32.5
q22 0 40.5 -4.5t35.5 -12.5q20 -8 26.5 -9.5t12.5 -1.5q12 0 21.5 3t16.5 5l-60 -72q-16 14 -40 29t-62 15q-21 0 -36 -6t-24.5 -15.5t-15 -20.5t-6.5 -20q-4 -18 2.5 -35.5t20.5 -45.5l92 -193q13 19 21 31t14.5 24t14.5 27.5t21 41.5h95zM295 264q-15 -6 -31 -16t-30 -24
t-25.5 -32.5t-15.5 -41.5q-3 -18 -1.5 -37t9.5 -34.5t23.5 -25t39.5 -9.5q19 0 36 6t31 15t24.5 18.5t17.5 16.5z" />
    <glyph glyph-name="quotesingle" unicode="'" 
d="M392 281h-75l35 282h114z" />
    <glyph glyph-name="parenleft" unicode="(" 
d="M589 649q-22 -31 -50 -71.5t-55 -88.5t-49.5 -102t-33.5 -111t-9.5 -111t9.5 -102t20.5 -88.5t22.5 -70.5h-51q-20 42 -33.5 90t-20.5 97t-6.5 96.5t8.5 88.5q8 40 26 87.5t43.5 96.5t58 97.5t69.5 91.5h51z" />
    <glyph glyph-name="parenright" unicode=")" 
d="M118 -96q20 27 48 67t56 88.5t51.5 103.5t34.5 113t9 112.5t-11 102.5t-21.5 88.5t-21.5 69.5h52q21 -48 35 -97.5t20.5 -98t5.5 -93.5t-8 -84q-8 -41 -26 -87.5t-43.5 -95t-58 -97t-70.5 -92.5h-52z" />
    <glyph glyph-name="asterisk" unicode="*" 
d="M409 416l150 51l8 -64l-151 -40l70 -116l-63 -41l-59 125l-107 -125l-47 41l116 116l-137 40l34 64l130 -51l22 147h68z" />
    <glyph glyph-name="plus" unicode="+" 
d="M389 328h209l-10 -50h-209l-40 -205h-50l40 205h-209l10 50h209l40 205h50z" />
    <glyph glyph-name="comma" unicode="," 
d="M227 -109h-71l123 242h104z" />
    <glyph glyph-name="hyphen" unicode="-" 
d="M256 317h212l-11 -55h-212z" />
    <glyph glyph-name="hyphen" unicode="&#xad;" 
d="M256 317h212l-11 -55h-212z" />
    <glyph glyph-name="period" unicode="." 
d="M323 119q29 0 49.5 -18.5t14.5 -49.5q-3 -16 -12 -28.5t-22 -21.5t-27.5 -13.5t-28.5 -4.5q-13 0 -26 4.5t-22.5 13t-14 21t-1.5 29.5q3 16 12 28.5t22 21.5t27.5 13.5t28.5 4.5z" />
    <glyph glyph-name="slash" unicode="/" 
d="M108 -133l-39 20l533 815l40 -18z" />
    <glyph glyph-name="zero" unicode="0" 
d="M421 621q41 0 68 -14.5t43 -39t23.5 -56.5t8 -67.5t-4 -71.5t-10.5 -69q-10 -49 -27.5 -104.5t-47 -103t-73 -78.5t-104.5 -31q-41 0 -68 14.5t-43 39t-23.5 56.5t-8 67.5t4 71.5t10.5 68q9 49 27 104.5t47.5 103t73 79t104.5 31.5zM412 576q-45 0 -77.5 -28t-55 -69
t-36.5 -88.5t-21 -86.5q-8 -40 -12.5 -87.5t2 -89t28 -69t65.5 -27.5q45 0 77.5 28t55.5 69t36.5 89t21.5 87q8 40 12.5 87.5t-2 88.5t-28 68.5t-66.5 27.5z" />
    <glyph glyph-name="one" unicode="1" 
d="M455 621l-112 -574h171l-9 -47h-395l9 47h174l100 516l-174 -74l-11 44l215 88h32z" />
    <glyph glyph-name="two" unicode="2" 
d="M472 0h-390l10 53q18 14 58 44t88 66.5t97 75t85 69.5q43 36 60 65.5t24 64.5q7 36 -2.5 61t-27.5 41t-40.5 23.5t-41.5 7.5q-14 0 -37.5 -4.5t-46.5 -16.5t-41 -32t-22 -51h-52l12 65q35 33 68 51.5t60 26.5t46 9.5t25 1.5q35 0 66.5 -13t53.5 -37t32 -58.5t2 -76.5
q-7 -32 -19.5 -57t-36.5 -54q-16 -19 -50 -49.5t-80 -67.5t-101 -78t-112 -81l-1 -2h276l19 99h47z" />
    <glyph glyph-name="three" unicode="3" 
d="M118 79q35 -18 75 -32t82 -14q27 0 55.5 8.5t52.5 26t42 43t24 58.5q7 35 -0.5 58t-19.5 36.5t-24.5 19.5t-15.5 7q-24 9 -47 10t-48 -1l9 47q22 0 48 3t52 18q29 17 47.5 43t23.5 55q10 51 -18 80t-79 29q-20 0 -38.5 -4.5t-36 -11.5t-33 -15.5t-28.5 -15.5l-20 -11
l-17 39q48 27 91.5 46.5t91.5 19.5q32 0 60.5 -10.5t48.5 -30.5t29 -48.5t2 -65.5q-7 -33 -21 -57t-30 -40.5t-31 -25.5t-22 -13q15 -6 31 -19t28.5 -32.5t18.5 -46.5t-1 -61q-8 -42 -30.5 -76.5t-54.5 -58.5t-71 -37t-81 -13q-23 0 -42 3t-38 9.5t-41 15.5t-51 21z" />
    <glyph glyph-name="four" unicode="4" 
d="M518 194l-10 -48h-90l-19 -99h90l-9 -47h-273l9 47h135l19 99h-268l12 58l329 417h68l-83 -427h90zM451 563h-2l-288 -369h219z" />
    <glyph glyph-name="five" unicode="5" 
d="M568 558h-289l-39 -202q26 10 56.5 19t70.5 9q45 0 78.5 -15.5t54 -42t27.5 -62.5t-1 -76q-6 -30 -23 -65.5t-47.5 -65.5t-75 -50.5t-104.5 -20.5q-27 0 -49.5 3t-43.5 9t-41.5 14.5t-44.5 18.5l27 45q22 -10 63.5 -25t94.5 -15q41 0 73.5 11.5t56 32t38.5 47.5t21 59
q6 30 1.5 57.5t-20 48.5t-41 33t-61.5 12q-38 0 -73 -12.5t-70 -35.5l-22 14l59 303h334z" />
    <glyph glyph-name="six" unicode="6" 
d="M597 571q-55 3 -110 -1t-105 -30t-92.5 -83t-73.5 -160l1 -2q8 7 22 20t34 25t46 21t58 9q39 0 68.5 -16t47 -43t23 -62t-1.5 -73t-27 -72.5t-48.5 -60.5t-64 -41.5t-74.5 -15.5q-30 0 -63 13t-57 44.5t-33.5 84t6.5 132.5q4 24 18 71t43.5 99.5t76 100t117.5 71.5
q12 4 28 8t39.5 7t55.5 4.5t76 -0.5zM199 212q-7 -52 2 -86t27 -54t40.5 -28t41.5 -8q24 0 48 9.5t44.5 27.5t36 44t21.5 59q6 28 2 54.5t-16 46t-32 31.5t-47 12q-8 0 -26.5 -2.5t-42 -13t-50 -32t-49.5 -60.5z" />
    <glyph glyph-name="seven" unicode="7" 
d="M597 559l-303 -559h-58l311 559h-294l-18 -92h-49l27 139h393z" />
    <glyph glyph-name="eight" unicode="8" 
d="M268 309q-9 5 -22 17t-23.5 30.5t-16 43.5t0.5 57q6 34 26 63.5t49 52t64.5 35.5t74.5 13t69.5 -13t50.5 -35.5t28 -52t2 -63.5q-8 -40 -37 -81t-82 -67q25 -12 40.5 -30t24 -38.5t10 -42t-2.5 -40.5q-6 -28 -23.5 -58.5t-46 -55.5t-68.5 -41.5t-89 -16.5q-50 0 -83 16.5
t-51.5 41.5t-24.5 55.5t0 58.5q4 24 16 46.5t29 42.5t39 36t46 26zM412 574q-35 0 -61.5 -11.5t-45.5 -29.5t-30 -38.5t-14 -38.5q-5 -23 0 -45t18.5 -39.5t35 -28.5t50.5 -11q24 0 48.5 8.5t45.5 25t36.5 39t21.5 51.5q6 30 -1.5 52t-22.5 36.5t-36.5 22t-44.5 7.5z
M355 285q-35 0 -63 -11.5t-49 -30t-34 -41t-17 -44.5q-5 -25 1 -47.5t21.5 -40t38.5 -27.5t53 -10t57.5 10t49.5 27.5t37 40t20 47.5q4 22 -0.5 45t-18.5 41t-38 29.5t-58 11.5z" />
    <glyph glyph-name="nine" unicode="9" 
d="M88 36q56 -3 110.5 1t104 30t92 83t74.5 160l-1 2q-7 -8 -21.5 -20.5t-34.5 -24.5t-46.5 -21t-57.5 -9q-39 0 -68.5 16t-47 43t-23.5 62t2 73q7 38 27 72.5t48.5 60.5t64 41.5t74.5 15.5q30 0 63 -13t57 -44.5t33.5 -84.5t-6.5 -132q-5 -24 -18.5 -71t-43 -99.5
t-76.5 -100t-117 -71.5q-12 -4 -28 -8.5t-39.5 -7.5t-55.5 -4t-76 1zM486 395q7 52 -2 86t-27 54t-40.5 28t-41.5 8q-24 0 -48 -9.5t-44.5 -27.5t-36 -44t-21.5 -59q-6 -29 -2 -55t16 -45.5t32 -31.5t47 -12q7 0 25.5 2t42 12.5t50 32.5t50.5 61z" />
    <glyph glyph-name="colon" unicode=":" 
d="M376 390q28 0 49 -18t15 -50q-3 -16 -13 -28.5t-22.5 -21.5t-27.5 -13.5t-28 -4.5t-26 4.5t-22 13t-13.5 21t-1.5 29.5q3 16 12.5 28.5t22 21.5t27 13.5t28.5 4.5zM323 119q28 0 49 -18t15 -50q-3 -16 -12.5 -28.5t-22 -21.5t-27.5 -13.5t-28 -4.5t-26 4.5t-22.5 13
t-14 21t-1.5 29.5q3 16 12.5 28.5t22 21.5t27 13.5t28.5 4.5z" />
    <glyph glyph-name="semicolon" unicode=";" 
d="M231 -108h-71l124 242h103zM376 390q28 0 49 -18t15 -50q-3 -16 -13 -28.5t-22.5 -21.5t-27.5 -13.5t-28 -4.5t-26 4.5t-22 13t-13.5 21t-1.5 29.5q3 16 12.5 28.5t22 21.5t27 13.5t28.5 4.5z" />
    <glyph glyph-name="less" unicode="&#x3c;" 
d="M629 532l12 -45l-416 -179l347 -175l-29 -44l-429 219z" />
    <glyph glyph-name="equal" unicode="=" 
d="M608 369h-472l9 50h472zM573 188h-472l9 50h472z" />
    <glyph glyph-name="greater" unicode="&#x3e;" 
d="M90 84l-11 45l416 179l-347 175l28 44l430 -219z" />
    <glyph glyph-name="question" unicode="?" 
d="M224 537q28 9 49.5 15.5t41 11t38.5 6.5t40 2q48 0 81.5 -14t53 -36.5t25.5 -52.5t0 -61q-8 -44 -32.5 -73.5t-56 -48.5t-65 -30t-60.5 -18l-11 -60h-49l18 97q3 1 9.5 2.5t11.5 2.5q27 6 56.5 14.5t55.5 23t45.5 37t26.5 56.5q3 15 1 34.5t-14.5 37t-37 29t-66.5 11.5
q-37 0 -64 -7t-54 -17l-12 -64h-50zM287 106q29 0 45.5 -17.5t11.5 -43.5q-5 -27 -29 -44.5t-52 -17.5t-45 17.5t-12 44.5q5 26 28.5 43.5t52.5 17.5z" />
    <glyph glyph-name="at" unicode="@" 
d="M544 57q-1 0 -3.5 -1.5t-3.5 -1.5q-56 -29 -121 -48.5t-131 -19.5t-109.5 23t-67.5 61t-30 87.5t5 102.5q11 60 39.5 112t71.5 90.5t99 61t122 22.5q55 0 98.5 -16.5t72 -48.5t39.5 -78.5t0 -105.5q-8 -42 -25.5 -77.5t-41.5 -60.5t-53.5 -39t-61.5 -14q-11 0 -17.5 1
t-12.5 4.5t-13 9.5t-19 16q-8 6 -8.5 10.5t1.5 9.5q-8 -7 -18.5 -16t-24 -17.5t-29.5 -14t-34 -5.5q-9 0 -21.5 4.5t-22.5 15.5t-15 31t1 50q6 33 24.5 68.5t44 64.5t56 47.5t61.5 18.5q12 0 20.5 -4t14 -10t9 -13t5.5 -13l16 35h52l-74 -156q0 -2 -3 -7.5t-6 -13t-6 -15.5
t-4 -14q-2 -11 6.5 -25.5t31.5 -14.5q19 0 38 12t35 32.5t28.5 47.5t18.5 58q10 49 0.5 86t-33.5 61.5t-60.5 36.5t-80.5 12q-60 0 -106 -21t-80 -54.5t-54.5 -76.5t-29.5 -88q-8 -40 -4.5 -80t21.5 -72.5t53.5 -53t92.5 -20.5q63 0 117 18t93 37l17 8q1 0 3.5 1.5t3.5 1.5z
M283 153q19 0 39 15.5t37.5 38t30 49t16.5 48.5q5 23 -3.5 36.5t-22.5 13.5q-17 0 -36.5 -15.5t-36.5 -38.5t-30 -50t-17 -49q-1 -7 -1 -15t2.5 -15.5t7.5 -12.5t14 -5z" />
    <glyph glyph-name="A" unicode="A" 
d="M548 47h51l-9 -47h-205l9 47h102l-30 139h-261l-83 -139h102l-9 -47h-205l9 47h53l284 469h-143l9 47h215zM232 230h226l-60 274z" />
    <glyph glyph-name="B" unicode="B" 
d="M427 563q59 0 89 -11.5t47 -30.5t25.5 -45t1.5 -58q-5 -27 -17.5 -48t-28 -36t-31 -25t-26.5 -15q51 -16 74.5 -51t12.5 -89q-8 -42 -34 -75.5t-62 -50.5q-18 -9 -34 -14.5t-34.5 -8.5t-42.5 -4t-58 -1h-264l9 47h83l91 469h-83l9 47h273zM239 316h133q49 0 80.5 12
t50 28.5t26.5 34t10 29.5q7 36 -8.5 55.5t-38.5 28.5t-45.5 10.5t-30.5 1.5h-138zM187 47h129q27 0 59.5 1.5t62.5 11.5t53 31.5t31 62.5q6 31 -4 53t-33 35.5t-56.5 20t-73.5 6.5h-125z" />
    <glyph glyph-name="C" unicode="C" 
d="M613 99q-50 -40 -94 -63t-81 -35t-64.5 -15t-42.5 -3q-66 0 -111.5 24.5t-72 66.5t-33 97t5.5 117q13 65 44 119t74.5 92.5t96.5 59.5t110 21q30 0 51.5 -5.5t35.5 -13t22 -14.5t10 -10q8 -8 10.5 -9.5t4.5 -1.5q3 0 6.5 5t6.5 12.5t6 15.5t6 15h37q-15 -63 -20 -107
t-8 -84l-48 -8q0 17 -1 43.5t-13 52.5q-5 10 -14 21t-23 19t-34 13.5t-47 5.5q-50 0 -93 -19t-76.5 -52t-56.5 -77t-33 -93q-7 -38 -6 -82.5t17.5 -83t53 -64.5t101.5 -26q69 0 129.5 29.5t117.5 72.5z" />
    <glyph glyph-name="D" unicode="D" 
d="M393 563q33 0 61 -2.5t51.5 -10t43 -22.5t35.5 -40q17 -27 23.5 -56t7.5 -56t-2 -49t-5 -35q-17 -89 -54 -146t-75 -88q-27 -22 -56.5 -33.5t-56.5 -17t-49.5 -6.5t-36.5 -1h-246l9 47h79l91 469h-79l9 47h250zM172 47h117q13 0 31.5 0.5t39.5 5t44 14t44 27.5
q32 27 61.5 76.5t43.5 118.5q8 47 5.5 80t-10 55.5t-18 37t-19.5 23.5q-22 20 -52.5 25.5t-73.5 5.5h-122z" />
    <glyph glyph-name="E" unicode="E" 
d="M610 379h-46l16 137h-288l-38 -195h162l15 73h46l-38 -192h-46l14 72h-162l-44 -227h298l32 137h46l-36 -184h-484l9 47h85l91 469h-85l9 47h475z" />
    <glyph glyph-name="F" unicode="F" 
d="M620 383h-45l14 133h-286l-38 -195h162l15 73h46l-38 -192h-46l14 72h-162l-44 -227h130l-9 -47h-261l9 47h81l91 469h-81l9 47h469z" />
    <glyph glyph-name="G" unicode="G" 
d="M634 574q-2 -3 -4 -10t-2 -9q-1 -4 -3.5 -13.5t-5.5 -21.5l-6 -24t-5 -22q-5 -25 -7.5 -49t-4.5 -42l-44 -8q0 17 -1.5 43.5t-14 51t-40.5 42.5t-81 18q-44 0 -85.5 -18.5t-76.5 -51.5t-60.5 -79t-36.5 -101q-10 -51 -5 -96t26 -78.5t59.5 -53t95.5 -19.5q25 0 60.5 6
t99.5 26l26 135h-148l9 47h247l-9 -47h-48l-33 -168q-123 -49 -214 -49q-77 0 -124.5 27.5t-72 71t-28.5 95.5t5 102q11 58 39.5 112t70.5 96t96.5 67.5t118.5 25.5q36 0 63.5 -10t52.5 -33q7 -8 10.5 -10t7.5 -2t6.5 1.5t5 6.5t5.5 14.5t8 26.5h48z" />
    <glyph glyph-name="H" unicode="H" 
d="M339 516h-75l-39 -202h272l39 202h-75l9 47h201l-9 -47h-76l-91 -469h76l-9 -47h-201l9 47h75l43 220h-272l-43 -220h75l-9 -47h-200l9 47h75l91 469h-75l9 47h200z" />
    <glyph glyph-name="I" unicode="I" 
d="M600 516h-175l-91 -469h175l-9 -47h-400l9 47h175l91 469h-175l9 47h400z" />
    <glyph glyph-name="J" unicode="J" 
d="M679 516h-127l-60 -312q-8 -42 -21 -84t-39 -73q-16 -17 -35 -29.5t-38.5 -20t-38.5 -11t-35 -3.5q-60 0 -106 18.5t-84 37.5l-18 8l33 216h49l-15 -97q-7 -38 -3 -61t30 -41t56 -24.5t56 -6.5q46 0 74.5 15.5t45.5 40t25 55t14 60.5l60 312h-197l9 47h374z" />
    <glyph glyph-name="K" unicode="K" 
d="M379 516h-85l-47 -245l299 245h-82l9 47h195l-9 -47h-45l-258 -211q17 -10 36 -26t38.5 -45t38.5 -74t36 -113h92l-9 -47h-128q-8 42 -19.5 79.5t-19.5 55.5q-20 50 -42.5 82t-62.5 54l-82 -66l-31 -158h85l-9 -47h-219l9 47h84l91 469h-84l9 47h219z" />
    <glyph glyph-name="L" unicode="L" 
d="M432 516h-123l-91 -469h283l53 202h47l-59 -249h-483l9 47h100l91 469h-100l9 47h273z" />
    <glyph glyph-name="M" unicode="M" 
d="M333 224h18l189 339h161l-9 -47h-71l-74 -469h61l-9 -47h-212l9 47h107l76 469h-18l-212 -372h-52l-58 372h-18l-106 -469h107l-9 -47h-212l9 47h61l108 469h-71l9 47h167z" />
    <glyph glyph-name="N" unicode="N" 
d="M470 42h18l92 474h-112l9 47h223l-9 -47h-65l-103 -529h-89l-165 529h-17l-91 -469h113l-9 -47h-237l9 47h78l91 469h-78l9 47h171z" />
    <glyph glyph-name="O" unicode="O" 
d="M98 281q12 62 40.5 116.5t70 95t93.5 64t111 23.5q60 0 103 -24t68 -65t32.5 -95t-4.5 -115q-12 -60 -40.5 -114.5t-69.5 -95t-93 -64.5t-112 -24q-59 0 -102 23.5t-68.5 64t-33 94.5t4.5 116zM152 282q-9 -45 -5 -89.5t23 -80t52.5 -57.5t83.5 -22q49 0 91.5 21.5
t75 56.5t54.5 79.5t31 91.5t4 92t-24 79.5t-52.5 55.5t-82.5 21q-52 0 -94.5 -22.5t-74.5 -58t-53 -80t-29 -87.5z" />
    <glyph glyph-name="P" unicode="P" 
d="M409 563q54 0 86.5 -5.5t56.5 -20.5q35 -21 50.5 -62t6.5 -87q-4 -21 -13 -41.5t-22.5 -38.5t-29.5 -33t-34 -24q-21 -11 -39 -17t-41 -9t-53.5 -3.5t-75.5 -0.5h-56l-34 -174h147l-9 -47h-278l9 47h81l91 469h-81l9 47h229zM254 268h57q61 0 107.5 3t76.5 24
q17 11 35 35t26 60q7 41 -7 68.5t-33 37.5q-8 5 -17 8.5t-22 6t-31.5 4t-45.5 1.5h-98z" />
    <glyph glyph-name="Q" unicode="Q" 
d="M530 -88q-20 -12 -47 -26t-62 -14q-23 0 -39.5 6.5t-40.5 17.5t-39.5 15.5t-34.5 4.5q-33 0 -60 -10.5t-66 -30.5l-16 37q20 12 37.5 25.5t31 25t22 20l10.5 10.5q-40 13 -68.5 40.5t-45 65t-20.5 84t6 98.5q13 71 45 126.5t75 94t93.5 58.5t100.5 20q54 0 97 -21.5
t70 -61t36 -95.5t-4 -125q-10 -51 -34 -103.5t-64 -95.5t-97.5 -69.5t-135.5 -25.5l-7 -7t-13 -10q-1 -2 -2.5 -3t0.5 1h-2v-2q5 0 9.5 0.5t12.5 0.5q18 0 39 -4.5t45 -15.5q16 -7 26 -11t16.5 -6.5t11.5 -3t11 -0.5q25 0 44 8.5t35 17.5zM152 282q-9 -45 -5 -89.5t23 -80
t52.5 -57.5t83.5 -22q49 0 91.5 21.5t75 56.5t54.5 79.5t31 91.5t4 92t-24 79.5t-52.5 55.5t-82.5 21q-52 0 -94.5 -22.5t-74.5 -58t-53 -80t-29 -87.5z" />
    <glyph glyph-name="R" unicode="R" 
d="M411 563q48 0 78 -4.5t53 -22.5t34 -52.5t3 -71.5q-4 -22 -16.5 -47t-35 -47t-55 -38.5t-76.5 -20.5q11 -14 24.5 -39.5t27 -55.5t26.5 -61.5t24 -55.5h88l-9 -47h-125q-7 25 -16.5 52t-18.5 50.5t-16.5 42t-11.5 26.5q-11 23 -18.5 39.5t-17 27t-22 15.5t-32.5 5h-72
l-41 -211h89l-9 -47h-221l9 47h82l91 469h-82l9 47h257zM236 305h93q20 0 50 1.5t60 11.5t54.5 32.5t32.5 64.5q5 25 -2 47.5t-24 36.5q-5 4 -11 7t-17 5t-28 3.5t-44 1.5h-123z" />
    <glyph glyph-name="S" unicode="S" 
d="M619 574q-10 -23 -15 -38t-8 -34q-8 -35 -15 -119l-46 -8q1 16 0 42t-13 52q-4 9 -11.5 19.5t-20.5 19.5t-33 15.5t-50 6.5q-39 0 -69.5 -11.5t-52.5 -29t-35 -38t-17 -39.5q-7 -35 6 -55t35 -31t47 -15t43 -6q28 -3 49 -6t37 -6.5t29 -9t24 -14.5q23 -17 35.5 -45
t4.5 -71q-9 -44 -33.5 -76t-57.5 -53t-71.5 -31t-75.5 -10q-30 0 -51.5 5t-36.5 12.5t-24.5 15t-15.5 13.5q-1 1 -3.5 2.5t-4.5 1.5q-3 0 -6 -3l-5 -5q-4 -7 -6.5 -13.5t-11.5 -31.5h-45q9 24 15.5 46t8.5 33l2 10q1 8 3 21.5t3.5 29t3 30t2.5 25.5h45q0 -19 1.5 -43
t15.5 -46q5 -9 13 -18.5t21 -17t32 -12.5t46 -5q46 0 78.5 11t54 28t33 37.5t15.5 39.5q6 33 -4.5 52.5t-29.5 30t-42.5 14.5t-42.5 6q-29 3 -66 9t-68 22t-49 45.5t-8 79.5q7 34 28 65t52 55t70.5 38t82.5 14q27 0 47 -5t33.5 -11.5t22 -13.5t13.5 -11q10 -9 13.5 -11.5
t6.5 -2.5q7 0 9.5 6l12.5 30q4 10 5 13h45z" />
    <glyph glyph-name="T" unicode="T" 
d="M621 327l-50 -6l24 195h-170l-91 -469h121l-9 -47h-292l9 47h121l91 469h-170l-52 -195l-46 6l62 236h480z" />
    <glyph glyph-name="U" unicode="U" 
d="M348 516h-102l-55 -282q-5 -31 -9.5 -66t3.5 -64q8 -30 35 -50.5t85 -20.5q60 0 94.5 17.5t54.5 45.5q20 27 29 60.5t16 67.5l56 292h-102l9 47h224l-9 -47h-72l-56 -292q-8 -38 -15.5 -64.5t-16 -46t-18 -33t-19.5 -24.5q-10 -12 -27.5 -24.5t-41.5 -23.5t-52.5 -18
t-61.5 -7q-18 0 -40 3t-43.5 12t-40.5 24t-31 39q-10 18 -12.5 41t-1 46.5t5.5 46t7 39.5l55 282h-72l9 47h224z" />
    <glyph glyph-name="V" unicode="V" 
d="M320 516h-94l88 -460l269 460h-102l9 47h213l-9 -47h-63l-298 -516h-62l-96 516h-69l9 47h214z" />
    <glyph glyph-name="W" unicode="W" 
d="M299 516h-101l-25 -420h2l199 364h34l56 -364h2l139 420h-102l9 47h195l-9 -47h-46l-175 -516h-50l-56 364h-2l-200 -364h-50l30 516h-47l9 47h197z" />
    <glyph glyph-name="X" unicode="X" 
d="M346 516h-82l102 -183l175 183h-76l9 47h183l-9 -47h-51l-210 -220l137 -249h52l-9 -47h-202l9 47h90l-113 212l-202 -212h106l-9 -47h-213l9 47h51l238 249l-126 220h-53l9 47h194z" />
    <glyph glyph-name="Y" unicode="Y" 
d="M328 516h-76l103 -248l197 248h-78l9 47h194l-9 -47h-63l-237 -298l-33 -171h118l-9 -47h-287l9 47h119l33 171l-123 298h-63l9 47h196z" />
    <glyph glyph-name="Z" unicode="Z" 
d="M594 522l-441 -475h325l32 162h47l-41 -209h-432l9 47l436 469h-291l-28 -146h-47l37 193h402z" />
    <glyph glyph-name="bracketleft" unicode="[" 
d="M602 604h-126l-126 -648h126l-9 -50h-176l145 748h176z" />
    <glyph glyph-name="backslash" unicode="\" 
d="M441 -139l-215 825l47 19l215 -824z" />
    <glyph glyph-name="bracketright" unicode="]" 
d="M106 -44h126l126 648h-126l10 50h176l-145 -748h-176z" />
    <glyph glyph-name="asciicircum" unicode="^" 
d="M103 154l269 409h74l111 -409h-64l-95 349l-231 -349h-64z" />
    <glyph glyph-name="underscore" unicode="_" 
d="M624 -125h-696l9 50h696z" />
    <glyph glyph-name="grave" unicode="`" 
d="M472 503h-52l-110 115h107z" />
    <glyph glyph-name="a" unicode="a" 
d="M559 47l-9 -47h-139l14 72q-18 -14 -41 -29.5t-50 -28t-56.5 -20.5t-60.5 -8q-38 0 -65 12.5t-44 32.5t-23 45t-1 51q4 20 19 46t43.5 49.5t72.5 39.5t106 16q3 0 16.5 -0.5t33 -2t42.5 -4t46 -6.5l6 31q2 12 3.5 30t-6.5 35t-30.5 29t-67.5 12q-27 0 -70 -8t-109 -34
l-10 45q35 14 87 29.5t112 15.5q64 0 95 -18.5t42 -44t9 -51t-5 -40.5l-49 -249h89zM454 219q-17 3 -51.5 7t-76.5 4q-62 0 -99 -14.5t-56.5 -33t-26 -35.5t-7.5 -21q-3 -19 2.5 -35.5t17.5 -29t30 -20t39 -7.5q12 0 32 3t47 13.5t60.5 31.5t72.5 57z" />
    <glyph glyph-name="b" unicode="b" 
d="M214 346h2q39 42 86 65t102 23q46 0 83.5 -17.5t62.5 -47.5t34.5 -71t0.5 -87q-8 -42 -32 -81.5t-59 -70.5t-79 -50t-93 -19q-41 0 -68 10t-45 23.5t-29 28.5t-18 25l-15 -77h-130l9 47h80l103 531l-93 -5l10 47l143 9zM189 213q-7 -35 0.5 -66.5t26.5 -55t48 -37.5
t67 -14q37 0 71 14t60.5 38t44.5 55t24 65q7 34 0.5 65.5t-24.5 55t-46 37.5t-64 14q-37 0 -71.5 -14t-62.5 -37.5t-47.5 -54.5t-26.5 -65z" />
    <glyph glyph-name="c" unicode="c" 
d="M608 438l-13.5 -40.5t-13.5 -51.5q-2 -14 -5 -30t-5 -36l-47 -7l-1 17q-1 10 -3.5 28t-14.5 35t-38.5 29.5t-74.5 12.5t-87 -15.5t-67.5 -41t-46.5 -57.5t-24 -64q-6 -31 -1.5 -63t21.5 -58.5t49 -43t82 -16.5q54 0 110 23.5t119 61.5l18 -38q-18 -12 -46 -28.5t-62 -32
t-73 -26t-81 -10.5q-53 0 -92.5 18t-64.5 49.5t-33.5 73t0.5 89.5q8 40 30 81t58 74t85 53.5t110 20.5q29 0 64.5 -8.5t72.5 -44.5q3 -3 4 -3q4 0 8 8.5t6 13.5q2 7 5 14.5l7 17.5z" />
    <glyph glyph-name="d" unicode="d" 
d="M505 47h85l-9 -47h-135l14 74h-2q-29 -32 -59 -49t-55.5 -25t-44.5 -9t-26 -1q-47 0 -84 18t-61 48t-33.5 70.5t-0.5 85.5q10 51 37 92t64 70t79 44.5t83 15.5q47 0 91 -22t64 -64h2l43 225l-163 -10l6 45l218 19zM485 210q6 30 1 60.5t-21.5 56t-44.5 41.5t-70 16
q-33 0 -65.5 -12t-60.5 -34.5t-48 -54t-28 -70.5q-7 -38 0.5 -70t26 -55t46.5 -35.5t62 -12.5t67 13t61 35.5t47.5 53.5t26.5 68z" />
    <glyph glyph-name="e" unicode="e" 
d="M570 57q-22 -11 -51.5 -23.5t-63.5 -23t-70 -17.5t-71 -7q-61 0 -103 19t-66 50.5t-31 73t2 85.5q9 46 33.5 88t61 74t84 50.5t102.5 18.5q57 0 96 -18t62 -47t30.5 -64.5t0.5 -69.5q-2 -12 -6 -26t-5 -19h-408q-2 -13 -1.5 -30.5t5 -36t14.5 -36.5t28.5 -32t45.5 -23
t66 -9q31 0 65 7.5t65 18t57.5 22t43.5 19.5zM532 248q5 24 0 50.5t-22.5 48.5t-47 36t-74.5 14q-50 0 -87 -17t-62.5 -40.5t-41 -49t-21.5 -42.5h356z" />
    <glyph glyph-name="f" unicode="f" 
d="M293 474q6 31 15.5 58.5t29.5 48t53.5 32.5t87.5 12q42 0 78 -5t67 -11l-30 -50q-32 8 -68.5 12t-68.5 4q-35 0 -55.5 -8.5t-32.5 -23t-17 -33.5t-9 -39l-11 -53h213l-9 -47h-213l-63 -324h213l-9 -47h-367l9 47h104l63 324h-104l9 47h104z" />
    <glyph glyph-name="g" unicode="g" 
d="M627 383h-81l-68 -353q-9 -46 -26.5 -81t-48.5 -58.5t-77.5 -35.5t-113.5 -12h-63l10 47q63 0 109 2.5t78 16t52 42t30 79.5l11 58h-2q-6 -8 -21.5 -21t-38.5 -26t-52 -22t-62 -9q-46 0 -81.5 17t-59 46.5t-32 68t-0.5 80.5q9 46 34.5 85t60.5 67t76.5 44t83.5 16
q4 0 21.5 -1t39.5 -8.5t45 -23t38 -44.5h2l15 73h131zM465 220q7 37 0 67.5t-25 52t-44.5 33t-57.5 11.5q-32 0 -63.5 -12t-58 -33t-46 -50.5t-26.5 -65.5q-7 -35 0.5 -64.5t25.5 -51.5t45 -34.5t60 -12.5q35 0 67 13.5t57.5 35.5t42.5 51t23 60z" />
    <glyph glyph-name="h" unicode="h" 
d="M245 374q18 12 39 24.5t44.5 23t48.5 17t52 6.5q69 0 99.5 -46t16.5 -119l-45 -233h84l-9 -47h-219l9 47h85l45 229q11 54 -8.5 86.5t-64.5 32.5q-24 0 -48.5 -7t-49 -18.5t-47.5 -25.5t-44 -29l-52 -268h79l-9 -47h-213l9 47h84l103 531l-94 -8l5 47l149 12z" />
    <glyph glyph-name="i" unicode="i" 
d="M336 47h173l-9 -47h-399l9 47h176l65 336h-147l10 47h197zM455 656l-24 -119h-72l24 119h72z" />
    <glyph glyph-name="j" unicode="j" 
d="M398 40q-4 -20 -13.5 -52.5t-32.5 -63t-65.5 -53t-112.5 -22.5q-40 0 -72 5.5t-60 11.5l20 48q20 -5 53 -10t71 -5q50 0 80.5 15t47.5 37.5t24 48.5t11 47l65 336h-255l10 47h305zM498 656l-24 -119h-72l24 119h72z" />
    <glyph glyph-name="k" unicode="k" 
d="M231 239l215 142v2h-56l10 47h209l-10 -47h-78l-193 -129q25 -27 49.5 -56.5t45.5 -57t37.5 -52t27.5 -41.5h84l-9 -47h-208l9 47h64q-12 18 -24.5 35.5t-29 38t-38.5 46t-51 59.5l-64 -43l-36 -183h-133l9 47h83l103 530l-96 -8l5 47l151 13z" />
    <glyph glyph-name="l" unicode="l" 
d="M334 47h174l-9 -47h-398l9 47h174l100 516l-165 -12l4 46l221 14z" />
    <glyph glyph-name="m" unicode="m" 
d="M191 395l15 11q1 1 9 6.5t21 12t29 11.5t34 5q32 0 55.5 -16.5t31.5 -46.5q27 26 59.5 44.5t67.5 18.5q26 0 49 -11.5t31 -31.5q5 -11 8 -21.5t3.5 -24t-1.5 -33t-8 -47.5l-44 -225h57l-9 -47h-107l53 272q4 21 7 42t0.5 38.5t-13.5 28t-35 10.5q-21 0 -48.5 -13.5
t-62.5 -52.5l-54 -278h62l-9 -47h-112l54 276q3 16 6 36.5t0 37.5t-14 29t-36 12q-18 0 -34.5 -6t-30 -14.5t-24.5 -18t-18 -17.5l-56 -288h68l-9 -47h-186l9 47h68l65 336h-68l10 47h114z" />
    <glyph glyph-name="n" unicode="n" 
d="M239 374q18 12 39.5 24.5t44.5 23t48.5 17t52.5 6.5q69 0 100 -46t17 -119l-45 -233h80l-9 -47h-216l9 47h86l45 229q11 55 -9.5 87t-65.5 32q-12 0 -28.5 -2.5t-39 -11t-52.5 -24t-69 -42.5l-52 -268h84l-9 -47h-216l9 47h82l65 336h-82l10 47h132z" />
    <glyph glyph-name="o" unicode="o" 
d="M94 218q9 45 33 87t61.5 74t87.5 51.5t111 19.5q63 0 105.5 -20t67 -53t32 -74.5t-1.5 -84.5q-8 -43 -31.5 -84.5t-60.5 -74.5t-87.5 -53t-113.5 -20q-61 0 -103.5 19.5t-67.5 52t-33 74t1 86.5zM148 218q-7 -35 -0.5 -68t26 -58.5t53 -40.5t80.5 -15q48 0 87 15.5
t68.5 41t48 58t25.5 67.5q7 34 1 67t-25.5 58.5t-52.5 41t-81 15.5q-47 0 -86 -15t-68.5 -40.5t-49 -58t-26.5 -68.5z" />
    <glyph glyph-name="p" unicode="p" 
d="M221 359h2q7 9 22.5 23t39 27.5t55 23.5t71.5 10q51 0 88.5 -19t60.5 -50.5t31 -71.5t0 -83q-10 -50 -37.5 -91.5t-64.5 -71.5t-80 -46.5t-83 -16.5q-6 0 -24 1.5t-41 9.5t-48 25.5t-45 49.5h-2l-36 -189h149l-10 -47h-281l10 47h82l95 493h-82l10 47h132zM190 222
q-9 -44 1.5 -77.5t32.5 -56t51 -34t58 -11.5q34 0 67 13.5t61 37t48 56t28 70.5q6 31 1.5 62t-21 55.5t-45 40t-70.5 15.5q-39 0 -74.5 -14t-64 -37t-47.5 -54.5t-26 -65.5z" />
    <glyph glyph-name="q" unicode="q" 
d="M573 383l-95 -493h82l-10 -47h-281l10 47h149l36 189h-2q-32 -32 -63.5 -49.5t-57.5 -25.5t-44.5 -9.5t-24.5 -1.5q-41 0 -77 16.5t-61.5 46.5t-37 71.5t-1.5 91.5q8 43 31.5 83t58.5 71.5t80 50.5t96 19q40 0 67.5 -10t45.5 -23.5t28 -27.5t15 -23h2l14 71h132l-10 -47
h-82zM496 222q7 34 -0.5 65.5t-27 54.5t-49.5 37t-69 14q-42 0 -76.5 -15.5t-60 -40t-42 -55.5t-22.5 -62q-8 -38 -0.5 -70.5t26 -56t46.5 -37t62 -13.5q29 0 62.5 11.5t64 34t54 56t32.5 77.5z" />
    <glyph glyph-name="r" unicode="r" 
d="M313 330q20 17 45 37t54 37t61.5 28.5t68.5 11.5q23 0 39.5 -5t28.5 -13t20 -17.5t14 -19.5l-61 -39q-3 3 -3 7q-3 6 -6 12.5t-9 12t-15.5 9t-24.5 3.5q-33 0 -66 -14.5t-63 -35t-54.5 -42.5t-40.5 -36l-43 -219h190l-9 -47h-364l9 47h124l65 336h-116l10 47h166z" />
    <glyph glyph-name="s" unicode="s" 
d="M568 443q-6 -16 -13 -36.5t-13 -49.5q-4 -21 -5.5 -35.5t-1.5 -27.5l-45 -5q0 15 -2 33t-14.5 33.5t-40.5 26.5t-80 11q-60 0 -96 -21.5t-42 -52.5q-5 -27 7.5 -42.5t38.5 -24t63 -11.5t81 -5q9 0 32 -3t45.5 -14t37.5 -33.5t8 -61.5q-7 -36 -30 -62.5t-53.5 -43.5
t-66 -25t-68.5 -8q-27 0 -49 4.5t-39.5 11.5t-30 14t-20.5 12l-1 1t-3 1q-7 0 -13.5 -12.5t-15.5 -29.5h-44q5 13 9.5 25.5t9.5 37.5q6 32 8.5 57t4.5 42l45 5q-1 -13 1 -33t15 -39t41.5 -33t80.5 -14q15 0 40.5 3t51.5 12t46.5 26t26.5 46q4 22 -4 35t-25.5 19.5t-43.5 8.5
t-57 3q-20 1 -54.5 4.5t-66 16t-51.5 38t-11 70.5q5 27 22.5 50t44 40t61 26.5t73.5 9.5q45 0 71 -10.5t38 -18.5q2 -2 8.5 -5.5t12.5 -3.5q8 0 13.5 9.5t8.5 14.5q5 10 6 13t4 8z" />
    <glyph glyph-name="t" unicode="t" 
d="M304 416h242l-9 -47h-242l-37 -189q-6 -28 -9.5 -54t2.5 -46t25 -32t58 -12q12 0 27.5 1.5t38.5 6.5t56 15.5t81 28.5l9 -45q-52 -22 -110 -39.5t-107 -17.5q-48 0 -75 14.5t-40 30.5q-21 26 -18.5 62t12.5 87l37 189h-68l9 47h68l28 147h50z" />
    <glyph glyph-name="u" unicode="u" 
d="M196 165q-2 -10 -4.5 -31.5t2.5 -43t22 -38t55 -16.5q42 0 84.5 21t93.5 66l50 260h-86l10 47h136l-75 -383h81l-9 -47h-131l11 55q-13 -9 -30.5 -21t-39 -22.5t-47 -18t-54.5 -7.5q-47 0 -73.5 17t-38.5 43t-12.5 57.5t5.5 61.5l42 218h-82l10 47h132z" />
    <glyph glyph-name="v" unicode="v" 
d="M308 383h-81l87 -325l215 325h-79l10 47h203l-10 -47h-74l-255 -383h-47l-108 383h-74l10 47h213z" />
    <glyph glyph-name="w" unicode="w" 
d="M255 383h-83l30 -303h2l150 272h35l46 -276h2l149 307h-84l10 47h170l-10 -47h-39l-186 -383h-52l-45 258l-143 -258h-49l-39 383h-43l10 47h179z" />
    <glyph glyph-name="x" unicode="x" 
d="M308 383h-61l101 -125l149 125h-58l10 47h184l-10 -47h-61l-187 -158l145 -178h63l-9 -47h-203l9 47h71l-115 146l-174 -146h70l-9 -47h-197l9 47h62l211 178l-129 158h-64l10 47h193z" />
    <glyph glyph-name="y" unicode="y" 
d="M285 383h-69l99 -304l233 304h-68l10 47h183l-10 -47h-58l-375 -489h89l-9 -47h-300l9 47h154l103 133l-117 356h-61l10 47h187z" />
    <glyph glyph-name="z" unicode="z" 
d="M571 387l-390 -340h277l18 92h47l-27 -139h-392l9 47l386 336h-264l-17 -89h-47l27 136h382z" />
    <glyph glyph-name="braceleft" unicode="{" 
d="M578 604q-18 0 -38 -1.5t-38 -9t-32 -22.5t-19 -42q-3 -16 -4.5 -32.5t0.5 -48.5l1 -35q0 -5 -0.5 -18.5t-2.5 -25.5q-8 -37 -29.5 -57t-43.5 -34q8 -7 16 -15t14 -18.5t8.5 -24.5t-0.5 -32q-3 -12 -7.5 -25.5t-6.5 -18.5l-15 -35q-14 -32 -19 -48.5t-9 -33.5
q-5 -27 3.5 -42t24.5 -22t35.5 -8.5t35.5 -1.5l-9 -48h-40q-19 0 -41 8q-38 13 -53 44.5t-7 71.5q2 16 15 50q1 3 3.5 8.5t5 12t4.5 12t4 8.5q6 16 12.5 34.5t10.5 35.5q4 20 -4.5 32t-21 18.5t-26.5 9t-21 3.5l10 51q39 4 65.5 19t32.5 46q1 9 2 19t1.5 20t0.5 17v12
q0 21 -0.5 34t-0.5 22t0.5 16t2.5 16q10 50 37 76t57.5 37.5t58 12.5t37.5 1z" />
    <glyph glyph-name="bar" unicode="|" 
d="M238 -185l167 858h53l-167 -858h-53z" />
    <glyph glyph-name="braceright" unicode="}" 
d="M130 -47q18 0 38 1.5t38 9t32 22.5t19 42q4 16 5 32.5t-1 48.5l-1 35q0 5 0.5 18.5t3.5 25.5q7 37 29 57t43 34q-8 6 -16 14.5t-14 19t-8.5 24.5t1.5 32q2 12 6.5 25.5t6.5 18.5l15 35q14 32 19.5 48.5t8.5 33.5q5 27 -4 42t-24.5 22t-35 8.5t-35.5 1.5l10 48h39
q19 0 41 -8q38 -13 53.5 -44.5t7.5 -71.5q-2 -7 -5.5 -20t-10.5 -30q-1 -3 -3 -8.5t-4.5 -12t-5.5 -12t-4 -8.5q-6 -16 -12.5 -34.5t-10.5 -35.5q-4 -20 4.5 -32t21 -18.5t26.5 -9t21 -3.5l-10 -51q-39 -4 -65 -19t-32 -46q-2 -9 -3 -19t-1.5 -20t-0.5 -18v-11
q0 -21 0.5 -34t0.5 -22t-0.5 -16t-2.5 -16q-10 -50 -37 -76.5t-57.5 -37.5t-57.5 -12t-37 -1z" />
    <glyph glyph-name="asciitilde" unicode="~" 
d="M583 349q-8 -11 -22 -27t-32 -31t-40.5 -26t-47.5 -11q-4 0 -9.5 0.5t-15 3t-24.5 8t-39 16.5q-22 10 -35 16t-21.5 9t-14.5 4t-13 1q-30 0 -53.5 -23.5t-51.5 -59.5l-26 39q13 17 28.5 35t32.5 32.5t37 24t44 9.5q22 0 42.5 -7.5t56.5 -24.5q18 -8 30 -13t19.5 -8
t12.5 -4t10 -1q6 0 15.5 2t22 9t28 20t32.5 36q1 2 3.5 5t3.5 4z" />
    <glyph glyph-name="quotesinglbase" unicode="&#x201a;" 
d="M227 -109h-71l123 242h104z" />
    <glyph glyph-name="florin" unicode="&#x192;" 
d="M622 609q-12 3 -29 5.5t-41 2.5q-57 0 -90.5 -14.5t-52 -35.5t-25.5 -44.5t-11 -42.5l-10 -55h176l-9 -42h-176l-64 -332q-7 -35 -20 -60.5t-45 -46.5q-38 -25 -82.5 -34t-87.5 -9q-13 0 -25.5 1t-23.5 3l13 50q15 -2 32.5 -4t34.5 -2q16 0 34.5 2.5t35.5 7t31.5 11.5
t24.5 16q14 14 19.5 33t9.5 39l63 325h-107l9 42h107l11 60q4 22 15.5 53t38 59t73.5 47.5t123 19.5q44 0 63 -4z" />
    <glyph glyph-name="quotedblbase" unicode="&#x201e;" 
d="M141 -109h-71l123 242h104zM313 -109h-71l124 242h103z" />
    <glyph glyph-name="ellipsis" unicode="&#x2026;" 
d="M323 119q29 0 49.5 -18.5t14.5 -49.5q-3 -16 -12 -28.5t-22 -21.5t-27.5 -13.5t-28.5 -4.5q-13 0 -26 4.5t-22.5 13t-14 21t-1.5 29.5q3 16 12 28.5t22 21.5t27.5 13.5t28.5 4.5zM523 119q29 0 49.5 -18.5t14.5 -49.5q-3 -16 -12 -28.5t-22 -21.5t-27.5 -13.5t-28.5 -4.5
q-13 0 -26 4.5t-22.5 13t-14 21t-1.5 29.5q3 16 12 28.5t22 21.5t27.5 13.5t28.5 4.5zM123 119q29 0 49.5 -18.5t14.5 -49.5q-3 -16 -12 -28.5t-22 -21.5t-27.5 -13.5t-28.5 -4.5q-13 0 -26 4.5t-22.5 13t-14 21t-1.5 29.5q3 16 12 28.5t22 21.5t27.5 13.5t28.5 4.5z" />
    <glyph glyph-name="dagger" unicode="&#x2020;" 
d="M411 425h111l-10 -49h-111l-82 -424h-55l82 424h-112l10 49h112l26 138h55z" />
    <glyph glyph-name="daggerdbl" unicode="&#x2021;" 
d="M409 423h110l-9 -47h-110l-31 -160h110l-9 -47h-110l-42 -217h-53l42 217h-110l9 47h110l31 160h-110l9 47h110l27 140h53z" />
    <glyph glyph-name="circumflex" unicode="&#x2c6;" 
d="M530 527l-36 -25l-89 66l-103 -66l-29 24l107 95h77z" />
    <glyph glyph-name="perthousand" unicode="&#x2030;" 
d="M265 253q27 0 46 -11.5t30 -30.5t14 -43t-2 -49q-5 -24 -17.5 -48t-30.5 -43t-41.5 -30.5t-50.5 -11.5t-46 12t-29.5 30.5t-14 42.5t1.5 48t17 48t30.5 43t42 31t50.5 12zM256 206q-14 0 -26.5 -7.5t-22.5 -19.5t-17.5 -27.5t-10.5 -31.5q-6 -33 5 -60t38 -27
q15 0 27.5 8t23 20.5t17 28t9.5 30.5t2 30.5t-6 27.5t-14.5 20t-24.5 8zM242 613q27 0 46 -11.5t30 -30.5t14 -42.5t-2 -48.5t-17.5 -49t-31 -42.5t-41.5 -30t-50 -11.5t-46 12t-29.5 30.5t-14 42.5t1.5 48t17 47.5t30.5 42.5t42 31t50.5 12zM233 566q-14 0 -26.5 -7.5
t-22.5 -19.5t-17.5 -27.5t-10.5 -31.5t-1.5 -31.5t7 -27.5t15 -19.5t23.5 -7.5q28 0 49 26.5t27 59.5q7 33 -4 59.5t-39 26.5zM526 253q27 0 45.5 -11.5t30 -30.5t14.5 -43t-2 -49t-17.5 -49t-31.5 -42.5t-42 -30t-49 -11.5q-28 0 -47 12t-29.5 31t-13.5 43t2 47
q4 23 16.5 47t30.5 43.5t41.5 31.5t51.5 12zM517 206q-14 0 -26.5 -7.5t-22.5 -19.5t-17.5 -27.5t-10.5 -31.5q-6 -33 4.5 -60t38.5 -27q14 0 27 7.5t23 20t17 28t10 31.5t2 31.5t-6 27.5t-15 19.5t-24 7.5zM81 218l-12 40l442 180l12 -40z" />
    <glyph glyph-name="Scaron" unicode="&#x160;" 
d="M619 574q-10 -23 -15 -38t-8 -34q-8 -35 -15 -119l-46 -8q1 16 0 42t-13 52q-4 9 -11.5 19.5t-20.5 19.5t-33 15.5t-50 6.5q-39 0 -69.5 -11.5t-52.5 -29t-35 -38t-17 -39.5q-7 -35 6 -55t35 -31t47 -15t43 -6q28 -3 49 -6t37 -6.5t29 -9t24 -14.5q23 -17 35.5 -45
t4.5 -71q-9 -44 -33.5 -76t-57.5 -53t-71.5 -31t-75.5 -10q-30 0 -51.5 5t-36.5 12.5t-24.5 15t-15.5 13.5q-1 1 -3.5 2.5t-4.5 1.5q-3 0 -6 -3l-5 -5q-4 -7 -6.5 -13.5t-11.5 -31.5h-45q9 24 15.5 46t8.5 33l2 10q1 8 3 21.5t3.5 29t3 30t2.5 25.5h45q0 -19 1.5 -43
t15.5 -46q5 -9 13 -18.5t21 -17t32 -12.5t46 -5q46 0 78.5 11t54 28t33 37.5t15.5 39.5q6 33 -4.5 52.5t-29.5 30t-42.5 14.5t-42.5 6q-29 3 -66 9t-68 22t-49 45.5t-8 79.5q7 34 28 65t52 55t70.5 38t82.5 14q27 0 47 -5t33.5 -11.5t22 -13.5t13.5 -11q10 -9 13.5 -11.5
t6.5 -2.5q7 0 9.5 6l12.5 30q4 10 5 13h45zM314 736l37 24l88 -65l105 66l27 -25l-106 -94h-76z" />
    <glyph glyph-name="guilsinglleft" unicode="&#x2039;" 
d="M283 227l159 -166l-37 -35l-195 201l274 203l26 -36z" />
    <glyph glyph-name="OE" unicode="&#x152;" 
d="M611 383h-44l17 133h-132l-37 -194h65l14 73h46l-38 -193h-46l14 73h-65l-44 -228h146l33 138h46l-36 -185h-308q-59 0 -96 27t-57 68t-24 89.5t5 92.5q12 60 41 112t71 91t94.5 61t111.5 22h258zM376 516q-50 0 -92 -19t-74.5 -51.5t-54.5 -75.5t-31 -90
q-7 -37 -4.5 -78t18.5 -75.5t47 -57t82 -22.5h44l91 469h-26z" />
    <glyph glyph-name="Zcaron" unicode="&#x17d;" 
d="M594 522l-441 -475h325l32 162h47l-41 -209h-432l9 47l436 469h-291l-28 -146h-47l37 193h402zM314 736l37 24l88 -65l105 66l27 -25l-106 -94h-76z" />
    <glyph glyph-name="quoteleft" unicode="&#x2018;" 
d="M393 563h71l-123 -243h-103z" />
    <glyph glyph-name="quoteright" unicode="&#x2019;" 
d="M310 320h-71l123 243h104z" />
    <glyph glyph-name="quotedblleft" unicode="&#x201c;" 
d="M547 563h71l-123 -243h-103zM375 563h71l-124 -243h-103z" />
    <glyph glyph-name="quotedblright" unicode="&#x201d;" 
d="M224 320h-71l123 243h104zM396 320h-71l124 243h103z" />
    <glyph glyph-name="bullet" unicode="&#x2022;" 
d="M374 382q-21 0 -40.5 -8t-35.5 -21.5t-27.5 -31.5t-15.5 -39q-8 -42 15 -71t65 -29q21 0 41 7.5t36 21t27.5 32t15.5 39.5q8 42 -15.5 71t-65.5 29z" />
    <glyph glyph-name="endash" unicode="&#x2013;" 
d="M563 262h-424l11 55h424z" />
    <glyph glyph-name="emdash" unicode="&#x2014;" 
d="M699 262h-696l11 55h696z" />
    <glyph glyph-name="tilde" unicode="&#x2dc;" 
d="M578 606q-3 -3 -4 -7q-20 -42 -51 -63.5t-63 -21.5q-17 0 -31 7t-34 25t-29 23.5t-20 5.5q-20 0 -35 -16t-27 -36q-1 -1 -2.5 -3.5l-1.5 -2.5l-37 14q22 38 48.5 63.5t63.5 25.5q24 0 39 -10t28 -24q30 -27 50 -27q13 0 24 6.5t19 16t14 19.5t11 18z" />
    <glyph glyph-name="trademark" unicode="&#x2122;" 
d="M703 539q-13 0 -23 -0.5t-12 -8.5l-43 -222q-2 -10 2.5 -11.5t27.5 -3.5l-5 -24h-110l5 24q20 1 28 2.5t10 12.5l37 193h-2l-141 -232h-14l-49 232h-2l-36 -188q-3 -14 2 -16.5t29 -3.5l-5 -24h-94l5 24q20 0 26 2t8 8l44 226q2 7 -7 8.5t-18 1.5l4 24h73l48 -223
l141 223h75zM332 502l-4 -16h-26q5 26 2 38.5t-30 12.5h-31l-45 -235q-2 -5 1.5 -7t23.5 -2h15l-5 -24h-126l5 24h24t13.5 1.5t6 4.5t2.5 9l44 229q-24 0 -37.5 -1.5t-21 -7t-12 -15.5t-9.5 -27h-26q6 16 9.5 28.5t7.5 28.5l3 20h227l-7 -28z" />
    <glyph glyph-name="scaron" unicode="&#x161;" 
d="M568 443q-6 -16 -13 -36.5t-13 -49.5q-4 -21 -5.5 -35.5t-1.5 -27.5l-45 -5q0 15 -2 33t-14.5 33.5t-40.5 26.5t-80 11q-60 0 -96 -21.5t-42 -52.5q-5 -27 7.5 -42.5t38.5 -24t63 -11.5t81 -5q9 0 32 -3t45.5 -14t37.5 -33.5t8 -61.5q-7 -36 -30 -62.5t-53.5 -43.5
t-66 -25t-68.5 -8q-27 0 -49 4.5t-39.5 11.5t-30 14t-20.5 12l-1 1t-3 1q-7 0 -13.5 -12.5t-15.5 -29.5h-44q5 13 9.5 25.5t9.5 37.5q6 32 8.5 57t4.5 42l45 5q-1 -13 1 -33t15 -39t41.5 -33t80.5 -14q15 0 40.5 3t51.5 12t46.5 26t26.5 46q4 22 -4 35t-25.5 19.5t-43.5 8.5
t-57 3q-20 1 -54.5 4.5t-66 16t-51.5 38t-11 70.5q5 27 22.5 50t44 40t61 26.5t73.5 9.5q45 0 71 -10.5t38 -18.5q2 -2 8.5 -5.5t12.5 -3.5q8 0 13.5 9.5t8.5 14.5q5 10 6 13t4 8zM288 603l37 24l88 -65l105 66l27 -25l-106 -94h-76z" />
    <glyph glyph-name="guilsinglright" unicode="&#x203a;" 
d="M204 26l-22 35l223 166l-161 167l39 36l195 -203z" />
    <glyph glyph-name="oe" unicode="&#x153;" 
d="M360 205q-11 -52 -6 -85.5t19 -52.5t32.5 -26.5t35.5 -7.5q32 0 65 8t55 14l9 -43q-57 -18 -89.5 -22.5t-46.5 -4.5q-9 0 -25.5 2.5t-34.5 11.5t-34 27.5t-25 51.5q-6 -9 -17.5 -24.5t-30.5 -31t-45 -26.5t-62 -11q-39 0 -62.5 13.5t-36.5 34t-17.5 45.5t-4 48.5
t3.5 42.5t5 28q9 48 27 93.5t44.5 81.5t62.5 57.5t82 21.5q30 0 50 -10.5t32 -24t18 -27.5t8 -21q31 42 68.5 62t70.5 20q39 0 61.5 -20.5t33.5 -51t11.5 -65t-4.5 -62.5q-2 -12 -5.5 -25.5t-5.5 -20.5h-242zM311 211q12 63 11.5 101t-10 58.5t-25 26.5t-33.5 6
q-31 0 -56 -18.5t-43.5 -48t-31.5 -65.5t-20 -71q-6 -28 -7 -57.5t5 -54t22 -40t45 -15.5q27 0 47.5 10.5t36 27.5t26 37.5t17.5 40.5t10.5 36.5t5.5 25.5zM562 249q6 28 6 55q0 28 -6.5 50t-21 35t-38.5 13q-8 0 -25.5 -5t-38 -20.5t-40 -46t-30.5 -81.5h194z" />
    <glyph glyph-name="zcaron" unicode="&#x17e;" 
d="M571 387l-390 -340h277l18 92h47l-27 -139h-392l9 47l386 336h-264l-17 -89h-47l27 136h382zM288 603l37 24l88 -65l105 66l27 -25l-106 -94h-76z" />
    <glyph glyph-name="Ydieresis" unicode="&#x178;" 
d="M328 516h-76l103 -248l197 248h-78l9 47h194l-9 -47h-63l-237 -298l-33 -171h118l-9 -47h-287l9 47h119l33 171l-123 298h-63l9 47h196zM418 754l-21 -108h-72l21 108h72zM548 754l-21 -108h-72l21 108h72z" />
    <glyph glyph-name="exclamdown" unicode="&#xa1;" 
d="M370 240l-56 -378h-83l93 378h46zM364 327q-30 0 -46 18t-11 44t28 43.5t52 17.5t45.5 -18t11.5 -44t-28 -43.5t-52 -17.5z" />
    <glyph glyph-name="cent" unicode="&#xa2;" 
d="M358 136q23 4 40.5 8t35 10t38.5 16t51 27l16 -41q-1 0 -3 -1.5t-3 -1.5q-27 -16 -47.5 -26.5t-41 -17.5t-43 -12t-52.5 -10l-28 -144h-49l28 144q-27 6 -46 12.5t-33 15.5t-24 21.5t-19 29.5q-11 23 -15.5 51t3.5 64q7 35 24.5 67.5t44.5 58.5t62.5 44t78.5 25l26 136
h49l-26 -136q24 -2 41 -8t28.5 -12.5t17 -13t7.5 -8.5q2 -1 3 -2.5t3 -1.5q3 0 5.5 3.5t4.5 7.5t3 8l1 4q4 10 4 12l46 -5q-6 -18 -13 -39.5t-11 -41.5q-2 -10 -4.5 -23.5t-4.5 -36.5l-48 -6q1 9 2.5 21t0 24.5t-6.5 25t-16 21.5q-18 14 -38.5 19.5t-33.5 5.5zM366 427
q-47 -10 -75.5 -32.5t-44.5 -46.5t-21.5 -43.5t-6.5 -22.5q-5 -22 -2 -48t17 -49q15 -26 35.5 -34.5t41.5 -13.5z" />
    <glyph glyph-name="sterling" unicode="&#xa3;" 
d="M253 339q-4 20 -6 35t-2.5 27.5t0.5 23.5t3 23q7 35 27.5 65t49.5 52t63.5 34.5t70.5 12.5q38 0 63.5 -8t45.5 -16q2 -1 5.5 -2t5.5 -1t3.5 1.5t6.5 8.5h45q-14 -28 -23 -52t-18 -60l-46 -5q3 12 5 20.5t3 12.5q2 6 1 14.5t-8 13.5q-11 6 -38 15t-59 9t-58.5 -10
t-46.5 -26.5t-32.5 -37t-16.5 -40.5q-2 -11 -2.5 -20.5t0 -22t3 -28.5t5.5 -39h243l-9 -47h-229q2 -20 0.5 -36t-5.5 -37q-14 -66 -39 -105.5t-47 -64.5l1 -2q16 7 34 13t41 6q18 0 33 -3.5t40 -14.5q20 -8 31.5 -11.5t22.5 -3.5q24 0 44.5 10.5t48.5 30.5l22 -36
q-8 -7 -20 -16t-27.5 -17t-34 -13.5t-39.5 -5.5q-14 0 -29 3t-38 12q-26 10 -39 14t-29 4q-20 0 -47 -7.5t-74 -31.5l-25 43q35 30 57.5 59.5t36 55t20 45.5t8.5 32q8 39 3 77h-105l9 47h91z" />
    <glyph glyph-name="currency" unicode="&#xa4;" 
d="M502 61l-66 80q-18 -12 -35 -19.5t-32.5 -11.5t-28 -5t-20.5 -1q-6 0 -17 1t-25 4.5t-29.5 11t-30.5 20.5l-96 -80l-29 34l98 80q-9 19 -13 35.5t-5 29.5t0 22t2 13q10 48 27 74t31 41l-66 81l41 33l65 -80q36 24 66.5 30.5t50.5 6.5q22 0 38.5 -4t28.5 -10t20.5 -12.5
t13.5 -10.5l97 80l29 -33l-98 -81q18 -35 18 -62t-2 -38q-9 -49 -27 -75t-31 -40l66 -80zM487 283q5 25 0 48.5t-18.5 42t-36 29.5t-52.5 11q-31 0 -57.5 -11.5t-47 -30t-34 -42t-17.5 -47.5q-5 -26 -0.5 -49.5t17.5 -42t35 -29.5t52 -11t57 11t48 29.5t35 42t19 49.5z" />
    <glyph glyph-name="yen" unicode="&#xa5;" 
d="M455 47l-9 -47h-286l9 47h119l18 92h-147l9 47h147l11 58h-147l10 47h147l2 13l-139 242h-61l9 47h197l-9 -47h-76l112 -195l185 195h-76l9 47h194l-9 -47h-60l-228 -242l-2 -13h144l-10 -47h-144l-11 -58h144l-9 -47h-144l-18 -92h119z" />
    <glyph glyph-name="brokenbar" unicode="&#xa6;" 
d="M332 300l73 373h53l-73 -373h-53zM238 -185l73 373h53l-73 -373h-53z" />
    <glyph glyph-name="section" unicode="&#xa7;" 
d="M506 430l16 86h-115q-8 0 -20.5 -1t-25.5 -6.5t-24 -17t-15 -33.5q-4 -20 4 -34.5t20 -25.5l118 -106q15 -14 28 -27t21 -26.5t11.5 -29t-0.5 -34.5q-2 -12 -9 -27t-19 -29t-30.5 -25t-43.5 -16q4 -8 8 -22t-1 -38q-10 -51 -52.5 -80t-105.5 -29h-158l28 144h47l-19 -97
h117q13 0 28 3.5t28 10.5t22.5 18.5t12.5 28.5q3 14 -1.5 27.5t-27.5 33.5l-114 103q-27 25 -44 48.5t-10 58.5q3 17 13 34t23.5 31t30.5 24t34 13q-7 9 -9.5 19.5t-3.5 20t0 17t2 10.5q6 32 25.5 53.5t37.5 32.5q25 14 52.5 17t44.5 3h148l-25 -133h-47zM316 352
q-27 -3 -43.5 -12.5t-25.5 -20t-12 -19.5t-3 -11q-2 -13 4 -27t34 -38l115 -105q24 1 40 7.5t26 15t15 18t6 15.5q2 9 1 17t-6.5 16.5t-15.5 19t-26 25.5z" />
    <glyph glyph-name="dieresis" unicode="&#xa8;" 
d="M392 621l-21 -108h-72l21 108h72zM522 621l-21 -108h-72l21 108h72z" />
    <glyph glyph-name="copyright" unicode="&#xa9;" 
d="M468 342q2 22 4 37t-2 23q-6 13 -25 21.5t-45 8.5q-31 0 -57 -11t-45.5 -30t-32 -44t-18.5 -53q-6 -29 -2.5 -55.5t15.5 -46.5t32.5 -31.5t49.5 -11.5q24 0 42.5 7.5t32.5 18.5t23.5 23t16.5 22l22 -10q-13 -24 -31 -41t-39 -28.5t-43.5 -17t-43.5 -5.5q-37 0 -64 14
t-43.5 37.5t-21.5 54.5t2 66q6 33 23 64t43.5 54.5t62 38t78.5 14.5q25 0 57 -6.5t56 -15.5l-19 -97h-28zM413 580q60 0 108.5 -22.5t80 -62t44 -92.5t0.5 -113t-45 -113t-80 -92.5t-104 -62.5t-117 -23t-108 23t-80 62.5t-45 92.5t-1 113q12 61 45.5 114t80.5 92
t104.5 61.5t116.5 22.5zM405 542q-52 0 -101.5 -19.5t-90.5 -54t-70 -80.5t-39 -99q-10 -52 1 -98t38.5 -80t69.5 -54t94 -20t101.5 20t90.5 54t70 80t39 98t-1 98.5t-38.5 80.5t-69.5 54t-94 20z" />
    <glyph glyph-name="ordfeminine" unicode="&#xaa;" 
d="M299 555q38 14 61 19.5t46 5.5q90 0 75 -80l-23 -118h43l-7 -36h-81l6 28q-31 -20 -51.5 -27.5t-43.5 -7.5q-35 0 -56 21.5t-15 53.5q8 36 42 58.5t85 22.5q15 0 27.5 -1t33.5 -4l2 7q5 25 -5.5 36t-39.5 11q-19 0 -40.5 -5.5t-51.5 -17.5zM434 454q-20 3 -32 4t-24 1
q-35 0 -58.5 -12t-28.5 -33q-3 -16 9 -27.5t31 -11.5q46 0 97 48zM474 266h-244l7 36h244z" />
    <glyph glyph-name="guillemotleft" unicode="&#xab;" horiz-adv-x="533" 
d="M385 50l-93 219l178 218h108l-178 -218l93 -219h-108zM195 50l-93 219l178 218h109l-178 -218l93 -219h-109z" />
    <glyph glyph-name="logicalnot" unicode="&#xac;" 
d="M552 169h-50l42 219h-379l10 50h429z" />
    <glyph glyph-name="registered" unicode="&#xae;" 
d="M389 466q8 0 26.5 -1.5t36.5 -9.5t30 -25.5t6 -48.5q-1 -5 -4.5 -16t-13 -24.5t-27.5 -26t-48 -19.5q14 -11 21 -32t16 -57q4 -18 8 -27.5t9 -14t13 -5t21 -0.5l-5 -24h-40q-29 0 -38.5 20.5t-15.5 55.5q-5 27 -9 41.5t-10.5 22t-17 9t-28.5 1.5h-18l-19 -100
q-2 -13 -2.5 -16.5t4.5 -6.5q2 -1 14 -2t20 -2l-5 -23h-127l5 23q2 1 7 1q6 0 7 1q19 2 23.5 5t8.5 20l45 233l2.5 15t-4.5 5q-1 1 -7 1q-2 0 -9 0.5t-18 1.5l5 25h138zM329 309q45 0 75 15t38 54q4 23 -2 36t-17.5 19t-25.5 7.5t-24 1.5q-28 0 -35 -3t-10 -18l-22 -112h23z
M413 580q60 0 108 -22.5t80 -61.5t44.5 -92t0.5 -114q-12 -60 -45 -112.5t-80 -92t-104 -62.5t-117 -23t-108.5 23t-80 62.5t-44.5 92t-1 112.5q12 61 45.5 114t80.5 92t104.5 61.5t116.5 22.5zM405 542q-52 0 -101.5 -19.5t-90.5 -54t-70 -80.5t-39 -98t1 -97.5t38.5 -80
t69 -54.5t94.5 -20q52 0 102 20t91 54.5t69.5 80t38.5 97.5q10 53 -1 99t-38.5 80t-70 53.5t-93.5 19.5z" />
    <glyph glyph-name="macron" unicode="&#xaf;" 
d="M575 542h-340l10 50h340z" />
    <glyph glyph-name="degree" unicode="&#xb0;" 
d="M238 467q6 32 23.5 60t42 49t55 33t62.5 12q33 0 58.5 -12.5t42 -33.5t22.5 -49t0 -59t-23.5 -58.5t-42 -48.5t-55 -33t-62.5 -12t-57.5 12t-42 32.5t-23 48t-0.5 59.5zM293 468q-8 -42 14.5 -70t64.5 -28q21 0 40.5 7.5t35 21t26.5 31t15 38.5q8 42 -14.5 70t-64.5 28
q-21 0 -40 -7.5t-35 -20.5t-27 -31t-15 -39z" />
    <glyph glyph-name="plusminus" unicode="&#xb1;" 
d="M399 380h209l-10 -50h-209l-38 -196h-50l38 196h-209l10 50h209l38 196h50zM540 31h-468l10 50h468z" />
    <glyph glyph-name="twosuperior" unicode="&#xb2;" 
d="M454 248h-239l8 39l10 8q12 9 29.5 22.5t36.5 28t36.5 28t29.5 22.5q30 23 48 38.5t28.5 27.5t14.5 22.5t7 24.5q6 30 -12 51t-49 21q-28 0 -51 -15t-28 -35l-1 -12h-42l9 47q54 55 122 55q24 0 44 -9t32.5 -24t17.5 -35.5t1 -44.5q-4 -19 -12 -34.5t-23.5 -33t-41 -38.5
t-64.5 -51l-81 -63h139l11 57h39z" />
    <glyph glyph-name="threesuperior" unicode="&#xb3;" 
d="M286 579q41 24 65.5 33t49.5 9q45 0 69.5 -27t16.5 -69q-9 -46 -53 -78q48 -35 38 -94q-5 -25 -18 -46t-32.5 -36t-44 -23.5t-51.5 -8.5q-22 0 -40.5 5t-49.5 19l-17 8l23 37q29 -15 51 -22t43 -7q35 0 61 21t33 53q12 68 -68 68h-24l8 40q27 1 39 3.5t25 10.5
q29 19 35 49q5 25 -10 41t-42 16q-17 0 -33.5 -5t-42.5 -21l-17 -10z" />
    <glyph glyph-name="acute" unicode="&#xb4;" 
d="M313 503l111 115h107l-165 -115h-53z" />
    <glyph glyph-name="mu" unicode="&#xb5;" 
d="M206 195q-5 -24 -7 -41t-2 -30q0 -12 3 -21t8 -18q14 -25 39.5 -37t53.5 -12t61 12t55 34q11 12 19 23.5t13.5 24.5t9.5 29t8 36l37 193h-82l9 42h132l-76 -389h83l-8 -41h-132l10 53h-2l-10 -12q-24 -26 -62 -40.5t-73 -14.5q-18 0 -34 4.5t-29.5 10.5t-22 12.5
t-11.5 11.5q-8 9 -10 12t-10 10l-38 -196h-49l104 537h-82l9 42h132z" />
    <glyph glyph-name="paragraph" unicode="&#xb6;" 
d="M487 -47l-6 -30h-116l6 30h19l113 580h-82l-113 -580h19l-6 -30h-126l6 30h62l60 308q-29 -2 -58 4t-51 23t-32 47.5t-1 78.5q11 55 34 85.5t52 44.5t62 16.5t65 2.5h207l-5 -30h-48l-113 -580h52zM376 533q-17 0 -33.5 -2t-31 -10.5t-26 -26.5t-17.5 -51l-12 -60
q-1 -6 -2 -22t5 -32.5t21.5 -28.5t48.5 -9z" />
    <glyph glyph-name="periodcentered" unicode="&#xb7;" 
d="M372 371q29 0 49.5 -18.5t14.5 -49.5q-3 -16 -12 -28.5t-22 -21.5t-27.5 -13.5t-28.5 -4.5q-13 0 -26 4.5t-22.5 13t-14 21t-1.5 29.5q3 16 12 28.5t22 21.5t27.5 13.5t28.5 4.5z" />
    <glyph glyph-name="cedilla" unicode="&#xb8;" 
d="M317 -25q24 -4 36.5 -13t17.5 -19t5 -18q0 -9 -1 -12q-1 -5 -4.5 -14.5t-13.5 -19t-27.5 -17t-45.5 -7.5q-37 0 -65 6l-42 9l15 44q15 -4 41.5 -9t58.5 -5h9q8 0 16.5 3t10.5 10q3 14 -17.5 18.5t-49.5 6.5l19 60h45z" />
    <glyph glyph-name="onesuperior" unicode="&#xb9;" 
d="M447 621l-65 -333h100l-8 -40h-243l8 40h102l55 283l-99 -40l-9 36l133 54h26z" />
    <glyph glyph-name="ordmasculine" unicode="&#xba;" 
d="M261 459q5 27 19 49.5t34 38t45 24.5t54 9q57 0 86 -33.5t18 -87.5q-11 -53 -52.5 -86.5t-98.5 -33.5t-86.5 33t-18.5 87zM301 460q-7 -38 13 -61.5t59 -23.5t68 23.5t36 61.5q8 37 -12 60.5t-59 23.5t-68 -23.5t-37 -60.5zM474 266h-244l7 36h244z" />
    <glyph glyph-name="guillemotright" unicode="&#xbb;" horiz-adv-x="533" 
d="M168 50h-108l178 219l-93 218h108l93 -218zM358 50h-108l176 219l-91 218h108l92 -218z" />
    <glyph glyph-name="onequarter" unicode="&#xbc;" 
d="M597 46l-7 -37h-53l-10 -50h53l-7 -36h-158l7 36h67l10 50h-159l8 40l197 247h48l-49 -250h53zM542 241l-153 -195h117l38 195h-2zM274 622l-65 -335h76l-8 -38h-191l8 38h77l56 288l-79 -30l-9 34l111 43h24zM71 -90l-24 22l646 701l24 -20z" />
    <glyph glyph-name="onehalf" unicode="&#xbd;" 
d="M267 622l-65 -335h76l-8 -38h-191l8 38h77l56 288l-79 -30l-9 34l112 43h23zM58 -90l-24 22l645 701l25 -20zM575 -77h-229l8 39q4 3 4.5 3.5t5 3.5t17 12.5t40.5 31.5q30 24 50.5 41t35.5 29t25.5 20.5t20.5 17.5q17 17 24 31t11 31q6 32 -11.5 53t-50.5 21
q-26 0 -49 -14.5t-28 -34.5v-5q0 -2 -1 -7h-38l9 45q54 54 116 54q49 0 75 -32t17 -80q-4 -18 -12 -34.5t-22.5 -34t-36.5 -37t-53 -43.5l-73 -55l-23 -18h141l11 57h34z" />
    <glyph glyph-name="threequarters" unicode="&#xbe;" 
d="M549 241l-153 -195h117l38 195h-2zM604 46l-7 -37h-53l-10 -50h53l-7 -36h-158l7 36h67l10 50h-159l8 40l197 247h48l-49 -250h53zM142 581q41 23 65.5 32t49.5 9q45 0 70 -27.5t17 -67.5q-5 -25 -17.5 -43.5t-37.5 -35.5q52 -33 40 -94q-10 -50 -51 -81.5t-95 -31.5
q-22 0 -40.5 5t-50.5 19l-17 7l22 35q31 -16 52 -22t43 -6q36 0 63 20.5t34 54.5t-10.5 53.5t-59.5 17.5l-23 -1l8 37q26 1 38.5 3.5t25.5 10.5q30 18 36 51q5 26 -10 42t-44 16q-17 0 -34.5 -6t-44.5 -20l-16 -9zM78 -90l-24 22l646 701l24 -20z" />
    <glyph glyph-name="questiondown" unicode="&#xbf;" 
d="M454 -105q-28 -9 -49.5 -15.5t-41 -11t-38.5 -6.5t-40 -2q-48 0 -81.5 14t-53 36.5t-25.5 52t0 61.5q8 44 32.5 73.5t56 48.5t65 30t60.5 18l11 60h49l-18 -97q-3 -1 -9.5 -2.5t-11.5 -2.5q-27 -6 -56.5 -14.5t-55.5 -23t-45.5 -37t-26.5 -56.5q-3 -15 -1 -34.5t14.5 -37
t37 -29t66.5 -11.5q37 0 64 7t54 17l12 64h50zM393 327q-29 0 -46 17.5t-12 43.5q5 27 29 44.5t52 17.5t45 -17.5t12 -44.5q-5 -26 -28 -43.5t-52 -17.5z" />
    <glyph glyph-name="Agrave" unicode="&#xc0;" 
d="M548 47h51l-9 -47h-205l9 47h102l-30 139h-261l-83 -139h102l-9 -47h-205l9 47h53l284 469h-143l9 47h215zM232 230h226l-60 274zM498 636h-52l-110 115h107z" />
    <glyph glyph-name="Aacute" unicode="&#xc1;" 
d="M548 47h51l-9 -47h-205l9 47h102l-30 139h-261l-83 -139h102l-9 -47h-205l9 47h53l284 469h-143l9 47h215zM232 230h226l-60 274zM339 636l111 115h107l-165 -115h-53z" />
    <glyph glyph-name="Acircumflex" unicode="&#xc2;" 
d="M548 47h51l-9 -47h-205l9 47h102l-30 139h-261l-83 -139h102l-9 -47h-205l9 47h53l284 469h-143l9 47h215zM232 230h226l-60 274zM556 660l-36 -25l-89 66l-103 -66l-29 24l107 95h77z" />
    <glyph glyph-name="Atilde" unicode="&#xc3;" 
d="M548 47h51l-9 -47h-205l9 47h102l-30 139h-261l-83 -139h102l-9 -47h-205l9 47h53l284 469h-143l9 47h215zM232 230h226l-60 274zM604 739q-3 -3 -4 -7q-20 -42 -51 -63.5t-63 -21.5q-17 0 -31 7t-34 25t-29 23.5t-20 5.5q-20 0 -35 -16t-27 -36q-1 -1 -2.5 -3.5
l-1.5 -2.5l-37 14q22 38 48.5 63.5t63.5 25.5q24 0 39 -10t28 -24q30 -27 50 -27q13 0 24 6.5t19 16t14 19.5t11 18z" />
    <glyph glyph-name="Adieresis" unicode="&#xc4;" 
d="M548 47h51l-9 -47h-205l9 47h102l-30 139h-261l-83 -139h102l-9 -47h-205l9 47h53l284 469h-143l9 47h215zM232 230h226l-60 274zM418 754l-21 -108h-72l21 108h72zM548 754l-21 -108h-72l21 108h72z" />
    <glyph glyph-name="Aring" unicode="&#xc5;" 
d="M548 47h51l-9 -47h-205l9 47h102l-30 139h-261l-83 -139h102l-9 -47h-205l9 47h53l284 469h-143l9 47h215zM232 230h226l-60 274zM451 775q32 0 49.5 -22t11.5 -54t-32.5 -54t-58.5 -22t-49.5 22t-11.5 54t32.5 54t58.5 22zM444 737q-16 0 -29 -10t-17 -28q-3 -16 6 -27
t25 -11t29 11t16 27t-5.5 27t-24.5 11z" />
    <glyph glyph-name="AE" unicode="&#xc6;" 
d="M623 383h-45l17 133h-143l-37 -194h65l14 73h46l-38 -193h-46l14 73h-65l-44 -228h152l33 139h46l-36 -186h-254l36 184h-123l-84 -137h89l-9 -47h-192l9 47h53l280 469h-103l9 47h391zM398 504l-157 -273h106l53 273h-2z" />
    <glyph glyph-name="Ccedilla" unicode="&#xc7;" 
d="M349 -25q10 0 21.5 -4t20.5 -12t14 -19.5t2 -26.5q-1 -4 -4.5 -13.5t-13.5 -19.5t-27.5 -17.5t-45.5 -7.5q-37 0 -65 6l-42 9l15 44q20 -5 44 -9.5t58 -4.5h7q8 0 16.5 3t10.5 10q3 14 -17.5 18.5t-49.5 6.5l15 45q-70 7 -111 39t-61 76.5t-22.5 95t6.5 94.5
q13 65 44 119t74.5 92.5t96.5 59.5t110 21q16 0 45.5 -4.5t58.5 -24.5q1 -2 5.5 -6t9 -8.5t9 -7.5t6.5 -3q3 0 6.5 5t6.5 12.5t6 15.5t6 15h37q-15 -63 -20 -107t-8 -84l-48 -8q0 17 -1 43.5t-13 51t-39 42.5t-79 18q-38 0 -78.5 -14.5t-76.5 -44t-64 -75t-40 -107.5
q-9 -48 -6 -94t22 -82t56 -58t94 -22q42 0 80.5 11.5t70 28t56.5 34t40 28.5l26 -36q-60 -48 -126 -79t-136 -37z" />
    <glyph glyph-name="Egrave" unicode="&#xc8;" 
d="M610 379h-46l16 137h-288l-38 -195h162l15 73h46l-38 -192h-46l14 72h-162l-44 -227h298l32 137h46l-36 -184h-484l9 47h85l91 469h-85l9 47h475zM498 636h-52l-110 115h107z" />
    <glyph glyph-name="Eacute" unicode="&#xc9;" 
d="M610 379h-46l16 137h-288l-38 -195h162l15 73h46l-38 -192h-46l14 72h-162l-44 -227h298l32 137h46l-36 -184h-484l9 47h85l91 469h-85l9 47h475zM339 636l111 115h107l-165 -115h-53z" />
    <glyph glyph-name="Ecircumflex" unicode="&#xca;" 
d="M610 379h-46l16 137h-288l-38 -195h162l15 73h46l-38 -192h-46l14 72h-162l-44 -227h298l32 137h46l-36 -184h-484l9 47h85l91 469h-85l9 47h475zM556 660l-36 -25l-89 66l-103 -66l-29 24l107 95h77z" />
    <glyph glyph-name="Edieresis" unicode="&#xcb;" 
d="M610 379h-46l16 137h-288l-38 -195h162l15 73h46l-38 -192h-46l14 72h-162l-44 -227h298l32 137h46l-36 -184h-484l9 47h85l91 469h-85l9 47h475zM418 754l-21 -108h-72l21 108h72zM548 754l-21 -108h-72l21 108h72z" />
    <glyph glyph-name="Igrave" unicode="&#xcc;" 
d="M600 516h-175l-91 -469h175l-9 -47h-400l9 47h175l91 469h-175l9 47h400zM498 636h-52l-110 115h107z" />
    <glyph glyph-name="Iacute" unicode="&#xcd;" 
d="M600 516h-175l-91 -469h175l-9 -47h-400l9 47h175l91 469h-175l9 47h400zM339 636l111 115h107l-165 -115h-53z" />
    <glyph glyph-name="Icircumflex" unicode="&#xce;" 
d="M600 516h-175l-91 -469h175l-9 -47h-400l9 47h175l91 469h-175l9 47h400zM556 660l-36 -25l-89 66l-103 -66l-29 24l107 95h77z" />
    <glyph glyph-name="Idieresis" unicode="&#xcf;" 
d="M600 516h-175l-91 -469h175l-9 -47h-400l9 47h175l91 469h-175l9 47h400zM418 754l-21 -108h-72l21 108h72zM548 754l-21 -108h-72l21 108h72z" />
    <glyph glyph-name="Eth" unicode="&#xd0;" 
d="M96 321h79l38 195h-79l9 47h250q33 0 61 -2.5t51.5 -10t43 -22.5t35.5 -40q17 -27 23.5 -56t7.5 -56t-2 -49t-5 -35q-17 -89 -54 -146t-75 -88q-27 -22 -56.5 -33.5t-56.5 -17t-49.5 -6.5t-36.5 -1h-246l9 47h79l44 227h-79zM172 47h117q13 0 31.5 0.5t39.5 5t44 14
t44 27.5q32 27 61.5 76.5t43.5 118.5q8 47 5.5 80t-10 55.5t-18 37t-19.5 23.5q-22 20 -52.5 25.5t-73.5 5.5h-122l-38 -195h166l-9 -47h-166z" />
    <glyph glyph-name="Ntilde" unicode="&#xd1;" 
d="M470 42h18l92 474h-112l9 47h223l-9 -47h-65l-103 -529h-89l-165 529h-17l-91 -469h113l-9 -47h-237l9 47h78l91 469h-78l9 47h171zM604 739q-3 -3 -4 -7q-20 -42 -51 -63.5t-63 -21.5q-17 0 -31 7t-34 25t-29 23.5t-20 5.5q-20 0 -35 -16t-27 -36q-1 -1 -2.5 -3.5
l-1.5 -2.5l-37 14q22 38 48.5 63.5t63.5 25.5q24 0 39 -10t28 -24q30 -27 50 -27q13 0 24 6.5t19 16t14 19.5t11 18z" />
    <glyph glyph-name="Ograve" unicode="&#xd2;" 
d="M98 281q12 62 40.5 116.5t70 95t93.5 64t111 23.5q60 0 103 -24t68 -65t32.5 -95t-4.5 -115q-12 -60 -40.5 -114.5t-69.5 -95t-93 -64.5t-112 -24q-59 0 -102 23.5t-68.5 64t-33 94.5t4.5 116zM152 282q-9 -45 -5 -89.5t23 -80t52.5 -57.5t83.5 -22q49 0 91.5 21.5
t75 56.5t54.5 79.5t31 91.5t4 92t-24 79.5t-52.5 55.5t-82.5 21q-52 0 -94.5 -22.5t-74.5 -58t-53 -80t-29 -87.5zM498 636h-52l-110 115h107z" />
    <glyph glyph-name="Oacute" unicode="&#xd3;" 
d="M98 281q12 62 40.5 116.5t70 95t93.5 64t111 23.5q60 0 103 -24t68 -65t32.5 -95t-4.5 -115q-12 -60 -40.5 -114.5t-69.5 -95t-93 -64.5t-112 -24q-59 0 -102 23.5t-68.5 64t-33 94.5t4.5 116zM152 282q-9 -45 -5 -89.5t23 -80t52.5 -57.5t83.5 -22q49 0 91.5 21.5
t75 56.5t54.5 79.5t31 91.5t4 92t-24 79.5t-52.5 55.5t-82.5 21q-52 0 -94.5 -22.5t-74.5 -58t-53 -80t-29 -87.5zM339 636l111 115h107l-165 -115h-53z" />
    <glyph glyph-name="Ocircumflex" unicode="&#xd4;" 
d="M98 281q12 62 40.5 116.5t70 95t93.5 64t111 23.5q60 0 103 -24t68 -65t32.5 -95t-4.5 -115q-12 -60 -40.5 -114.5t-69.5 -95t-93 -64.5t-112 -24q-59 0 -102 23.5t-68.5 64t-33 94.5t4.5 116zM152 282q-9 -45 -5 -89.5t23 -80t52.5 -57.5t83.5 -22q49 0 91.5 21.5
t75 56.5t54.5 79.5t31 91.5t4 92t-24 79.5t-52.5 55.5t-82.5 21q-52 0 -94.5 -22.5t-74.5 -58t-53 -80t-29 -87.5zM556 660l-36 -25l-89 66l-103 -66l-29 24l107 95h77z" />
    <glyph glyph-name="Otilde" unicode="&#xd5;" 
d="M98 281q12 62 40.5 116.5t70 95t93.5 64t111 23.5q60 0 103 -24t68 -65t32.5 -95t-4.5 -115q-12 -60 -40.5 -114.5t-69.5 -95t-93 -64.5t-112 -24q-59 0 -102 23.5t-68.5 64t-33 94.5t4.5 116zM152 282q-9 -45 -5 -89.5t23 -80t52.5 -57.5t83.5 -22q49 0 91.5 21.5
t75 56.5t54.5 79.5t31 91.5t4 92t-24 79.5t-52.5 55.5t-82.5 21q-52 0 -94.5 -22.5t-74.5 -58t-53 -80t-29 -87.5zM604 739q-3 -3 -4 -7q-20 -42 -51 -63.5t-63 -21.5q-17 0 -31 7t-34 25t-29 23.5t-20 5.5q-20 0 -35 -16t-27 -36q-1 -1 -2.5 -3.5l-1.5 -2.5l-37 14
q22 38 48.5 63.5t63.5 25.5q24 0 39 -10t28 -24q30 -27 50 -27q13 0 24 6.5t19 16t14 19.5t11 18z" />
    <glyph glyph-name="Odieresis" unicode="&#xd6;" 
d="M98 281q12 62 40.5 116.5t70 95t93.5 64t111 23.5q60 0 103 -24t68 -65t32.5 -95t-4.5 -115q-12 -60 -40.5 -114.5t-69.5 -95t-93 -64.5t-112 -24q-59 0 -102 23.5t-68.5 64t-33 94.5t4.5 116zM152 282q-9 -45 -5 -89.5t23 -80t52.5 -57.5t83.5 -22q49 0 91.5 21.5
t75 56.5t54.5 79.5t31 91.5t4 92t-24 79.5t-52.5 55.5t-82.5 21q-52 0 -94.5 -22.5t-74.5 -58t-53 -80t-29 -87.5zM418 754l-21 -108h-72l21 108h72zM548 754l-21 -108h-72l21 108h72z" />
    <glyph glyph-name="multiply" unicode="&#xd7;" 
d="M249 488l117 -146l175 146l29 -35l-176 -147l119 -146l-43 -36l-117 147l-175 -147l-29 36l175 146l-118 147z" />
    <glyph glyph-name="Oslash" unicode="&#xd8;" 
d="M65 4l62 65q-10 17 -18.5 37.5t-13.5 46t-5.5 57t7.5 70.5q12 62 40.5 116.5t70 95.5t94 64.5t112.5 23.5q34 0 58 -6.5t41.5 -16t29.5 -20.5t21 -19l48 49l30 -26l-55 -56q18 -29 25 -62t7 -63t-3.5 -52t-4.5 -29q-11 -59 -39 -113t-68.5 -94.5t-92.5 -64.5t-110 -24
q-30 0 -69 9t-77 45l-61 -60zM192 78q6 -6 15 -13.5t22.5 -14.5t32 -12t44.5 -5q46 0 87.5 19.5t74.5 53t56 78.5t33 96q9 45 5.5 85t-17.5 76zM524 477q-12 17 -27.5 27.5t-32 16t-33 7.5t-29.5 2q-48 0 -89.5 -21t-74.5 -55.5t-55 -79t-31 -91.5q-3 -14 -5 -35.5t-1 -45.5
t6.5 -48t17.5 -42z" />
    <glyph glyph-name="Ugrave" unicode="&#xd9;" 
d="M348 516h-102l-55 -282q-5 -31 -9.5 -66t3.5 -64q8 -30 35 -50.5t85 -20.5q60 0 94.5 17.5t54.5 45.5q20 27 29 60.5t16 67.5l56 292h-102l9 47h224l-9 -47h-72l-56 -292q-8 -38 -15.5 -64.5t-16 -46t-18 -33t-19.5 -24.5q-10 -12 -27.5 -24.5t-41.5 -23.5t-52.5 -18
t-61.5 -7q-18 0 -40 3t-43.5 12t-40.5 24t-31 39q-10 18 -12.5 41t-1 46.5t5.5 46t7 39.5l55 282h-72l9 47h224zM498 636h-52l-110 115h107z" />
    <glyph glyph-name="Uacute" unicode="&#xda;" 
d="M348 516h-102l-55 -282q-5 -31 -9.5 -66t3.5 -64q8 -30 35 -50.5t85 -20.5q60 0 94.5 17.5t54.5 45.5q20 27 29 60.5t16 67.5l56 292h-102l9 47h224l-9 -47h-72l-56 -292q-8 -38 -15.5 -64.5t-16 -46t-18 -33t-19.5 -24.5q-10 -12 -27.5 -24.5t-41.5 -23.5t-52.5 -18
t-61.5 -7q-18 0 -40 3t-43.5 12t-40.5 24t-31 39q-10 18 -12.5 41t-1 46.5t5.5 46t7 39.5l55 282h-72l9 47h224zM339 636l111 115h107l-165 -115h-53z" />
    <glyph glyph-name="Ucircumflex" unicode="&#xdb;" 
d="M348 516h-102l-55 -282q-5 -31 -9.5 -66t3.5 -64q8 -30 35 -50.5t85 -20.5q60 0 94.5 17.5t54.5 45.5q20 27 29 60.5t16 67.5l56 292h-102l9 47h224l-9 -47h-72l-56 -292q-8 -38 -15.5 -64.5t-16 -46t-18 -33t-19.5 -24.5q-10 -12 -27.5 -24.5t-41.5 -23.5t-52.5 -18
t-61.5 -7q-18 0 -40 3t-43.5 12t-40.5 24t-31 39q-10 18 -12.5 41t-1 46.5t5.5 46t7 39.5l55 282h-72l9 47h224zM556 660l-36 -25l-89 66l-103 -66l-29 24l107 95h77z" />
    <glyph glyph-name="Udieresis" unicode="&#xdc;" 
d="M348 516h-102l-55 -282q-5 -31 -9.5 -66t3.5 -64q8 -30 35 -50.5t85 -20.5q60 0 94.5 17.5t54.5 45.5q20 27 29 60.5t16 67.5l56 292h-102l9 47h224l-9 -47h-72l-56 -292q-8 -38 -15.5 -64.5t-16 -46t-18 -33t-19.5 -24.5q-10 -12 -27.5 -24.5t-41.5 -23.5t-52.5 -18
t-61.5 -7q-18 0 -40 3t-43.5 12t-40.5 24t-31 39q-10 18 -12.5 41t-1 46.5t5.5 46t7 39.5l55 282h-72l9 47h224zM418 754l-21 -108h-72l21 108h72zM548 754l-21 -108h-72l21 108h72z" />
    <glyph glyph-name="Yacute" unicode="&#xdd;" 
d="M328 516h-76l103 -248l197 248h-78l9 47h194l-9 -47h-63l-237 -298l-33 -171h118l-9 -47h-287l9 47h119l33 171l-123 298h-63l9 47h196zM339 636l111 115h107l-165 -115h-53z" />
    <glyph glyph-name="Thorn" unicode="&#xde;" 
d="M315 0h-244l9 47h81l91 469h-81l9 47h244l-9 -47h-113l-10 -51h55q46 0 77.5 -1t53.5 -4.5t37 -9.5t29 -16q29 -20 42.5 -56.5t4.5 -82.5q-4 -23 -14 -44.5t-23.5 -40t-29.5 -33.5t-34 -24q-20 -11 -38.5 -17t-41.5 -9t-53.5 -3.5t-75.5 -0.5h-55l-15 -76h113zM235 170
h57q61 0 107.5 3t76.5 24q17 11 35 35t26 60q7 41 -7 68.5t-33 37.5q-8 5 -17 8.5t-22 6t-31.5 4t-45.5 1.5h-98z" />
    <glyph glyph-name="germandbls" unicode="&#xdf;" 
d="M229 451q8 40 27.5 72.5t46.5 55t58 34.5t63 12q33 0 57 -11.5t39 -31t20 -45.5t-1 -55q-9 -45 -39.5 -79t-68.5 -48q13 -5 36 -15.5t43.5 -32t32 -57t1.5 -89.5q-6 -33 -22.5 -63.5t-41.5 -53.5t-58.5 -37t-73.5 -14q-49 0 -74 12.5t-35 20.5l10 52q16 -11 41.5 -23
t65.5 -12q18 0 39 6.5t40 21t34.5 38t21.5 57.5q15 76 -28 116t-143 44l9 46q10 1 33.5 4t48.5 14t46.5 32t28.5 59q8 40 -9.5 67t-63.5 27q-19 0 -40 -6.5t-39.5 -21.5t-34 -40.5t-22.5 -63.5l-86 -443h-126l9 47h76z" />
    <glyph glyph-name="agrave" unicode="&#xe0;" 
d="M559 47l-9 -47h-139l14 72q-18 -14 -41.5 -29.5t-50 -28t-56 -20.5t-60.5 -8q-38 0 -65 12.5t-44 32.5t-23 45t-1 51q4 20 19 46t43.5 49.5t72.5 39.5t106 16q3 0 17 -0.5t33 -2t42 -4t46 -6.5l6 31q2 12 3.5 30t-6.5 35t-30.5 29t-67.5 12q-27 0 -70.5 -8t-108.5 -34
l-10 45q34 14 86.5 29.5t112.5 15.5q64 0 95 -18.5t42 -44t8.5 -51t-4.5 -40.5l-49 -249h89zM454 219q-17 3 -51.5 7t-76.5 4q-62 0 -99 -14.5t-56.5 -33t-26 -35.5t-7.5 -21q-3 -19 2 -35.5t18 -29t30.5 -20t38.5 -7.5q12 0 32 3t47 13.5t60.5 31.5t72.5 57zM472 503h-52
l-110 115h107z" />
    <glyph glyph-name="aacute" unicode="&#xe1;" 
d="M559 47l-9 -47h-139l14 72q-18 -14 -41.5 -29.5t-50 -28t-56 -20.5t-60.5 -8q-38 0 -65 12.5t-44 32.5t-23 45t-1 51q4 20 19 46t43.5 49.5t72.5 39.5t106 16q3 0 17 -0.5t33 -2t42 -4t46 -6.5l6 31q2 12 3.5 30t-6.5 35t-30.5 29t-67.5 12q-27 0 -70.5 -8t-108.5 -34
l-10 45q34 14 86.5 29.5t112.5 15.5q64 0 95 -18.5t42 -44t8.5 -51t-4.5 -40.5l-49 -249h89zM454 219q-17 3 -51.5 7t-76.5 4q-62 0 -99 -14.5t-56.5 -33t-26 -35.5t-7.5 -21q-3 -19 2 -35.5t18 -29t30.5 -20t38.5 -7.5q12 0 32 3t47 13.5t60.5 31.5t72.5 57zM313 503
l111 115h107l-165 -115h-53z" />
    <glyph glyph-name="acircumflex" unicode="&#xe2;" 
d="M559 47l-9 -47h-139l14 72q-18 -14 -41.5 -29.5t-50 -28t-56 -20.5t-60.5 -8q-38 0 -65 12.5t-44 32.5t-23 45t-1 51q4 20 19 46t43.5 49.5t72.5 39.5t106 16q3 0 17 -0.5t33 -2t42 -4t46 -6.5l6 31q2 12 3.5 30t-6.5 35t-30.5 29t-67.5 12q-27 0 -70.5 -8t-108.5 -34
l-10 45q34 14 86.5 29.5t112.5 15.5q64 0 95 -18.5t42 -44t8.5 -51t-4.5 -40.5l-49 -249h89zM454 219q-17 3 -51.5 7t-76.5 4q-62 0 -99 -14.5t-56.5 -33t-26 -35.5t-7.5 -21q-3 -19 2 -35.5t18 -29t30.5 -20t38.5 -7.5q12 0 32 3t47 13.5t60.5 31.5t72.5 57zM511 527
l-36 -25l-89 66l-103 -66l-29 24l107 95h77z" />
    <glyph glyph-name="atilde" unicode="&#xe3;" 
d="M559 47l-9 -47h-139l14 72q-18 -14 -41.5 -29.5t-50 -28t-56 -20.5t-60.5 -8q-38 0 -65 12.5t-44 32.5t-23 45t-1 51q4 20 19 46t43.5 49.5t72.5 39.5t106 16q3 0 17 -0.5t33 -2t42 -4t46 -6.5l6 31q2 12 3.5 30t-6.5 35t-30.5 29t-67.5 12q-27 0 -70.5 -8t-108.5 -34
l-10 45q34 14 86.5 29.5t112.5 15.5q64 0 95 -18.5t42 -44t8.5 -51t-4.5 -40.5l-49 -249h89zM454 219q-17 3 -51.5 7t-76.5 4q-62 0 -99 -14.5t-56.5 -33t-26 -35.5t-7.5 -21q-3 -19 2 -35.5t18 -29t30.5 -20t38.5 -7.5q12 0 32 3t47 13.5t60.5 31.5t72.5 57zM578 606
q-3 -2 -4 -7q-20 -42 -51 -63.5t-63 -21.5q-17 0 -31 7t-34 25t-29 23.5t-20 5.5q-20 0 -35 -16t-27 -36q-1 -1 -2.5 -3.5l-1.5 -2.5l-37 14q22 38 48.5 63.5t63.5 25.5q24 0 39 -10t28 -24q16 -14 27.5 -20.5t22.5 -6.5q13 0 23.5 6.5t19.5 16t15 19.5t10 18z" />
    <glyph glyph-name="adieresis" unicode="&#xe4;" 
d="M559 47l-9 -47h-139l14 72q-18 -14 -41.5 -29.5t-50 -28t-56 -20.5t-60.5 -8q-38 0 -65 12.5t-44 32.5t-23 45t-1 51q4 20 19 46t43.5 49.5t72.5 39.5t106 16q3 0 17 -0.5t33 -2t42 -4t46 -6.5l6 31q2 12 3.5 30t-6.5 35t-30.5 29t-67.5 12q-27 0 -70.5 -8t-108.5 -34
l-10 45q34 14 86.5 29.5t112.5 15.5q64 0 95 -18.5t42 -44t8.5 -51t-4.5 -40.5l-49 -249h89zM454 219q-17 3 -51.5 7t-76.5 4q-62 0 -99 -14.5t-56.5 -33t-26 -35.5t-7.5 -21q-3 -19 2 -35.5t18 -29t30.5 -20t38.5 -7.5q12 0 32 3t47 13.5t60.5 31.5t72.5 57zM373 621
l-21 -108h-72l21 108h72zM503 621l-21 -108h-72l21 108h72z" />
    <glyph glyph-name="aring" unicode="&#xe5;" 
d="M559 47l-9 -47h-139l14 72q-18 -14 -41.5 -29.5t-50 -28t-56 -20.5t-60.5 -8q-38 0 -65 12.5t-44 32.5t-23 45t-1 51q4 20 19 46t43.5 49.5t72.5 39.5t106 16q3 0 17 -0.5t33 -2t42 -4t46 -6.5l6 31q2 12 3.5 30t-6.5 35t-30.5 29t-67.5 12q-27 0 -70.5 -8t-108.5 -34
l-10 45q34 14 86.5 29.5t112.5 15.5q64 0 95 -18.5t42 -44t8.5 -51t-4.5 -40.5l-49 -249h89zM454 219q-17 3 -51.5 7t-76.5 4q-62 0 -99 -14.5t-56.5 -33t-26 -35.5t-7.5 -21q-3 -19 2 -35.5t18 -29t30.5 -20t38.5 -7.5q12 0 32 3t47 13.5t60.5 31.5t72.5 57zM425 642
q32 0 49.5 -22t11.5 -54t-32.5 -54t-58.5 -22t-49.5 22t-11.5 54t32.5 54t58.5 22zM418 604q-16 0 -29 -10t-17 -28q-3 -16 6.5 -27t25.5 -11t28.5 11t15.5 27t-5.5 27t-24.5 11z" />
    <glyph glyph-name="ae" unicode="&#xe6;" 
d="M359 203q-6 -43 -6.5 -72t14.5 -55q17 -30 40 -36t37 -6q30 0 60 7t57 15l10 -43q-58 -19 -92 -23t-47 -4q-30 0 -50 9t-33.5 21t-20.5 24.5t-10 19.5q-28 -23 -52.5 -38t-45 -23t-37 -11t-29.5 -3q-30 0 -51 11t-33 29.5t-15.5 42t1.5 48.5q4 25 19.5 52t39 48.5
t56.5 35.5t74 14q17 0 32.5 -2.5t42.5 -6.5l7 35q5 26 6 46.5t-4.5 34.5t-18 21.5t-35.5 7.5q-26 0 -53 -6t-72 -21l-6 44q46 16 78 23.5t63 7.5q27 0 44.5 -6t27.5 -16.5t15 -24t7 -28.5q10 10 23 23.5t29.5 24.5t36.5 19t44 8q4 0 16.5 -1.5t27.5 -8.5t29.5 -22
t23.5 -42.5t8.5 -69.5t-15.5 -103h-243zM311 209q-25 5 -41.5 7t-33.5 2q-34 0 -57.5 -11t-39 -26.5t-23.5 -33.5t-10 -31q-3 -15 -1.5 -29.5t8 -26.5t18.5 -19.5t31 -7.5q18 0 37 6t35 15t30 18.5t23 16.5zM562 250q12 75 -3 113.5t-57 38.5q-26 0 -46.5 -13.5t-34.5 -26.5
q-27 -27 -36 -53.5t-16 -58.5h193z" />
    <glyph glyph-name="ccedilla" unicode="&#xe7;" 
d="M325 -26q20 -5 27 -21.5t3 -33.5q-1 -8 -6.5 -19t-13.5 -21t-21 -16.5t-31 -6.5q-20 0 -31.5 7t-22.5 15l29 37q14 -11 18.5 -13t11.5 -2q12 0 16.5 6.5t5.5 11.5q3 13 -5.5 15t-12.5 2q-8 0 -13 -0.5t-10 -1.5l14 54q-38 1 -73.5 17t-60.5 45.5t-35.5 71.5t-0.5 95
q8 40 30.5 80.5t57.5 73.5t84 54t111 21q39 0 67.5 -9.5t55.5 -31.5q0 -1 3 -3.5l6 -5t6 -4.5l3 -2q3 0 6 5.5t4 7.5l16 41l45 -5l-13.5 -40.5t-13.5 -51.5q-5 -27 -10 -66l-47 -7q-1 34 -4.5 53.5t-19.5 35.5q-11 11 -26 17.5t-30 10t-28.5 4.5t-23.5 1q-48 0 -86.5 -15.5
t-67.5 -41t-46.5 -57t-24.5 -64.5q-6 -32 -1 -64t22 -58t49 -42.5t81 -16.5q54 0 110 23.5t119 61.5l18 -38q-32 -21 -61 -37t-57.5 -28t-57.5 -20t-62 -11z" />
    <glyph glyph-name="egrave" unicode="&#xe8;" 
d="M570 57q-22 -11 -51.5 -23.5t-63 -23t-70 -17.5t-71.5 -7q-61 0 -102.5 19t-66 50.5t-31.5 73t2 85.5q9 46 33.5 88t61 74t84 50.5t102.5 18.5q57 0 96.5 -18t62 -47t29.5 -64.5t1 -69.5l-6.5 -26t-4.5 -19h-408q-3 -20 -0.5 -48.5t18.5 -54.5t49 -45t91 -19q31 0 65 7.5
t65 18t57 22t44 19.5zM532 248q5 24 -0.5 50.5t-22 48.5t-46.5 36t-75 14q-50 0 -86.5 -17t-62.5 -40.5t-41 -49t-22 -42.5h356zM489 503h-52l-110 115h107z" />
    <glyph glyph-name="eacute" unicode="&#xe9;" 
d="M570 57q-22 -11 -51.5 -23.5t-63 -23t-70 -17.5t-71.5 -7q-61 0 -102.5 19t-66 50.5t-31.5 73t2 85.5q9 46 33.5 88t61 74t84 50.5t102.5 18.5q57 0 96.5 -18t62 -47t29.5 -64.5t1 -69.5l-6.5 -26t-4.5 -19h-408q-3 -20 -0.5 -48.5t18.5 -54.5t49 -45t91 -19q31 0 65 7.5
t65 18t57 22t44 19.5zM532 248q5 24 -0.5 50.5t-22 48.5t-46.5 36t-75 14q-50 0 -86.5 -17t-62.5 -40.5t-41 -49t-22 -42.5h356zM313 503l111 115h107l-165 -115h-53z" />
    <glyph glyph-name="ecircumflex" unicode="&#xea;" 
d="M570 57q-22 -11 -51.5 -23.5t-63 -23t-70 -17.5t-71.5 -7q-61 0 -102.5 19t-66 50.5t-31.5 73t2 85.5q9 46 33.5 88t61 74t84 50.5t102.5 18.5q57 0 96.5 -18t62 -47t29.5 -64.5t1 -69.5l-6.5 -26t-4.5 -19h-408q-3 -20 -0.5 -48.5t18.5 -54.5t49 -45t91 -19q31 0 65 7.5
t65 18t57 22t44 19.5zM532 248q5 24 -0.5 50.5t-22 48.5t-46.5 36t-75 14q-50 0 -86.5 -17t-62.5 -40.5t-41 -49t-22 -42.5h356zM530 527l-36 -25l-89 66l-103 -66l-29 24l107 95h77z" />
    <glyph glyph-name="edieresis" unicode="&#xeb;" 
d="M570 57q-22 -11 -51.5 -23.5t-63 -23t-70 -17.5t-71.5 -7q-61 0 -102.5 19t-66 50.5t-31.5 73t2 85.5q9 46 33.5 88t61 74t84 50.5t102.5 18.5q57 0 96.5 -18t62 -47t29.5 -64.5t1 -69.5l-6.5 -26t-4.5 -19h-408q-3 -20 -0.5 -48.5t18.5 -54.5t49 -45t91 -19q31 0 65 7.5
t65 18t57 22t44 19.5zM532 248q5 24 -0.5 50.5t-22 48.5t-46.5 36t-75 14q-50 0 -86.5 -17t-62.5 -40.5t-41 -49t-22 -42.5h356zM392 621l-21 -108h-72l21 108h72zM522 621l-21 -108h-72l21 108h72z" />
    <glyph glyph-name="igrave" unicode="&#xec;" 
d="M472 503h-52l-110 115h107zM336 47h173l-9 -47h-399l9 47h176l65 336h-147l10 47h197z" />
    <glyph glyph-name="iacute" unicode="&#xed;" 
d="M313 503l111 115h107l-165 -115h-53zM336 47h173l-9 -47h-399l9 47h176l65 336h-147l10 47h197z" />
    <glyph glyph-name="icircumflex" unicode="&#xee;" 
d="M530 527l-36 -25l-89 66l-103 -66l-29 24l107 95h77zM336 47h173l-9 -47h-399l9 47h176l65 336h-147l10 47h197z" />
    <glyph glyph-name="idieresis" unicode="&#xef;" 
d="M392 621l-21 -108h-72l21 108h72zM522 621l-21 -108h-72l21 108h72zM336 47h173l-9 -47h-399l9 47h176l65 336h-147l10 47h197z" />
    <glyph glyph-name="eth" unicode="&#xf0;" 
d="M270 516l65 76q-17 9 -30 15.5t-24.5 11.5t-22.5 9t-25 9l26 49q18 -6 31.5 -11t26 -10.5t26 -12t29.5 -15.5l54 67l37 -28l-51 -62q14 -9 35.5 -25.5t45.5 -40t46.5 -55t38 -71.5t20.5 -88.5t-6 -106.5t-39 -103t-67.5 -75.5t-88 -46.5t-100.5 -16q-62 0 -104.5 20
t-67 52.5t-32 74t0.5 85.5q11 55 39.5 98t67.5 73t85 45.5t92 15.5q39 0 75.5 -8t56.5 -19l3 2q-11 18 -21.5 34.5t-26 34t-37 35.5t-53.5 39l-68 -82zM148 218q-7 -36 -0.5 -69t26 -59t52.5 -41.5t80 -15.5q48 0 88 16t69 42t48 59t25 68q7 34 1 67.5t-25.5 59.5t-52.5 42
t-81 16q-47 0 -86 -15.5t-68.5 -41t-49 -59t-26.5 -69.5z" />
    <glyph glyph-name="ntilde" unicode="&#xf1;" 
d="M239 374q18 12 39.5 24.5t45 23t48.5 17t52 6.5q34 0 59.5 -12t40.5 -34t19.5 -52.5t-2.5 -66.5l-45 -233h80l-9 -47h-216l9 47h86l45 229q10 55 -10 87t-65 32q-12 0 -28.5 -2.5t-39 -11t-52.5 -24t-69 -42.5l-52 -268h84l-9 -47h-216l9 47h82l65 336h-82l10 47h132z
M578 606q-3 -2 -4 -7q-20 -42 -51 -63.5t-63 -21.5q-17 0 -31 7t-34 25t-29 23.5t-20 5.5q-20 0 -35 -16t-27 -36q-1 -1 -2.5 -3.5l-1.5 -2.5l-37 14q22 38 48.5 63.5t63.5 25.5q24 0 39 -10t28 -24q16 -14 27.5 -20.5t22.5 -6.5q13 0 23.5 6.5t19.5 16t15 19.5t10 18z" />
    <glyph glyph-name="ograve" unicode="&#xf2;" 
d="M94 218q9 45 33 87t61.5 74t87.5 51.5t111 19.5q63 0 106 -20t67 -53t31.5 -74.5t-1.5 -84.5q-8 -43 -31.5 -84.5t-60.5 -74.5t-87.5 -53t-113.5 -20q-61 0 -103.5 19.5t-67.5 52t-32.5 74t0.5 86.5zM148 218q-6 -35 0 -68t25.5 -58.5t53 -40.5t80.5 -15q48 0 87.5 15.5
t68.5 41t48 58t25 67.5q7 34 1 67t-25 58.5t-52.5 41t-81.5 15.5q-47 0 -86 -15t-69 -40.5t-49 -58t-26 -68.5zM472 503h-52l-110 115h107z" />
    <glyph glyph-name="oacute" unicode="&#xf3;" 
d="M94 218q9 45 33 87t61.5 74t87.5 51.5t111 19.5q63 0 106 -20t67 -53t31.5 -74.5t-1.5 -84.5q-8 -43 -31.5 -84.5t-60.5 -74.5t-87.5 -53t-113.5 -20q-61 0 -103.5 19.5t-67.5 52t-32.5 74t0.5 86.5zM148 218q-6 -35 0 -68t25.5 -58.5t53 -40.5t80.5 -15q48 0 87.5 15.5
t68.5 41t48 58t25 67.5q7 34 1 67t-25 58.5t-52.5 41t-81.5 15.5q-47 0 -86 -15t-69 -40.5t-49 -58t-26 -68.5zM313 503l111 115h107l-165 -115h-53z" />
    <glyph glyph-name="ocircumflex" unicode="&#xf4;" 
d="M94 218q9 45 33 87t61.5 74t87.5 51.5t111 19.5q63 0 106 -20t67 -53t31.5 -74.5t-1.5 -84.5q-8 -43 -31.5 -84.5t-60.5 -74.5t-87.5 -53t-113.5 -20q-61 0 -103.5 19.5t-67.5 52t-32.5 74t0.5 86.5zM148 218q-6 -35 0 -68t25.5 -58.5t53 -40.5t80.5 -15q48 0 87.5 15.5
t68.5 41t48 58t25 67.5q7 34 1 67t-25 58.5t-52.5 41t-81.5 15.5q-47 0 -86 -15t-69 -40.5t-49 -58t-26 -68.5zM530 527l-36 -25l-89 66l-103 -66l-29 24l107 95h77z" />
    <glyph glyph-name="otilde" unicode="&#xf5;" 
d="M94 218q9 45 33 87t61.5 74t87.5 51.5t111 19.5q63 0 106 -20t67 -53t31.5 -74.5t-1.5 -84.5q-8 -43 -31.5 -84.5t-60.5 -74.5t-87.5 -53t-113.5 -20q-61 0 -103.5 19.5t-67.5 52t-32.5 74t0.5 86.5zM148 218q-6 -35 0 -68t25.5 -58.5t53 -40.5t80.5 -15q48 0 87.5 15.5
t68.5 41t48 58t25 67.5q7 34 1 67t-25 58.5t-52.5 41t-81.5 15.5q-47 0 -86 -15t-69 -40.5t-49 -58t-26 -68.5zM578 606q-3 -2 -4 -7q-20 -42 -51 -63.5t-63 -21.5q-17 0 -31 7t-34 25t-29 23.5t-20 5.5q-20 0 -35 -16t-27 -36q-1 -1 -2.5 -3.5l-1.5 -2.5l-37 14
q22 38 48.5 63.5t63.5 25.5q24 0 39 -10t28 -24q16 -14 27.5 -20.5t22.5 -6.5q13 0 23.5 6.5t19.5 16t15 19.5t10 18z" />
    <glyph glyph-name="odieresis" unicode="&#xf6;" 
d="M94 218q9 45 33 87t61.5 74t87.5 51.5t111 19.5q63 0 106 -20t67 -53t31.5 -74.5t-1.5 -84.5q-8 -43 -31.5 -84.5t-60.5 -74.5t-87.5 -53t-113.5 -20q-61 0 -103.5 19.5t-67.5 52t-32.5 74t0.5 86.5zM148 218q-6 -35 0 -68t25.5 -58.5t53 -40.5t80.5 -15q48 0 87.5 15.5
t68.5 41t48 58t25 67.5q7 34 1 67t-25 58.5t-52.5 41t-81.5 15.5q-47 0 -86 -15t-69 -40.5t-49 -58t-26 -68.5zM392 621l-21 -108h-72l21 108h72zM522 621l-21 -108h-72l21 108h72z" />
    <glyph glyph-name="divide" unicode="&#xf7;" 
d="M403 528q18 0 29 -12.5t7 -32.5q-4 -18 -19 -31.5t-35 -13.5q-19 0 -29.5 13.5t-6.5 31.5q4 20 20.5 32.5t33.5 12.5zM588 278h-468l10 50h468zM333 168q17 0 28.5 -12.5t7.5 -32.5t-20.5 -32.5t-33.5 -12.5q-18 0 -29 13t-7 32q4 20 20 32.5t34 12.5z" />
    <glyph glyph-name="oslash" unicode="&#xf8;" 
d="M64 23l55 46q-13 21 -19 42.5t-8 41.5t-1 37t4 29q8 43 31.5 85t61.5 74t87.5 52t111.5 20q35 0 76 -9.5t68 -35.5l58 50l31 -38l-55 -46q14 -21 20.5 -43.5t8 -43t0.5 -38t-4 -28.5q-8 -45 -32.5 -87t-62 -74.5t-87.5 -51.5t-109 -19q-5 0 -21 0.5t-37 5t-45 14
t-45 26.5l-55 -46zM197 68q8 -6 16.5 -11.5t20.5 -10t29.5 -7.5t43.5 -3q48 0 87.5 15.5t68.5 41t48 58t25 67.5q13 65 -17 114zM487 369q-11 6 -21 11.5t-21.5 10t-27.5 7t-39 2.5q-48 0 -87.5 -16t-69 -41.5t-48 -58t-25.5 -66.5q-4 -20 -2.5 -52t18.5 -61z" />
    <glyph glyph-name="ugrave" unicode="&#xf9;" 
d="M196 165q-2 -10 -4.5 -31.5t2.5 -43t22 -38t55 -16.5q42 0 84.5 21t93.5 66l50 260h-86l10 47h136l-75 -383h81l-9 -47h-131l11 55q-13 -9 -30.5 -21t-39 -22.5t-47 -18t-54.5 -7.5q-47 0 -73.5 17t-38.5 43t-12.5 57.5t5.5 61.5l42 218h-82l10 47h132zM472 503h-52
l-110 115h107z" />
    <glyph glyph-name="uacute" unicode="&#xfa;" 
d="M196 165q-2 -10 -4.5 -31.5t2.5 -43t22 -38t55 -16.5q42 0 84.5 21t93.5 66l50 260h-86l10 47h136l-75 -383h81l-9 -47h-131l11 55q-13 -9 -30.5 -21t-39 -22.5t-47 -18t-54.5 -7.5q-47 0 -73.5 17t-38.5 43t-12.5 57.5t5.5 61.5l42 218h-82l10 47h132zM313 503l111 115
h107l-165 -115h-53z" />
    <glyph glyph-name="ucircumflex" unicode="&#xfb;" 
d="M196 165q-2 -10 -4.5 -31.5t2.5 -43t22 -38t55 -16.5q42 0 84.5 21t93.5 66l50 260h-86l10 47h136l-75 -383h81l-9 -47h-131l11 55q-13 -9 -30.5 -21t-39 -22.5t-47 -18t-54.5 -7.5q-47 0 -73.5 17t-38.5 43t-12.5 57.5t5.5 61.5l42 218h-82l10 47h132zM530 527l-36 -25
l-89 66l-103 -66l-29 24l107 95h77z" />
    <glyph glyph-name="udieresis" unicode="&#xfc;" 
d="M196 165q-2 -10 -4.5 -31.5t2.5 -43t22 -38t55 -16.5q42 0 84.5 21t93.5 66l50 260h-86l10 47h136l-75 -383h81l-9 -47h-131l11 55q-13 -9 -30.5 -21t-39 -22.5t-47 -18t-54.5 -7.5q-47 0 -73.5 17t-38.5 43t-12.5 57.5t5.5 61.5l42 218h-82l10 47h132zM392 621l-21 -108
h-72l21 108h72zM522 621l-21 -108h-72l21 108h72z" />
    <glyph glyph-name="yacute" unicode="&#xfd;" 
d="M285 383h-69l99 -304l233 304h-68l10 47h183l-10 -47h-58l-375 -489h89l-9 -47h-300l9 47h154l103 133l-117 356h-61l10 47h187zM313 503l111 115h107l-165 -115h-53z" />
    <glyph glyph-name="thorn" unicode="&#xfe;" 
d="M223 359q8 9 23 23t38.5 27.5t55 23.5t71.5 10q51 0 88.5 -19t60.5 -50t31 -71.5t0 -83.5q-10 -51 -37.5 -92.5t-64.5 -71t-80 -46t-83 -16.5q-6 0 -24 1.5t-41.5 9.5t-48 25.5t-44.5 49.5h-2l-36 -189h149l-10 -47h-281l10 47h82l133 687l-90 -4l10 47l140 9l-52 -270h2
zM190 222q-8 -44 2.5 -77.5t32 -56t50.5 -34t58 -11.5q34 0 67.5 13.5t61 37t47.5 56t28 70.5q6 31 1.5 62t-21 55.5t-45 40t-70.5 15.5q-39 0 -74.5 -14t-63.5 -37t-47.5 -54.5t-26.5 -65.5z" />
    <glyph glyph-name="ydieresis" unicode="&#xff;" 
d="M108 430l-10 -47h61l117 -356l-103 -133h-154l-9 -47h300l9 47h-89l375 489h58l10 47h-183l-10 -47h68l-233 -304l-99 304h69l10 47h-187zM299 513h72l21 108h-72zM429 513h72l21 108h-72z" />
    <glyph glyph-name="FL1200h" unicode="&#x1200;" horiz-adv-x="472" 
d="M490 247q-12 -60 -39.5 -106t-63.5 -77.5t-77 -47.5t-81 -16h-27q-38 0 -65 7.5t-43 24.5t-20.5 44.5t3.5 68.5q14 72 34.5 144.5t37.5 150.5q2 14 3 28.5t0 27t-5.5 22t-13.5 12.5l108 26q19 -3 23 -31t-6 -77q-8 -40 -19.5 -82.5t-23.5 -85.5t-23 -86t-17 -84
q-5 -40 9 -68t44 -28q33 0 58 14t44.5 44.5t35 78.5t28.5 116l38 196q2 16 2 31q0 16 -3 28.5t-10 22t-20 12.5l96 26q23 0 34.5 -30.5t1.5 -84.5z" />
    <glyph glyph-name="FL1201h" unicode="&#x1201;" horiz-adv-x="678" 
d="M711 322q-18 7 -26 18t-10 22.5t-1 21.5t1 15q-1 7 -0.5 11.5t-10.5 8.5l-149 -45l17 91q11 54 -0.5 84.5t-34.5 30.5l-96 -26q12 -3 19.5 -12.5t10.5 -22t3 -28.5q0 -15 -3 -31l-37 -193q-13 -68 -28.5 -116t-35 -78.5t-44.5 -44.5t-58 -14q-30 0 -44 28t-9 68
q6 41 17 83.5t23 85t23.5 84.5t18.5 82q10 49 6.5 77t-23.5 31l-108 -26q9 -3 13.5 -12t6 -22t0.5 -27.5t-4 -28.5q-12 -55 -24 -100t-24 -93q-7 -30 -13 -55t-10 -44q-8 -41 -3.5 -68.5t20.5 -44.5t43 -24.5t65 -7.5h27q40 0 81 16t77 47.5t63.5 77.5t39.5 106l21 109
l54 16q3 -33 22.5 -56t54.5 -23q41 4 69 29z" />
    <glyph glyph-name="FL1202h" unicode="&#x1202;" horiz-adv-x="469" 
d="M385 6l-15 -3t-14 -2q-12 0 -19 4.5t-10.5 10.5t-5 11t-2.5 7l-153 -28q-20 0 -29.5 13t-6.5 29q2 8 8 19t12 21.5t11.5 19t6.5 10.5l123 199l-138 -12q-19 0 -33.5 9.5t-9.5 34.5q14 44 22.5 72t13 44.5t6.5 23t3 8.5q2 14 -2 24t-19 15l108 24q15 0 19 -12.5t0 -30.5
l-6.5 -21t-15.5 -47.5t-16.5 -50t-8.5 -26.5q-4 -20 8.5 -31t50.5 -11q16 0 26 8.5t23 28.5q29 42 46 71t26 47t11.5 27t3.5 11q2 12 -3.5 21.5t-21.5 17.5l107 20q6 0 9.5 -5t5 -12.5t1.5 -16.5q0 -8 -1 -14q-2 -7 -6.5 -18.5t-10.5 -24.5t-13 -26t-15 -24l-220 -360
q-4 -6 -6 -14q-2 -11 -0.5 -22.5t12.5 -11.5l71 13l2 6q2 9 10.5 23t33.5 22l12 3l18 4.5t19.5 4.5t17.5 4q-3 0 -7 -14.5t-6 -24.5l-2 -10q-1 -17 6 -29t21 -15z" />
    <glyph glyph-name="FL1203h" unicode="&#x1203;" horiz-adv-x="428" 
d="M502 533q-4 -15 -16.5 -43t-29.5 -52l-218 -362q-4 -7 -6 -14q-3 -17 6 -28.5t19 -16.5l-93 -18q-18 0 -27 17.5t-6 37.5q1 9 6 15q4 8 11 20.5t19 31.5l122 196l-137 -12q-18 0 -32.5 9.5t-9.5 34.5q15 45 23.5 73t13 43.5t6 22t1.5 7.5q3 14 -1 24t-19 16l107 24
q15 0 19 -12.5t0 -30.5q0 1 -7 -20t-15.5 -47.5t-16 -49.5t-8.5 -27q-4 -20 8.5 -31t51.5 -11q14 0 24.5 9t23.5 29q27 43 43.5 71.5t25.5 45.5t12 25t3 11v1q4 25 -24 39l106 20q6 0 9.5 -5t5 -12.5t1.5 -16.5q0 -8 -1 -14z" />
    <glyph glyph-name="FL1204h" unicode="&#x1204;" horiz-adv-x="461" 
d="M455 121q-4 -19 -15.5 -36t-28 -31t-37.5 -23.5t-43 -12.5q-16 -5 -57.5 -9t-108.5 -10q-18 0 -26.5 16.5t-4.5 36.5q2 8 11.5 28.5t22.5 40.5l123 196l-138 -12q-19 0 -33.5 9.5t-9.5 34.5q15 45 23.5 73t13 43.5t6 22t1.5 7.5q3 14 -1 24t-19 16l108 24q15 0 19 -12.5
t0 -30.5q0 1 -7 -20t-15.5 -47.5t-16 -49.5t-8.5 -27q-4 -20 8.5 -31t52.5 -11q14 0 24.5 9t23.5 29q28 43 44.5 71t25.5 45.5t12 25.5t3 11v1q4 25 -24 39l107 20q6 0 9.5 -5t5 -12.5t1.5 -16.5q0 -8 -1 -14q-3 -15 -16.5 -42.5t-29.5 -52.5l-220 -362q-3 -3 -5 -11t-3 -11
q-6 -32 19 -32q18 1 34.5 8t30 17.5t22.5 24.5t12 30q3 18 -4.5 34.5t-21.5 21.5l95 23q17 0 27.5 -17.5t8.5 -42.5z" />
    <glyph glyph-name="FL1205h" unicode="&#x1205;" horiz-adv-x="488" 
d="M502 224q-8 -41 -30.5 -81.5t-54.5 -72t-71.5 -51t-81.5 -19.5h-27q-76 0 -111.5 27t-24.5 79q9 48 25.5 97t30.5 100q-12 -5 -21.5 -7t-17.5 -2q-12 0 -30 3q15 10 27.5 30.5t22.5 43t16.5 43t8.5 29.5q5 30 0.5 51.5t-25.5 27.5l114 30q9 0 13.5 -7.5t6.5 -19
t1.5 -25.5t-2.5 -27q-2 -9 -7.5 -25.5t-13.5 -36.5t-17.5 -42t-19.5 -41q14 0 27 2t27 4q-16 -48 -33.5 -94t-27.5 -94q-3 -26 -3 -50t5.5 -42t18 -29t35.5 -11q26 0 48 17t39.5 46.5t31 69t22.5 83.5l41 215q10 42 1 74.5t-28 36.5l94 25q12 0 21 -10.5t14 -28.5t5 -42
t-6 -50z" />
    <glyph glyph-name="FL1206h" unicode="&#x1206;" horiz-adv-x="641" 
d="M133 530q9 -3 13.5 -12.5t5.5 -22t0 -27t-3 -28.5q-12 -55 -24.5 -101.5t-24.5 -94.5q-7 -30 -13 -55t-10 -44q-8 -41 -3.5 -68.5t20.5 -44.5t43 -24.5t65 -7.5h27q40 0 81.5 16t77.5 47.5t63.5 77.5t39.5 106l17 85q49 7 83.5 20.5t58 33t36.5 44.5t19 54
q9 48 -14.5 71.5t-63.5 23.5q-18 0 -37 -3l-187 -33q25 -4 28 -37.5t-7 -84.5l-30 -152q-13 -68 -28.5 -116.5t-35 -79.5t-44.5 -45t-58 -14q-30 0 -44 28t-9 68q6 41 17 84t23 86t23.5 85.5t19.5 82.5q10 49 6 77t-23 31zM605 477q-12 -58 -34.5 -94t-59.5 -36q11 53 15 87
t5 55.5t0.5 33.5t0.5 23l34 7q28 0 36.5 -22t2.5 -54z" />
    <glyph glyph-name="FL1208h" unicode="&#x1208;" horiz-adv-x="480" 
d="M454 20l-101 -20q-4 1 -8.5 5t-7.5 7q-12 20 -15 47.5t-1.5 58t5.5 63.5t5 64q0 49 -2.5 90.5t-23.5 73.5q-17 0 -39.5 -27.5t-45 -69t-41 -88.5t-25.5 -86q-3 -12 -4.5 -29t0 -34t6.5 -32.5t15 -25.5q-28 -6 -54 -9.5t-53 -7.5q-10 14 -13.5 31t-3 35t3.5 36t7 35
q9 49 25.5 96.5t41 91t57 81t73.5 66.5q1 4 0.5 7.5t-3.5 10.5q-5 13 -10 30t-2 37l93 23q3 -28 11 -52t23 -38q23 -23 36 -51t19 -59t7 -64t0 -67q-1 -36 -3 -70.5t-1 -64.5t7.5 -54.5t21.5 -39.5z" />
    <glyph glyph-name="FL1209h" unicode="&#x1209;" horiz-adv-x="582" 
d="M610 297q-18 7 -26 18t-10 22.5t-1 21.5t1 15q-1 7 -0.5 11.5t-9.5 8.5l-137 -51q-6 45 -19.5 83t-40.5 64q-15 14 -23 38t-11 52l-93 -23q-3 -20 2 -37t10 -30q3 -7 3.5 -10.5t-0.5 -7.5q-41 -29 -73.5 -66.5t-57 -81t-41 -91t-25.5 -96.5q-4 -17 -7 -35t-3.5 -36t3 -35
t13.5 -31q27 4 53 7.5t54 9.5q-10 10 -15 25.5t-6.5 32.5t0 34t4.5 29q7 39 25.5 86t41 88.5t45 69t39.5 27.5q21 -32 23.5 -73.5t2.5 -90.5q-1 -31 -5 -64t-5.5 -63.5t1.5 -58t15 -47.5q3 -3 7.5 -7t8.5 -5l101 20q-15 15 -21.5 39.5t-7.5 54.5t1 64.5t3 70.5q1 39 0 78
l34 14q3 -33 23 -53t55 -20q41 4 69 29z" />
    <glyph glyph-name="FL120Ah" unicode="&#x120a;" horiz-adv-x="649" 
d="M532 -14l87 15q-28 13 -22 62q2 8 6.5 22t11.5 23l-77 -13q-17 -3 -32 -18t-18 -32l-1 -2q-18 -5 -30.5 -6t-20.5 15q-6 18 -8 40t-2 47q0 26 1.5 53.5t1.5 56.5q1 34 0 67t-7 64t-19 59t-36 51q-15 14 -23 38t-11 52l-93 -23q-3 -20 2 -37t10 -30q3 -7 3.5 -10.5
t-0.5 -7.5q-41 -29 -73.5 -66.5t-57 -81t-41 -91t-25.5 -96.5q-4 -17 -7 -35t-3.5 -36t3 -35t13.5 -31q27 4 53 7.5t54 9.5q-10 10 -15 25.5t-6.5 32.5t0 34t4.5 29q7 39 25.5 86t41 88.5t45 69t39.5 27.5q21 -32 23.5 -73.5t2.5 -90.5q-1 -31 -5 -64t-5.5 -63.5t1.5 -58
t15 -47.5q3 -3 7.5 -7t8.5 -5l134 28q-2 -26 13 -34t32 -8z" />
    <glyph glyph-name="FL120Bh" unicode="&#x120b;" horiz-adv-x="462" 
d="M436 20l-101 -20q-4 1 -8.5 5t-7.5 7q-12 20 -15 47.5t-1.5 58t5.5 63.5t5 64q0 49 -2.5 90.5t-23.5 73.5q-17 0 -35 -16.5t-34.5 -43.5t-29.5 -61.5t-20 -69.5q-4 -25 0 -47t24 -42q-28 -6 -54 -9.5t-53 -7.5q-19 24 -18 54.5t8 64.5q6 31 16.5 62t29 61t47 59.5
t69.5 58.5q1 4 0.5 7.5t-3.5 10.5q-5 13 -10 30t-2 37l93 23q3 -28 11 -52t23 -38q23 -23 36 -51t19 -59t7 -64t0 -67q-1 -36 -3 -70.5t-1 -64.5t7.5 -54.5t21.5 -39.5z" />
    <glyph glyph-name="FL120Ch" unicode="&#x120c;" horiz-adv-x="633" 
d="M154 138q7 39 25.5 86t41 88.5t45 69t39.5 27.5q20 -30 23.5 -68.5t2.5 -83.5q-3 -34 -6.5 -69.5t-4 -68.5t4 -61t18.5 -46q3 -3 7.5 -7t8.5 -5q25 0 42 1.5t28.5 3.5t18.5 3.5t13 1.5q13 0 25 -2.5t26 -2.5q43 1 72 25t39 72l1 6q3 49 -18 70.5t-63 21.5h-9
q-24 -3 -52 -8l-56 -10l4 75q1 32 0 64.5t-7.5 62.5t-19.5 57t-36 49q-15 14 -23 38t-11 52l-93 -23q-3 -20 2 -37t10 -30q3 -7 3.5 -10.5t-0.5 -7.5q-41 -29 -73.5 -66.5t-57 -81t-41 -91t-25.5 -96.5q-4 -17 -7 -35t-3.5 -36t3 -35t13.5 -31q27 4 53 7.5t54 9.5
q-10 10 -15 25.5t-6.5 32.5t0 34t4.5 29zM523 104q-5 -29 -11.5 -45.5t-14.5 -25t-17 -10.5t-18 -2q-12 0 -20 18.5t-12 43t-5 49.5t1 38l54 9q8 0 17 -4t16 -13t10.5 -23t-0.5 -35z" />
    <glyph glyph-name="FL120Dh" unicode="&#x120d;" horiz-adv-x="565" 
d="M236 110q8 38 6 65.5t-15 27.5q-3 0 -4 -1l-36 -16q-2 -2 -9 -14t-14.5 -28t-14 -32t-8.5 -26q-5 -26 4 -36t27 -10h8q23 0 36.5 19.5t19.5 50.5zM437 0q-16 8 -23 25t-9 34.5t-2 31.5q0 15 -1 19l1 163q-2 36 -4 60.5t-6 40.5t-10.5 25t-16.5 14q-17 -6 -36.5 -27.5
t-41.5 -51.5t-45 -64.5t-48 -66.5l54 23q24 8 37 8q12 0 23 -4.5t17 -17t7 -35.5t-6 -59q-5 -27 -18.5 -46.5t-48.5 -30.5q-2 1 -12 1h-9q-9 0 -15 -0.5t-12 -2l-14 -3.5l-20 -5q-29 -7 -55.5 -19t-44.5 -12q-8 0 -15 6.5t-12.5 16.5t-7.5 22.5t1 25.5q1 4 3.5 13.5
t5.5 19.5t6.5 19.5t6.5 14.5q12 28 36.5 73.5t58.5 94t75 92t85 66.5q-3 3 -7 12.5t-7 21.5t-4.5 25t0.5 24l95 27q3 -9 6.5 -20t8.5 -22.5t11 -22t14 -16.5q24 -21 38 -57t21.5 -84.5t8.5 -107.5t-2 -127q-1 -12 1 -27.5t7 -30.5t11.5 -26.5t14.5 -15.5z" />
    <glyph glyph-name="FL120Eh" unicode="&#x120e;" horiz-adv-x="645" 
d="M484 362q-7 -38 -7.5 -64t4.5 -42t14 -23t21 -7q-1 1 16 5.5t39 12.5q33 5 54 14t33 21.5t16.5 28t3.5 33.5q0 42 -11.5 57.5t-33.5 15.5l-207 -51q-6 36 -19 68.5t-40 58.5q-15 14 -23 38t-11 52l-93 -23q-3 -20 2 -37t10 -30q3 -7 3.5 -10.5t-0.5 -7.5
q-41 -29 -73.5 -66.5t-57 -81t-41 -91t-25.5 -96.5q-4 -17 -7 -35t-3.5 -36t3 -35t13.5 -31q27 4 53 7.5t54 9.5q-10 10 -15 25.5t-6.5 32.5t0 34t4.5 29q7 39 25.5 86t41 88.5t45 69t39.5 27.5q21 -32 23.5 -73.5t2.5 -90.5q-1 -31 -5 -64t-5.5 -63.5t1.5 -58t15 -47.5
q3 -3 7.5 -7t8.5 -5l101 20q-15 15 -21.5 39.5t-7.5 54.5t1 64.5t3 70.5q1 26 0.5 50.5t-2.5 47.5zM574 257q-8 -2 -14.5 4t-10 15.5t-4.5 22t1 23.5q0 21 6 39t23 24q32 8 33 -52q-1 -33 -7 -52.5t-27 -23.5z" />
    <glyph glyph-name="l8" unicode="&#x120f;" horiz-adv-x="646" 
d="M452 27l-169 -7q-17 -61 -52 -85t-74 -24q-20 0 -32 3t-20 6q25 16 32.5 34t10.5 34q2 11 -2 20t-3 13q1 9 16 9l164 7q-16 41 -12.5 90.5t9.5 100t5.5 97.5t-24.5 83q-41 -25 -66.5 -53t-39.5 -54t-20 -46t-8 -29q-5 -25 -1.5 -45.5t27.5 -33.5l-105 -20q-17 16 -19 40
t3 49t16.5 54t32.5 60t53 63.5t78 63.5l-15 35q-6 15 -11.5 27t-1.5 32l93 23q7 -32 18 -52.5t26 -34.5q31 -31 44 -69t16 -78.5t-0.5 -82.5t-5.5 -81t2 -74t21 -61l145 6q11 0 10 -10q0 -1 -2 -6t-4.5 -11l-5 -12t-3.5 -7q-2 -14 7.5 -30t20.5 -22q-9 -4 -21 -6.5t-22.5 -4
t-18.5 -2t-9 -0.5q-39 0 -59 20t-24 71z" />
    <glyph glyph-name="hh1" unicode="&#x1210;" horiz-adv-x="671" 
d="M545 -1q-28 10 -31 31q-2 21 10 81l28 111q9 46 -4.5 69t-63.5 23q-5 0 -13 -0.5t-19 -1.5h-3l-48 -178q-8 -49 -6 -76.5t24 -41.5l-99 -17q-24 10 -29 30q-4 14 8 81l48 188q-66 -4 -107.5 -38t-67.5 -95q-4 -13 -8 -25t-6 -24l-6 -31q-5 -25 -2 -41.5t21 -30.5
l-101 -14q-20 8 -26.5 22.5t0.5 48.5q2 10 5 21t7 22q13 38 31 68t50 57q33 28 84.5 46t129.5 29l42 147q6 31 4.5 48t-17.5 32l95 23q26 -4 28 -23.5t-7 -67.5l-44 -149q12 4 26.5 7t29.5 4.5t28.5 2t22.5 0.5q14 0 32 -5.5t32.5 -19t22 -36.5t0.5 -58l-21 -86
q-10 -48 -6 -75t25 -41z" />
    <glyph glyph-name="hh2" unicode="&#x1211;" horiz-adv-x="827" 
d="M833 185q-28 -25 -69 -29q-35 0 -55 20t-22 53l-43 -15l-18 -76q-9 -48 -6 -77.5t24 -43.5l-99 -17q-29 10 -34 31q-2 21 10 81l29 116q9 46 -3 69t-62 23q-5 0 -13 -0.5t-19 -1.5h-3l-48 -178q-8 -49 -6.5 -79t23.5 -44l-99 -17q-26 11 -29 30q-5 16 9 81l48 193
q-66 -4 -107.5 -38t-67.5 -95q-4 -13 -9 -31.5t-12 -53.5q-5 -25 -2 -41.5t21 -30.5l-101 -14q-19 8 -26 22.5t0 48.5q2 10 4.5 21t6.5 22q19 53 44.5 88t61 57.5t82.5 36.5t109 25l43 145q6 31 4 48t-18 32l96 23q25 -4 27 -23.5t-7 -67.5l-44 -147q20 4 49 8t49 4h9
q14 0 30 -7.5t29 -21.5t21 -34.5t6 -46.5v-1l141 50q10 -4 11 -7t-1 -11v-2q-1 -5 -2 -15t1.5 -21.5t10.5 -22.5t26 -18z" />
    <glyph glyph-name="hh3" unicode="&#x1212;" horiz-adv-x="825" 
d="M722 -7q-6 -1 -9.5 -1.5t-7.5 -0.5q-13 0 -19 5.5t-8.5 12t-3 12.5t-2.5 7q-15 -3 -33.5 -7.5t-36 -8.5t-33 -7t-24.5 -3q-27 10 -31 31q-2 21 10 81l22 82.5t7 27.5v4q9 46 -4.5 69t-63.5 23q-5 0 -13 -0.5t-19 -1.5h-3l-48 -178q-8 -49 -6.5 -78t24.5 -43l-100 -17
q-24 10 -29 30q-3 16 9 81l48 191q-66 -4 -107.5 -38t-67.5 -95q-4 -13 -9.5 -32t-7.5 -31q-5 -23 -6.5 -38t0.5 -24.5t7 -16t14 -13.5l-101 -14q-19 8 -25.5 22.5t-0.5 48.5q2 10 5 21t7 22q19 52 44.5 86.5t60.5 57t82 36t109 24.5l43 146q6 31 4 48t-18 32l96 23
q25 -4 27 -23.5t-7 -67.5l-44 -148q11 3 25.5 5.5t29.5 4t29 2.5t23 1q15 0 33 -5.5t32 -19t21.5 -36.5t1.5 -58l-22 -86q-4 -18 -6.5 -37t-3.5 -35t1 -26.5t7 -10.5l48 11q-2 1 0 6q2 12 14 26.5t32 22.5q9 3 28.5 7.5t34.5 8.5q-3 -8 -4.5 -14l-2.5 -10q-2 -8 -2.5 -20
t2 -23.5t8 -20.5t16.5 -10z" />
    <glyph glyph-name="hh4" unicode="&#x1213;" horiz-adv-x="658" 
d="M527 -2q-13 5 -19 11.5t-8 17.5q-2 21 10 81q16 62 22.5 86t6.5 29l1 4q9 46 -4.5 69t-63.5 23l-35 -2q-4 -11 -9.5 -30.5t-11.5 -41t-11 -41t-8 -29.5l-2 -10l-2 -10q-3 -15 0 -30.5t20 -23.5l-101 -17q-6 1 -10.5 9t-7 19.5t-2.5 24.5q0 14 3 27l40 142h-2
q-39 0 -68.5 -13.5t-50 -35t-33 -48t-18.5 -53.5q-3 -15 0 -31.5t14 -24.5l-96 -14q-16 7 -20.5 27.5t0.5 43.5q5 27 18.5 52t44.5 46.5t82.5 38.5t132.5 27l42 144q6 31 4.5 48t-17.5 32l95 23q26 -4 28 -23.5t-7 -67.5l-44 -146q11 3 25.5 5t29.5 3.5t28.5 2t22.5 0.5
q15 0 34 -5.5t34.5 -19t23.5 -36.5t1 -58l-23 -94q-9 -48 -8 -75t23 -41z" />
    <glyph glyph-name="hh5" unicode="&#x1214;" horiz-adv-x="815" 
d="M710 96q7 38 -4.5 56t-30.5 20l-40 -2q-16 -82 -16.5 -118.5t19.5 -36.5q27 0 44.5 16.5t27.5 64.5zM804 96q-10 -48 -44 -72.5t-79 -24.5q-22 0 -50 3q-6 1 -10 1.5t-6 0.5q-4 0 -13 -1.5t-23 -3.5q-12 -2 -19.5 -2.5t-11.5 -1.5q-20 8 -25.5 26t-0.5 45l24 126
q6 27 7.5 50.5t-5 41t-21.5 27.5t-42 10l-35 -2l-49 -186q-9 -49 -6.5 -76t24.5 -41l-99 -17q-26 11 -29 30q-4 15 8 81l49 195q-32 -2 -63 -20t-57 -44t-43.5 -55.5t-21.5 -53.5q-3 -14 -5.5 -31.5t-2.5 -35.5q0 -17 3.5 -31t12.5 -21l-101 -14q-20 8 -25.5 26.5t0.5 52.5
q9 46 32 90.5t62 76.5q32 28 84 47t130 30l42 145q6 31 4 48t-18 32l96 23q25 -4 27 -23.5t-7 -67.5l-43 -147q10 3 24.5 5t29.5 3.5t29 2.5t23 1q31 0 49.5 -12t27 -33t8.5 -51q0 -29 -7 -65q21 3 44 6t43 3q46 0 67 -23.5t12 -72.5z" />
    <glyph glyph-name="hh6" unicode="&#x1215;" horiz-adv-x="671" 
d="M545 2q-25 0 -30 25.5t5 73.5q7 39 13 61.5t10 34t6 15t2 4.5q9 46 -4.5 70.5t-63.5 24.5h-38l-43 -174q-9 -49 -7 -76.5t25 -41.5l-100 -17q-24 10 -29 30q-3 16 9 81l47 184q-39 0 -71 -15.5t-57 -41.5t-41.5 -59.5t-23.5 -69.5q-5 -24 -6.5 -39t1 -25.5t8 -17
t14.5 -13.5l-101 -14q-19 8 -25.5 22.5t-0.5 48.5q10 48 32 87.5t60 71.5q33 28 85 49t133 32l32 126q4 19 -3.5 25.5t-23.5 6.5l-140 -19q12 9 20.5 26.5t11.5 31.5q4 18 -4 28.5t-23 18.5l72 12q29 3 50.5 -8.5t23.5 -41.5q0 -16 -4 -33l86 14q23 0 28 -16.5t2 -32.5
l-33 -128q10 1 22.5 2t26.5 2q21 3 32.5 3.5t26.5 0.5t33 -5.5t32.5 -19t22 -36.5t0.5 -58l-20 -77q-9 -48 -5.5 -75t25.5 -41z" />
    <glyph glyph-name="hh7" unicode="&#x1216;" horiz-adv-x="671" 
d="M561 84q-22 9 -28.5 25.5t-0.5 46.5q7 25 12 42t7.5 27t4 15t1.5 7l1 3q5 26 -10 44.5t-63 18.5l-39 -2l-26 -94q-9 -51 -7.5 -77t23.5 -39l-100 -17q-42 17 -30 75q1 8 4 16.5t6 18.5l31 104q-39 0 -71.5 -16t-57 -42.5t-41 -60.5t-23.5 -70q-4 -24 -5.5 -39.5t0 -25.5
t7 -17t15.5 -14l-101 -14q-20 8 -26.5 22.5t0.5 48.5q9 48 32 92t61 76q33 28 84.5 47.5t129.5 30.5l42 144q6 31 4.5 48t-17.5 32l95 23q26 -4 28 -23.5t-7 -67.5l-44 -146q27 1 42.5 2t24 2t12.5 1.5t7 0.5q21 0 43.5 -4.5t40.5 -14.5t28 -26t5 -39l-17 -58
q-5 -25 -2.5 -50.5t25.5 -38.5z" />
    <glyph glyph-name="FL1217h" unicode="&#x1217;" horiz-adv-x="785" 
d="M732 -70q-16 -2 -27.5 -4t-18.5 -2q-5 0 -15 2q-26 5 -37 24.5t-13 61.5h-139q-16 -52 -45 -74t-64 -22q-26 0 -43 7q20 14 31 32t13 32q1 7 0 18q-3 5 -2 12q1 3 9 5t13 2h107l39 203q9 46 -4.5 69t-63.5 23q-5 0 -13 -0.5t-19 -1.5h-3l-31 -117q-9 -49 -9.5 -79
t21.5 -44l-99 -17q-26 10 -30 30q-2 9 0.5 31.5t10.5 54.5l35 127q-32 -2 -56 -9t-42.5 -20.5t-33 -35t-27.5 -51.5q-19 -45 -15 -75t20 -43l-100 -14q-21 8 -27 23.5t-1 37.5q11 58 35 93.5t60 56.5t84 32t107 20l42 147q6 31 4.5 48t-17.5 32l95 23q26 -4 28 -23.5
t-7 -67.5l-44 -149q12 4 26.5 7t29 4.5t28 2t22.5 0.5q15 0 33 -5.5t32.5 -19t22 -36.5t0.5 -58l-38 -199h131q8 0 7 -9l-2.5 -7.5t-5.5 -10.5q-2 -5 -3 -8.5t-2 -5.5q-5 -26 21 -50z" />
    <glyph glyph-name="FL1218h" unicode="&#x1218;" horiz-adv-x="810" 
d="M752 370q5 25 3 41.5t-8 26.5t-15.5 14t-20.5 4q-13 0 -23.5 -5t-14.5 -13l-74 -213q-1 -6 -2 -12.5t2 -11t10.5 -7.5t23.5 -3q21 0 40 15.5t34.5 41t27 57.5t17.5 65zM385 400q2 4 2.5 7.5t1.5 5.5q3 12 -5 16t-18 4q-18 0 -45 -13t-57 -46q-21 -22 -41 -55t-37 -68
q-9 -18 -13.5 -35t-8.5 -36q-4 -23 3.5 -38t35.5 -15q14 1 27 16.5t29 43.5zM854 381q-7 -38 -18.5 -72t-30 -61t-45.5 -45t-65 -24h-39q-33 0 -56 -3t-39 -6t-26 -6t-17 -3q-14 0 -22 8t-3 31q3 17 13 39l65 166q4 21 -1 29.5t-18 9.5q-17 -1 -35.5 -11t-40.5 -45
l-138 -228q-3 -10 -16.5 -18.5t-31.5 -10.5h-9q-21 0 -37.5 -4t-31 -9.5t-28 -10.5t-26.5 -7l-14 -1q-22 0 -38 8.5t-26 22t-13 30.5t1 35q4 23 15.5 47.5t20.5 41.5q25 33 49.5 60.5t55.5 48.5t70.5 35t93.5 20q31 3 68 3q109 8 170 12.5t91.5 7t40.5 3t18 0.5q14 0 24 -2
t20 -6q24 -10 37.5 -30.5t11.5 -54.5z" />
    <glyph glyph-name="FL1219h" unicode="&#x1219;" horiz-adv-x="992" 
d="M1022 310q-26 -5 -43 -7t-42 -4q-10 0 -20 1.5t-18 6.5t-12.5 13.5t-2.5 23.5l-41 -8q-17 -63 -50.5 -104.5t-97.5 -51.5h-39q-33 0 -56 -3t-38.5 -6t-26 -6t-17.5 -3q-14 0 -21.5 8t-3.5 31l74 196q5 27 1.5 37t-16.5 11q-17 -1 -35.5 -11t-39.5 -45l-137 -226
q-7 -11 -16.5 -20t-32.5 -11h-9q-21 0 -38 -4t-31.5 -9.5t-27.5 -10.5t-26 -7q-2 -1 -9 -1h-6q-23 0 -38.5 8.5t-25 22t-12.5 30.5t0 35q5 23 16 47.5t20 41.5q25 33 50 60.5t56 48.5t70 35t93 20q31 3 68 3q109 8 170 12.5t91.5 7t40.5 3t18 0.5q14 0 24.5 -2t19.5 -6
q24 -10 37.5 -30.5t11.5 -55.5l-6 -29l37 7q2 12 17 29.5t38 21.5q14 3 30.5 5t49.5 4q-6 -8 -11.5 -21.5t-7.5 -22.5q-5 -23 1.5 -40t19.5 -25zM385 401q4 7 4 13q3 12 -5 16t-18 4q-18 0 -45 -13t-57 -46q-20 -22 -40.5 -55t-37.5 -68q-8 -18 -13 -35t-9 -36
q-4 -23 3.5 -38t35.5 -15q14 1 27 16.5t30 43.5zM752 371q5 25 3 41.5t-8 26.5t-15.5 14t-20.5 4q-13 0 -23.5 -5t-14.5 -13l-74 -213q-1 -6 -2 -12.5t2 -11t10.5 -7.5t23.5 -3q21 0 40 15.5t34.5 41t27 57.5t17.5 65z" />
    <glyph glyph-name="FL121Ah" unicode="&#x121a;" horiz-adv-x="840" 
d="M754 -6l-15 -3t-14 -2q-13 0 -19.5 5t-10 11t-5 11.5t-3.5 6.5l-147 -22q-21 0 -26.5 16t-0.5 39q3 14 8.5 29.5t8.5 20.5l94 219q-11 0 -26.5 -2t-32 -4t-32.5 -4t-28 -2q-19 0 -32 11.5t-8 37.5l44 112q4 19 0 29.5t-24 10.5q-11 -1 -15.5 -2.5t-13.5 -7.5
q-7 -5 -16.5 -22.5t-20 -40t-21 -47.5t-20 -46.5t-17 -35t-11.5 -13.5h-1q-23 0 -45 -4.5t-41.5 -10.5t-35.5 -10.5t-26 -4.5q-60 0 -84.5 25t-13.5 80q5 25 23 53t51 51t82.5 38.5t117.5 15.5q16 0 42 1t55 2.5l58 3t52 2.5l57 9.5t36 3.5q63 0 85.5 -23.5t14.5 -62.5
l-163 -399l-1 -7q-3 -18 -1 -24.5t10 -6.5l66 9l2 6q1 8 10 22t34 23l12 3t17.5 4.5t19 4.5t17.5 4q-3 -2 -5.5 -11.5t-4.5 -20.5q-3 -14 -2 -19q-2 -19 4 -31.5t20 -15.5zM344 480q3 16 -5 25.5t-24 9.5q-9 0 -23.5 -8t-30 -21t-29.5 -30.5t-22 -35.5q-11 -23 -17 -48
q-3 -15 -3 -30t3 -27t10 -20t18 -8q7 0 16 3q11 3 18 9.5t17 25.5t26 54.5t46 97.5v3zM683 484q4 29 -5.5 42.5t-25.5 13.5q-24 -2 -40 -33l-53 -140q-6 -32 25 -32h7q20 0 40 23.5t31 57.5q2 6 5 15.5t6 19.5t6 19t4 14z" />
    <glyph glyph-name="FL121Bh" unicode="&#x121b;" horiz-adv-x="710" 
d="M684 487q3 29 -6 42.5t-25 13.5q-25 -2 -41 -33q-19 -50 -29.5 -77.5t-15.5 -41t-6 -17t-1 -5.5q-6 -32 25 -32h7q7 0 15.5 2t18 10.5t19 24.5t17.5 44q2 6 5 15.5t6.5 20l6.5 19.5t4 14zM345 482q3 16 -5.5 25.5t-24.5 9.5q-21 0 -45 -20.5t-60 -74.5q-5 -11 -9.5 -23.5
t-6.5 -24.5q-3 -15 -3.5 -30t2.5 -27.5t9.5 -20.5t18.5 -8q6 0 17 3t18 9.5t16.5 26t25.5 55t46 97.5zM772 471q-31 -89 -53 -152t-37 -106.5t-24 -69.5t-13.5 -40.5t-6.5 -21.5t-2 -11q-1 -14 1.5 -26.5t15.5 -22.5l-100 -23q-13 5 -20.5 21t-3.5 36l89 249q5 23 -7 23
q-42 0 -67 -5t-39 -7q-20 1 -32 12t-7 37l50 128q1 25 -31 25q-11 -1 -15 -2.5t-13 -7.5q-7 -5 -16.5 -22.5t-20 -40.5t-21 -48.5t-20 -46.5t-17 -35t-12.5 -14h-1q-22 0 -44 -4.5t-42 -10.5t-36 -10.5t-26 -4.5q-30 0 -51.5 4.5t-33.5 16.5t-15.5 32.5t2.5 52.5q5 25 23 53
t51 51.5t82.5 38.5t118.5 15q16 0 41.5 1t54.5 2.5t58.5 3.5t52.5 3q36 6 56.5 9.5t35.5 3.5q62 0 82 -23.5t13 -62.5z" />
    <glyph glyph-name="FL121Ch" unicode="&#x121c;" horiz-adv-x="839" 
d="M832 119q-10 -51 -42 -77.5t-68 -26.5q-5 -1 -10 -1h-8h-14h-28q-15 0 -24.5 -1t-21 -2.5t-30 -4.5t-51.5 -7q-13 0 -19.5 6.5t-9 15.5t-2 19t1.5 18l106 253l1 5q4 18 -8 18q-42 0 -63.5 -5t-34.5 -7q-20 1 -32.5 12t-7.5 37l44 113q4 9 6 15q1 25 -30 25
q-11 -1 -15.5 -2.5t-13.5 -7.5q-7 -5 -16.5 -23t-20 -42t-21 -50t-20.5 -48t-17.5 -36.5t-12.5 -14.5h-1q-22 0 -44 -4.5t-42 -10.5t-36 -10.5t-26 -4.5q-60 0 -84.5 24t-12.5 89q5 25 23 53t51 51.5t82.5 38.5t118.5 15q16 0 42 1t55 2.5t58 3.5t52 3l57 9.5t36 3.5h3
q60 0 82 -27t15 -66l-114 -276q19 4 40 6.5t41 6.5q49 0 70.5 -20.5t15.5 -68.5zM346 489q3 16 -5 25.5t-24 9.5q-21 0 -45.5 -20.5t-60.5 -74.5q-5 -11 -9.5 -23.5t-6.5 -24.5q-3 -15 -3.5 -31t2 -30t9 -23t18.5 -9q6 0 17 3t18 10.5t16.5 28t26 57.5t46.5 99zM685 494
q4 29 -5.5 42.5t-23.5 13.5h-2q-23 -2 -41 -33l-47 -125q-2 -5 -3 -8.5t-2 -7.5q-6 -32 25 -32h7q7 0 16 2t18 10.5t18.5 24.5t18.5 44q2 6 5 15.5t6 20t6 19.5t4 14zM732 114q7 35 -5.5 53t-32.5 19q-8 0 -15.5 -1.5t-19.5 -3.5l-40 -105q-4 -21 2 -35t35 -14q29 2 49 25
t27 62z" />
    <glyph glyph-name="FL121Dh" unicode="&#x121d;" horiz-adv-x="728" 
d="M686 447q9 48 -0.5 75.5t-32.5 27.5q-20 0 -40 -30.5t-35 -109.5q-9 -45 0 -67t28 -24q11 1 23 11.5t23 28t20 40t14 48.5zM336 492q4 20 -3.5 30t-16.5 10h-3q-14 -2 -30.5 -18t-32 -41t-28.5 -57t-20 -66q-3 -14 -2 -28t5.5 -26t12.5 -19.5t20 -7.5q20 4 30 6.5
t13 14.5zM784 440q-13 -63 -50 -98t-104 -35q-2 1 -13 1h-13q-5 0 -20.5 -2t-32 -5t-29 -5t-10.5 -2q-23 0 -37.5 14.5t-8.5 44.5l37 144q3 15 -1 30t-22 15h-2q-14 -1 -26.5 -15.5t-22.5 -51.5l-47 -185q-3 -19 -17.5 -36t-34.5 -33.5t-43.5 -33t-44.5 -33t-36.5 -34
t-20.5 -36.5q-2 -18 -0.5 -34.5t18.5 -18.5l-110 -34q-12 2 -19.5 15t-5.5 33q8 37 31.5 65.5t54 53.5t62.5 48.5t57 50.5l-107 -21q-27 0 -42.5 8t-23 21.5t-8 30.5t3.5 35q5 30 17.5 66t41 67.5t76.5 53.5t123 25q49 6 88.5 7t81.5 1q4 0 14.5 0.5t22.5 0.5q13 0 26 0.5
t23 0.5q16 0 17 -1q21 3 38.5 4.5t43.5 1.5q25 0 43 -5t27.5 -19t10.5 -38t-6 -62z" />
    <glyph glyph-name="FL121Eh" unicode="&#x121e;" horiz-adv-x="728" 
d="M684 435q9 48 -0.5 77.5t-30.5 29.5h-2q-20 -1 -40 -33t-36 -111q-8 -45 1 -67t28 -24q11 1 23 11.5t23 28t20 40t14 48.5zM335 490q3 22 -3.5 31t-15.5 9h-3q-12 -2 -28 -15.5t-32 -38t-30 -58.5t-22 -77q-7 -36 2 -60t33 -24h6q15 4 24.5 6.5t12.5 14.5zM781 428
q-12 -63 -50.5 -98t-111.5 -35q-1 1 -8 1h-9q-5 0 -20.5 -2t-32 -5t-29 -5t-10.5 -2q-23 0 -38 14.5t-9 44.5l39 154q3 15 -0.5 30t-21.5 15h-2q-14 -1 -27 -15.5t-22 -51.5l-96 -388q-4 -18 -3 -30.5t20 -22.5l-109 -34q-13 2 -20.5 15t-5.5 33l56 205l-107 -21
q-27 0 -42.5 8t-23 21.5t-8 30.5t2.5 35q6 30 19.5 67.5t42 71t76 57t122.5 26.5q49 6 89 7t82 1q6 0 21.5 -0.5t32 -1t31 -1.5t17.5 -2l5 1q16 2 33 3.5t43 1.5q51 0 70 -26.5t4 -101.5z" />
    <glyph glyph-name="m8" unicode="&#x121f;" horiz-adv-x="824" 
d="M693 492q5 27 -4 43t-26 16q-26 0 -44 -31q-23 -53 -36 -83t-19.5 -46t-8.5 -21.5t-3 -8.5q-4 -28 35 -28q10 0 19 4t19.5 16.5t23.5 36t30 62.5q5 11 8.5 21t5.5 19zM351 490q3 14 -4.5 22.5t-21.5 8.5q-12 0 -25.5 -7.5t-28 -20.5t-28.5 -30.5t-26 -36.5
q-8 -14 -13.5 -31.5t-7.5 -29.5q-6 -29 -1.5 -47.5t25.5 -18.5q16 0 27 6.5t21.5 22.5t24 43t34.5 68l18 36l6 12v3zM769 -62q-23 -4 -37 -6t-19 -2t-10 0.5t-10 1.5q-32 7 -46.5 27.5t-16.5 68.5l1 1h-191q-9 -30 -21.5 -49t-28 -30.5t-34 -17.5t-38.5 -10q-5 0 -6 -1h-8
q-14 0 -30 2.5t-24 5.5q25 15 37 32t15 33v6t-1 14q-3 8 -2 13q1 9 16 9l163 7l127 266q3 14 -32 14q-14 0 -42 -3q-11 -1 -18.5 -1.5t-11.5 -0.5q-21 2 -31.5 11.5t-6.5 31.5q22 51 34 79.5t17 42.5t6.5 18t2.5 6q5 26 -27 28q-9 0 -13.5 -1t-15.5 -8q-11 -6 -26.5 -34.5
t-39.5 -79.5q-23 -48 -36.5 -74.5t-20.5 -26.5q-24 0 -45.5 -5t-52.5 -15q-41 -11 -45 -11q-57 0 -82 25.5t-16 67.5q4 25 22.5 54t52.5 53.5t83 40.5t115 16q13 0 32 2t59 7q39 5 69 8t51 3q42 3 64 5t39 2q45 0 70.5 -26.5t17.5 -64.5l-39 -93l-151 -332l174 6q6 0 8 -6
t1 -11q0 -2 -9 -20l-4 -8t-3 -8q-3 -14 3.5 -30.5t24.5 -29.5z" />
    <glyph glyph-name="cc1" unicode="&#x1220;" horiz-adv-x="660" 
d="M703 375q-10 -53 -39 -89.5t-64 -58.5t-69.5 -31.5t-54.5 -9.5q-27 0 -40.5 4t-25.5 9q-12 -12 -28.5 -22.5t-35 -19t-37.5 -15.5t-35 -12q-7 -3 -23.5 -7t-38 -8.5t-46.5 -9t-49 -8.5q-34 0 -47.5 19t-7.5 48q1 7 4.5 15.5t7.5 19.5l76 180q4 22 -16 39l101 25
q36 -3 28 -38q-2 -11 -12 -33l-83 -190q-4 -20 6 -37.5t31 -17.5q16 1 35 11.5t36.5 27t32 37.5t22.5 44l56 150q3 16 -1.5 26t-18.5 18l101 24q17 -2 25 -15.5t4 -32.5q-1 -3 -2 -7t-3 -9l-52 -142q-4 -21 5.5 -38.5t30.5 -17.5q28 1 52.5 18t40.5 48q13 23 22.5 52.5
t13.5 49.5q7 36 4.5 57.5t-25.5 29.5l98 25q24 -10 27 -34.5t-6 -73.5z" />
    <glyph glyph-name="cc2" unicode="&#x1221;" horiz-adv-x="852" 
d="M886 330q-28 -25 -68 -29q-35 0 -55.5 19.5t-22.5 52.5l-41 -15l-1 -4q-15 -48 -44.5 -80t-63 -51.5t-65 -28t-49.5 -8.5q-26 0 -38 3.5t-24 8.5q-14 -13 -53.5 -31.5t-86.5 -37.5q-3 -1 -17.5 -4t-36 -7t-48.5 -9.5t-55 -11.5q-34 0 -47.5 19t-7.5 48q1 7 4.5 15.5
t7.5 19.5q27 62 42 97t22 52.5l9 22.5t3 8q4 22 -16 39l101 25q36 -3 28 -38l-90 -211l-5 -12q-4 -20 6 -37.5t31 -17.5q17 1 35.5 11.5t35.5 27t31.5 37.5t23.5 44q20 51 31 80l16.5 43.5t7 19t1.5 7.5q3 16 -1.5 26t-18.5 18l101 24q17 -2 25 -15.5t4 -32.5l-4.5 -13
t-12 -34.5t-18 -50t-22.5 -60.5q-4 -21 5.5 -40.5t30.5 -19.5q27 1 52.5 20t40.5 50q11 23 21.5 53t14.5 49q7 36 4.5 57.5t-25.5 29.5l98 25q21 -9 25 -32.5t-5 -75.5q51 17 89.5 32.5t48.5 19.5q10 -4 11 -7t0 -11l-1 -2q-1 -5 -2 -15t1.5 -21.5t11 -22.5t25.5 -18z" />
    <glyph glyph-name="cc3" unicode="&#x1222;" horiz-adv-x="715" 
d="M628 -11l-15 -3t-14 -2q-12 0 -19 5t-10.5 11.5t-5 12t-2.5 6.5l-124 -19q-13 0 -19 7q-7 7 -11.5 19t-1.5 28q33 81 52.5 128.5t31 74.5t16.5 39t9 21q-25 0 -51 6.5t-54 27.5q-14 -14 -41.5 -30t-63 -29.5t-75.5 -22.5t-78 -9q-31 0 -46.5 14.5t-10.5 39.5q1 7 6 18
q19 47 30.5 73t17 38.5t7 15.5t1.5 5q2 9 -4 18.5t-26 18.5l99 26q15 0 22.5 -15.5t3.5 -39.5q-1 -3 -2.5 -7l-6 -16t-13.5 -35.5t-26 -65.5q-7 -15 -8 -23q-6 -35 25 -40q15 1 31 8t29.5 17t24 22.5t14.5 24.5l44 118q3 13 -3 23.5t-25 23.5l109 22q32 -9 26 -42
q-1 -2 -2 -5.5t-5 -15.5t-11.5 -35t-20.5 -63q-3 -18 13 -32t44 -17q14 0 27.5 7.5t17.5 23.5l55 137q2 11 -5.5 23t-19.5 20l96 22q16 -6 22 -21.5t3 -31.5l-177 -453l-2 -12q0 -9 3.5 -16t10.5 -7l41 6l2 6q2 10 11 24.5t34 23.5l12 3t17.5 4.5t19 4.5t17.5 4
q-3 -2 -5.5 -11.5t-4.5 -20.5q-3 -14 -2 -19q-2 -19 4 -31.5t20 -15.5z" />
    <glyph glyph-name="cc4" unicode="&#x1223;" horiz-adv-x="617" 
d="M687 517q-3 -17 -9 -29l-156 -385q-7 -13 -10 -30q-3 -15 3 -26.5t23 -23.5l-100 -25q-17 0 -25 19.5t-2 48.5q5 22 10 32l90 217q-1 1 -6 1q-7 0 -8 1q-15 2 -24.5 4t-18 5t-18.5 8.5t-26 14.5q-7 -14 -27.5 -26.5t-47.5 -22.5t-57 -18t-56.5 -13t-46 -8t-24.5 -3
q-31 0 -46 14.5t-10 39.5q0 6 5 18l57 132q5 20 -30 37l99 26q15 0 22.5 -15.5t2.5 -39.5q-1 -9 -6 -20l-49 -127q-8 -38 21 -38q4 0 5 1h4q37 4 58.5 17.5t35.5 51.5l44 118q2 13 -3.5 23.5t-24.5 23.5l108 22q33 -9 26 -42q0 -2 -1 -5.5t-5 -15.5t-11.5 -35t-20.5 -63
q-3 -18 7 -29.5t39 -14.5h8q9 0 16 2t14 9t14 19.5t15 32.5l40 103q5 23 -21 40l96 22q34 -14 27 -48z" />
    <glyph glyph-name="cc5" unicode="&#x1224;" horiz-adv-x="733" 
d="M624 101q5 42 -8.5 58.5t-33.5 17.5q-8 -1 -15.5 -1.5t-15.5 -2.5l-43 -108q-5 -26 6.5 -38t36.5 -12q35 0 50 23t23 63zM725 113q-6 -31 -17.5 -51t-26.5 -32t-33.5 -17t-37.5 -6h-9q-3 -1 -14 -1h-16h-16h-9q-7 0 -10 1l-77 -7h-31q-16 6 -19.5 23t0.5 39l103 255h-7
q-18 0 -44.5 10.5t-45.5 26.5q-9 -19 -34.5 -36t-61 -30t-79 -20.5t-88.5 -7.5q-31 0 -46.5 14.5t-10.5 39.5q22 54 34.5 83.5t18.5 44t7 18t1 4.5q2 9 -3.5 18.5t-25.5 18.5l99 26q15 0 22.5 -15.5t3.5 -39.5q-20 -50 -31 -78.5t-16 -43t-6.5 -19t-2.5 -6.5
q-4 -19 1.5 -32.5t19.5 -13.5q38 0 63 20t40 58q15 37 23 59.5t12.5 34.5t5.5 16.5t1 6.5v1q3 13 -2 23.5t-24 23.5l109 22q32 -9 26 -42q-1 -2 -2 -5.5t-5 -15.5t-11.5 -35t-20.5 -63q-3 -18 7 -29.5t39 -14.5q19 1 32 6t26 28l49 132q5 23 -21 40l96 22q35 -14 28 -48
l-132 -332q19 3 37 6t35 7q57 0 80.5 -25.5t16.5 -61.5z" />
    <glyph glyph-name="cc6" unicode="&#x1225;" horiz-adv-x="798" 
d="M855 450q-5 -29 -23.5 -53.5t-46 -43t-61 -29t-69.5 -10.5q-30 0 -46 4t-28 11q-8 -15 -26 -28t-42 -22.5t-53 -15.5t-59 -6q-35 0 -61 4t-40 11l-120 -158q-22 -30 -30.5 -44t-10.5 -25q-3 -14 15 -29l-82 -15q-19 1 -27.5 16t-4.5 35q3 15 14 29l186 253q24 36 40 62.5
t21 49.5q3 16 2.5 30t-7.5 22l94 19q30 -9 24 -41q-5 -23 -17 -48t-24.5 -47.5t-23 -40t-12.5 -26.5q-4 -21 12 -32.5t35 -11.5q16 0 33 5.5t32.5 15t28 22t19.5 27.5q18 43 28 67t15.5 37t7 17t2.5 7q4 28 -25 46l103 19q33 -7 28 -36q-1 -3 -2.5 -8t-7 -19t-15.5 -40
t-28 -71q-3 -14 7.5 -23t26.5 -9q12 0 27.5 6.5t30 17.5t27.5 25t21 30q7 23 9.5 33.5t4.5 19.5q6 29 4.5 45.5t-15.5 29.5l95 22q19 -11 21.5 -33.5t-7.5 -72.5z" />
    <glyph glyph-name="cc7" unicode="&#x1226;" horiz-adv-x="644" 
d="M701 449q-5 -29 -25 -54.5t-50.5 -44.5t-68 -30t-77.5 -11q-50 0 -100 10l-187 -215q-12 -14 -21 -29t-12 -29q-4 -18 7 -29l-87 -17q-29 7 -22 44q4 28 27 54l162 186q-5 -1 -13 -1.5t-20 -2.5q-20 -3 -34.5 -4t-34.5 -1q-33 0 -45.5 10t-8.5 30q23 57 35.5 88t18.5 46
t7.5 19t1.5 6q3 14 -2.5 24.5t-15.5 19.5l91 22q36 -7 28 -48l-69 -171q-2 -13 5.5 -19.5t28.5 -6.5t38 10.5t40 38.5q31 40 48.5 63t26.5 36.5t12 19.5t4 12q6 31 -20 45l102 23q12 0 18.5 -19.5t1.5 -43.5q-3 -13 -14 -34l-65 -91q-3 -17 16.5 -23t56.5 -6q21 0 40.5 13
t35.5 33.5t27.5 45t15.5 47.5q7 33 3 49t-26 30l101 24q22 -11 26 -36.5t-7 -82.5z" />
    <glyph glyph-name="FL1227h" unicode="&#x1227;" horiz-adv-x="731" 
d="M676 -60q-46 -8 -55 -8q-5 0 -10.5 0.5t-10.5 1.5q-31 7 -45 31t-16 72v-2h-153q-9 -29 -21.5 -48.5t-28.5 -32t-34 -19.5t-39 -11q-5 0 -6 -1h-8q-14 0 -30 2.5t-23 5.5q25 15 37.5 38t16.5 39q0 1 -0.5 6t-1.5 14q-2 9 -1 13q1 9 16 9h152l96 265q-1 1 -6 1q-7 0 -8 1
h-4q-13 2 -22 3.5t-18 4t-18.5 7.5t-24.5 14q-6 -14 -26 -26t-47.5 -22t-58 -17.5t-57.5 -12.5t-46 -7.5t-24 -2.5q-31 0 -46 14.5t-10 39.5q0 6 5 18l50 132q2 9 -1 18.5t-22 18.5l99 26q15 0 22.5 -15.5t2.5 -39.5q-1 -9 -6 -20l-49 -127q-4 -19 1 -31t19 -12q32 0 62 21
t42 54l42 118q2 13 -2.5 23.5t-23.5 23.5l108 22q32 -9 25 -42l-1 -6q-1 -6 -8.5 -29.5t-27.5 -83.5q-3 -18 7.5 -32.5t44.5 -17.5q19 0 32 14t29 55l40 103q5 23 -21 40l96 22q19 -6 24.5 -20t2.5 -31q-3 -16 -9 -26l-164 -438h155q12 0 10 -11q-1 -1 -9 -20q-5 -6 -7 -16
q-3 -14 3 -30.5t24 -29.5z" />
    <glyph glyph-name="FL1228h" unicode="&#x1228;" horiz-adv-x="497" 
d="M469 12q-26 -6 -43.5 -9t-41.5 -5h-6q-19 0 -34.5 8t-14.5 35l-179 -40q-23 0 -43.5 5t-35 16t-21.5 28.5t-2 42.5l4 21q6 31 34 68.5t70 69.5l195 181q14 12 22 22t12.5 19t7 19t6.5 23q5 17 -18 31l113 27q11 0 13 -14.5t-1 -31.5q-6 -29 -22 -56t-48.5 -62.5
t-85.5 -84t-134 -120.5q-7 -6 -16.5 -15t-18.5 -19t-16.5 -21t-9.5 -21q-3 -15 0 -32.5t12 -32t24 -24.5t36 -10l102 27q1 6 5 14t11 15.5t16 13.5t21 8q15 4 31.5 7t49.5 5q-6 -8 -11 -21.5t-7 -22.5q-4 -23 3 -40t21 -24z" />
    <glyph glyph-name="FL1229h" unicode="&#x1229;" horiz-adv-x="542" 
d="M537 128q-19 -7 -38.5 -11.5t-37.5 -4.5t-30 8t-19.5 20.5t-9.5 27t1 28.5l1 4l-51 -9l-46 -142q-5 -12 -5 -15q-2 -10 0.5 -20.5t13.5 -21.5l-105 -22q-13 0 -17 10.5t0 27.5l53 166q-31 -4 -49.5 -6.5t-28.5 -4t-13.5 -2.5t-3.5 -2h-4q-26 0 -41 7.5t-23 19t-9 26
t2 29.5q4 21 19 41t41 43t61.5 50.5t80.5 62.5q14 11 22.5 24.5t16.5 46.5q-1 7 -3.5 15t-12.5 20l110 27q17 0 21 -15t0 -35l-1 -4q-7 -23 -17.5 -41.5t-32 -39.5t-57 -49t-92.5 -68q-21 -17 -32.5 -31.5t-18.5 -38.5l-2 -12q-1 -8 -1.5 -16.5t3 -15.5t11.5 -11t24 -4
q5 0 12 1t35 4.5t87.5 12t170.5 23.5q10 -8 8 -16t-9 -17.5t-10 -23.5q-3 -12 3 -20.5t23 -25.5z" />
    <glyph glyph-name="FL122Ah" unicode="&#x122a;" horiz-adv-x="476" 
d="M477 158q-10 -48 -55.5 -76.5t-130.5 -45.5l-141 -35q-23 0 -43 8.5t-33.5 24t-19.5 38.5t0 53q7 32 33.5 63.5t68.5 63.5l216 184q24 24 33.5 40.5t14.5 42.5q3 17 -18 31l112 27q11 0 13.5 -14.5t-1.5 -31.5q-5 -29 -18 -52.5t-31 -44t-39.5 -38.5t-42.5 -34l-179 -156
q-7 -6 -16.5 -14.5t-19 -19t-16.5 -21.5t-9 -22q-3 -15 0 -32t12 -31t24 -23.5t36 -9.5l63 16q31 12 46.5 30t22.5 41q7 32 5 46.5t-18 23.5l101 33q1 1 6 1q9 0 14.5 -7.5t8 -18t2.5 -22.5q0 -11 -1 -18z" />
    <glyph glyph-name="FL122Bh" unicode="&#x122b;" horiz-adv-x="587" 
d="M584 140q-33 -16 -79 -16q-28 4 -43 25.5t-8 55.5l2 13l-35 -4q-17 -5 -26 -16.5t-16 -30t-13 -44.5t-16 -59l-5 -20l-152 -44q-6 -2 -19.5 -1.5t-24.5 -1.5q-23 0 -43 6t-34 20.5t-19.5 39t1.5 61.5q3 16 14 34t27.5 37.5t37 40t42.5 41.5l164 151q26 23 33.5 44
t12.5 47q3 17 -18 31l112 27q11 0 13.5 -14.5t-1.5 -31.5l-1 -5q-9 -48 -42.5 -93t-75.5 -83l-155 -141q-8 -6 -18 -15.5t-19.5 -20.5t-17 -23t-9.5 -22q-4 -20 -5.5 -39.5t3 -35t16.5 -25.5t35 -10l44 15q9 39 19 71.5t28 57.5t48.5 42t81.5 25l147 14q8 -7 7 -14
q-2 -8 -8 -14t-11 -26q-2 -10 4 -19.5t22 -29.5z" />
    <glyph glyph-name="FL122Ch" unicode="&#x122c;" horiz-adv-x="566" 
d="M557 109q-3 -16 -15.5 -27.5t-31 -20.5t-41 -15.5t-46.5 -12.5q-38 -10 -55 -13.5t-26 -5.5l-6 2q-11 0 -19 4.5t-16 17.5l-151 -38q-23 0 -43.5 4t-35 16.5t-20 37t2.5 66.5q6 32 33 62t66 65l201 185q12 13 19.5 22.5t13 18.5t9 19t6.5 23q3 17 -18 31l112 27
q11 0 13.5 -14.5t-1.5 -31.5l-1 -5q-5 -27 -18.5 -50t-31 -43.5t-37.5 -39.5t-38 -37l-166 -151q-6 -5 -16.5 -16t-20 -24t-17.5 -26.5t-10 -23.5l-4 -30t1 -27t12 -19.5t30 -7.5l11 1l10 2q24 5 38.5 8.5t23 7.5t12 8t5.5 10l1 4q4 20 3.5 39t2.5 33q3 12 8.5 24t18.5 22
t35.5 18t59.5 13q8 1 14.5 3.5t14.5 5.5t18 6.5t25 6.5q5 1 9.5 1.5t7.5 0.5h5q13 -1 24 -8.5t17.5 -23t7.5 -41.5t-6 -63zM466 91q3 24 3 50q1 32 -6 49t-26 19q-1 1 -7 1q-5 0 -6 -1q-22 -7 -28.5 -19t-11.5 -29q-5 -25 -5 -51q0 -41 11.5 -52.5t27.5 -11.5h4q13 0 24 9
t18 31z" />
    <glyph glyph-name="FL122Dh" unicode="&#x122d;" horiz-adv-x="510" 
d="M483 16q-26 -7 -44 -11t-41 -7l-12 -1q-17 0 -32 7.5t-15 32.5l-185 -39q-32 1 -54 7t-34 22.5t-14 45.5t7 77l4 18q20 102 43 175.5t64 121.5t106.5 71t169.5 23h99q10 -8 8 -16t-8.5 -19t-9.5 -25q-1 -6 -1 -10t2.5 -8t8 -9.5t15.5 -14.5q-46 -17 -76 -17
q-45 8 -59 31.5t-7 59.5l2 8q-35 -3 -70 -14t-67.5 -48t-62 -110t-53.5 -199l-3 -12q-4 -21 -3 -43.5t9 -40.5t23.5 -30t39.5 -12l105 23l1 2q2 11 15 28t35 23q15 5 31.5 8.5t49.5 8.5q-6 -8 -9.5 -19t-5.5 -20l-1 -6q-4 -48 29 -62z" />
    <glyph glyph-name="FL122Eh" unicode="&#x122e;" horiz-adv-x="545" 
d="M518 19q-15 5 -24 23.5t-5 38.5q2 14 6 26.5t10 19.5q-34 -6 -50.5 -9t-31.5 -8q-18 -5 -32.5 -21t-17.5 -33q-30 -6 -62 -10.5t-49 -4.5q-20 0 -39.5 6t-33.5 19.5t-20 36t1 55.5l19 100q20 104 41.5 166t45.5 94.5t51 42.5t59 10q8 0 8.5 -12.5t-3.5 -31.5
q-3 -18 -8 -40.5t-9 -41.5q-4 -29 -0.5 -46t11 -26t17.5 -11.5t20 -2.5q21 1 31 3t19 2q12 0 21.5 -1.5t18.5 -1.5q13 0 27 3.5t26.5 14t22.5 30t16 51.5q9 44 7.5 68.5t-22 36.5t-65 14.5t-120.5 2.5q-93 0 -151 -29t-92.5 -75.5t-52 -106t-29.5 -119.5l-19 -100
q-9 -45 -7.5 -73.5t13 -45.5t31.5 -24.5t48 -9.5q1 1 13 1l215 38q1 -24 16 -31.5t32 -7.5l11 1q25 4 42.5 7.5t43.5 11.5zM461 471q6 41 17 69.5t35 28.5q13 0 18 -7.5t5 -21.5q0 -13 -3 -31t-6 -38q-5 -21 -9 -38.5t-9 -30.5t-13 -20.5t-21 -7.5q-23 0 -23.5 27.5
t9.5 69.5z" />
    <glyph glyph-name="r8" unicode="&#x122f;" horiz-adv-x="587" 
d="M582 128q-19 -8 -39 -11.5t-40 -3.5q-28 3 -43 23.5t-9 52.5l4 21l-36 -3q-15 -5 -24 -16t-16 -30.5t-14 -48t-17 -67.5l-154 -41q-7 -2 -20 -1.5t-24 -1.5q-23 0 -43.5 4.5t-35 16.5t-20.5 34t1 57t42.5 75.5t78.5 78.5l163 143q23 20 31 38.5t12 39.5l-187 -14
q12 11 20.5 24t12.5 33q3 14 -6 27.5t-24 21.5q36 14 75 17q14 0 27.5 -7.5t23.5 -21t14.5 -31.5t0.5 -39l178 13q8 40 32.5 69.5t71.5 31.5q17 0 29.5 -1.5t22.5 -3.5q-16 -8 -24.5 -18.5t-11.5 -29.5q-2 -11 -1.5 -18t2.5 -12.5t5 -10t6 -11.5l-162 -11
q-10 -42 -42.5 -83.5t-72.5 -76.5l-154 -134q-7 -5 -17 -15t-20 -23t-18 -26t-10 -24q-5 -25 -6 -42.5t4.5 -29t18.5 -16.5t36 -5l44 14q8 37 18 71t28.5 59.5t48.5 41t79 15.5l147 12q9 -4 7 -12q-1 -8 -7.5 -13.5t-10.5 -24.5q-2 -10 3.5 -23.5t21.5 -32.5z" />
    <glyph glyph-name="FL1230h" unicode="&#x1230;" horiz-adv-x="474" 
d="M348 0q-27 10 -30.5 28.5t4.5 60.5l54 278q10 51 -2.5 72.5t-63.5 21.5q-23 0 -42.5 -12.5t-34.5 -32.5t-25.5 -44.5t-14.5 -49.5l-37 -187q-8 -42 -7.5 -73.5t24.5 -44.5l-99 -17q-13 6 -20 14t-9 20.5t0 31.5t7 47l32 164q6 31 22 60.5t40 54.5t55.5 44t68.5 29l10 51
q4 20 1.5 29t-12.5 14l96 17q9 0 17 -4.5t4 -25.5l-13 -70q24 -1 44.5 -9t34.5 -23.5t20 -40.5t0 -59l-44 -224q-6 -35 -5 -62t24 -41z" />
    <glyph glyph-name="FL1231h" unicode="&#x1231;" horiz-adv-x="619" 
d="M638 252q-24 -7 -41.5 -9t-40.5 -5q-1 0 -1.5 -0.5t-2.5 -0.5h-6q-19 0 -34.5 8t-14.5 35l-39 -9l-30 -151q-6 -35 -5 -62t24 -41l-99 -17q-27 10 -30.5 28.5t4.5 60.5l54 278q10 51 -2.5 72.5t-63.5 21.5q-23 0 -42.5 -12.5t-34.5 -32.5t-25.5 -44.5t-14.5 -49.5
l-37 -187q-8 -42 -7.5 -73.5t24.5 -44.5l-99 -17q-13 6 -20 14t-9 20.5t0 31.5t7 47l32 164q6 31 22 61t40.5 55t56 43.5t67.5 28.5q4 20 7 31.5t4 17.5l1 8l1 4q4 19 -14 33l96 17q9 0 17 -4.5t4 -25.5l-13 -70q23 -1 44 -8.5t35.5 -23.5t20.5 -40.5t-1 -60.5l-11 -56l36 8
l1 2q3 17 18.5 32t34.5 19l5 1q13 3 29 5.5t47 5.5q-7 -9 -12 -22.5t-7 -22.5q-6 -49 25 -63z" />
    <glyph glyph-name="FL1232h" unicode="&#x1232;" horiz-adv-x="645" 
d="M614 -6q-25 -7 -42 -9t-40 -5q-1 0 -1.5 -0.5t-2.5 -0.5h-6q-19 0 -34.5 8t-14.5 35l-115 -23q-26 0 -34.5 23.5t-1.5 60.5l58 297q9 45 -6.5 63t-63.5 18q-23 0 -42.5 -12.5t-34.5 -32.5t-25.5 -44.5t-14.5 -49.5l-36 -184q-8 -42 -8 -74q0 -31 25 -44l-99 -17
q-13 6 -20 14t-9.5 20.5t-0.5 31.5t8 47l31 161q6 31 22 61t40.5 55t56 43.5t67.5 28.5q4 20 7 31.5t4 17.5l1 8l1 4q4 19 -14 33l96 17q9 0 17 -4.5t4 -25.5l-13 -70q24 -1 44.5 -9t35 -23.5t20.5 -40.5t0 -59l-45 -232q-7 -36 -4.5 -58.5t17.5 -22.5l32 6l1 2
q3 17 18.5 32t33.5 19l6 1q13 3 29 5.5t47 5.5q-7 -9 -12 -22.5t-7 -22.5q-6 -49 25 -63z" />
    <glyph glyph-name="FL1233h" unicode="&#x1233;" horiz-adv-x="474" 
d="M348 0q-27 10 -30.5 28.5t4.5 60.5l54 277q10 51 -2.5 72.5t-64.5 21.5q-90 0 -117 -139l-8 -45q-9 -42 -6.5 -65t26.5 -36l-99 -17q-14 6 -21.5 11t-10 14t-1 25t6.5 45l9 45q14 69 61.5 107.5t120.5 58.5l10 51q3 14 1 24.5t-13 18.5l97 17q9 0 17 -4.5t4 -25.5
l-14 -70q24 -1 45 -9t35.5 -23.5t20 -40.5t-0.5 -59l-44 -223q-6 -35 -5 -62t24 -41z" />
    <glyph glyph-name="FL1234h" unicode="&#x1234;" horiz-adv-x="621" 
d="M511 102q8 42 -6.5 58.5t-35.5 16.5q-7 0 -13.5 -0.5t-16.5 -1.5l-11 -55q-3 -20 -5.5 -38t-2.5 -32q0 -13 4.5 -21t14.5 -8q24 0 43 15t29 66zM611 102q-10 -48 -44.5 -73t-72.5 -25h-14q-20 0 -36 2t-29 3q-11 0 -31.5 -3.5t-35.5 -5.5q-27 10 -30.5 28.5t4.5 60.5
l54 278q10 51 -2.5 72.5t-63.5 21.5q-23 0 -42.5 -12.5t-34.5 -32.5t-25.5 -44.5t-14.5 -49.5l-37 -187q-8 -42 -7.5 -73.5t24.5 -44.5l-99 -17q-13 6 -20 14t-9 20.5t0 31.5t7 47l32 164q6 31 22 61t40.5 55t56 43.5t67.5 28.5l10 51q1 1 3 10q4 19 -14 33l96 17
q9 0 17 -4.5t4 -25.5l-13 -70q24 -1 44.5 -9t34.5 -23.5t20 -40.5t0 -59l-30 -155q19 2 43 4t47 4q45 0 67 -22t12 -73z" />
    <glyph glyph-name="FL1235h" unicode="&#x1235;" horiz-adv-x="474" 
d="M348 0q-27 10 -30.5 28.5t4.5 60.5l53 272q4 20 4 37q0 18 -6.5 30.5t-21 19.5t-39.5 7q-20 0 -39 -10.5t-35 -29.5t-28.5 -44t-18.5 -55l-35 -181q-8 -42 -7.5 -73.5t24.5 -44.5l-99 -17q-13 6 -20 14t-9 20.5t0 31.5t7 47l31 158q6 33 23 64.5t41.5 57t54 43.5t60.5 24
l-17 62q-3 12 -13 21t-22 9l105 27l7.5 1.5l2.5 0.5q9 0 17.5 -10t12.5 -30l19 -71q24 -1 44.5 -9t34 -23.5t19 -40.5t-0.5 -59l-43 -218q-6 -35 -5 -62t24 -41z" />
    <glyph glyph-name="FL1236h" unicode="&#x1236;" horiz-adv-x="474" 
d="M375 140q-27 10 -30.5 28.5t5.5 60.5l26 135q10 51 -2.5 72.5t-64.5 21.5q-23 0 -42.5 -12.5t-34.5 -32.5t-25 -44.5t-15 -49.5l-36 -184q-8 -42 -7.5 -73.5t24.5 -44.5l-99 -17q-13 6 -20 14t-9 20.5t0 31.5t7 47l31 161q6 31 22.5 61t41 55t56 43.5t67.5 28.5l10 51
q2 13 0.5 24t-12.5 19l96 17q9 0 17.5 -4.5t4.5 -25.5l-14 -70q24 -1 45 -9t35.5 -23.5t20 -40.5t-1.5 -59l-15 -81q-7 -35 -6 -62t25 -41z" />
    <glyph glyph-name="c8" unicode="&#x1237;" horiz-adv-x="634" 
d="M580 -55q-46 -8 -55 -8q-5 0 -10.5 0.5t-10.5 1.5q-16 3 -25.5 9.5t-14.5 18t-7.5 28t-3.5 40.5l-1 -2h-171q-8 -29 -17.5 -46.5t-22 -27t-28 -14.5t-34.5 -9q-6 0 -7 -1h-8q-14 0 -30 2.5t-23 5.5q25 15 36.5 32t15.5 33q0 1 -0.5 6t-1.5 14q-2 9 -1 13q1 9 16 9h139
l60 312q11 53 -2 74t-64 21q-90 0 -117 -140l-9 -45q-10 -49 -8 -77.5t25 -40.5l-99 -17q-12 6 -19 13.5t-9.5 20.5t-1 31.5t7.5 47.5l8 45q14 66 60 105t122 60l11 56l2 4q5 25 -14 35l96 17q12 0 18 -7.5t2 -30.5l-12 -62q25 -2 47 -10.5t36 -24.5t19.5 -40t-1.5 -57
l-55 -285h155q12 0 10 -11q-1 -1 -9 -20q-5 -6 -7 -16q-3 -14 3 -30.5t24 -29.5z" />
    <glyph glyph-name="FL1238h" unicode="&#x1238;" horiz-adv-x="501" 
d="M574 528q-15 -2 -23.5 -3t-15.5 -2t-13 -1.5t-15 -1.5q-11 0 -22 1t-20.5 5.5t-16 12t-7.5 21.5l-34 -2l-19 -102q23 -1 44 -9t35.5 -23.5t20.5 -40.5t-1 -59l-39 -203q-7 -35 -6 -62t24 -41l-99 -17q-27 10 -30.5 28.5t4.5 60.5l50 256q5 25 5 43q0 19 -7 30t-22.5 16.5
t-41.5 5.5q-23 0 -42.5 -12.5t-34.5 -32.5t-25.5 -45t-14.5 -50l-33 -165q-8 -42 -7.5 -73.5t24.5 -44.5l-99 -17q-13 6 -20 14t-9 20.5t0 31.5t7 47l28 142q13 69 63.5 119t122.5 70l21 107l-31 -3q-5 -15 -16.5 -24.5t-25 -15t-28 -7.5t-26.5 -3q-11 -2 -24 -1.5t-29 -1.5
q11 9 21.5 28t13.5 37q2 13 -1 24.5t-10 16.5q18 3 40.5 5.5t41.5 2.5q29 0 39.5 -11t8.5 -39l158 10q7 29 24.5 42.5t40.5 15.5q18 2 34.5 3t34.5 2q-6 -5 -11.5 -17t-7.5 -24q-1 -18 4.5 -37t16.5 -27z" />
    <glyph glyph-name="FL1239h" unicode="&#x1239;" horiz-adv-x="655" 
d="M679 276q-28 -25 -69 -29q-35 0 -55 20t-23 53l-49 -18l-35 -181q-7 -35 -6 -62t24 -41l-99 -17q-27 10 -30.5 28.5t4.5 60.5l50 256q5 25 5 43q0 19 -7 30t-22.5 16.5t-41.5 5.5q-23 0 -42.5 -12.5t-34.5 -32.5t-25.5 -45t-14.5 -50l-33 -165q-8 -42 -7.5 -73.5
t24.5 -44.5l-99 -17q-13 6 -20 14t-9 20.5t0 31.5t7 47l28 142q14 73 64 121t122 68l21 107l-31 -3q-5 -15 -16.5 -24.5t-25 -15t-28 -7.5t-26.5 -3q-11 -2 -24 -1.5t-29 -1.5q11 9 21.5 28t13.5 37q2 13 -1 24.5t-10 16.5q18 3 40.5 5.5t41.5 2.5q29 0 39.5 -11t8.5 -39
l158 10q7 29 24.5 42.5t40.5 15.5q18 2 34.5 3t34.5 2q-6 -5 -11.5 -17t-7.5 -24q-1 -18 4.5 -37t16.5 -27q-15 -2 -23.5 -3t-15.5 -2t-13 -1.5t-15 -1.5q-11 0 -22 1t-20.5 5.5t-16 12t-7.5 21.5l-34 -2l-19 -102q23 -1 44 -9t35.5 -23.5t20.5 -40.5t-1 -59v-2l146 51
q10 -4 10.5 -7.5t-0.5 -12.5q-1 -5 -2.5 -15t1 -21.5t11 -22.5t26.5 -18z" />
    <glyph glyph-name="FL123Ah" unicode="&#x123a;" horiz-adv-x="651" 
d="M537 -24q-1 0 -1.5 -0.5t-2.5 -0.5h-6q-19 0 -34 9t-14 36l-112 -20q-29 0 -31.5 23.5t5.5 65.5l50 256q5 25 5 43q0 19 -7 30t-22.5 16.5t-41.5 5.5q-23 0 -42.5 -12.5t-34.5 -32.5t-25.5 -45t-15.5 -50l-32 -165q-8 -42 -7.5 -73.5t24.5 -44.5l-99 -17q-13 6 -20 14
t-9 20.5t0 31.5t7 47l28 142q15 78 64 123.5t122 65.5l21 107l-31 -3q-5 -15 -16.5 -24.5t-25 -15t-28 -7.5t-26.5 -3q-12 -2 -24.5 -1.5t-28.5 -1.5q11 9 21 28t14 37q1 13 -1.5 24.5t-9.5 16.5q17 3 39.5 5.5t41.5 2.5q29 0 40 -11t9 -39l158 10q7 29 24 42.5t41 15.5
q18 2 34 2.5t35 2.5q-6 -5 -11.5 -17t-7.5 -24q-2 -18 4 -37t16 -27q-14 -2 -23 -3t-15.5 -2t-12.5 -1.5t-15 -1.5q-11 0 -22 1t-20.5 5.5t-16 12t-7.5 21.5l-34 -2l-20 -102q24 -1 45 -9t35.5 -23.5t20 -40.5t-0.5 -59l-40 -203q-5 -29 -6 -47t0.5 -28t5 -13t7.5 -3l24 3
l1 3q3 17 18.5 32t34.5 19l5 1q13 3 29 5.5t47 5.5q-7 -9 -12 -22.5t-7 -22.5q-6 -49 25 -63z" />
    <glyph glyph-name="FL123Bh" unicode="&#x123b;" horiz-adv-x="501" 
d="M574 529q-15 -2 -23.5 -3t-15 -2t-13 -1.5t-15.5 -1.5q-11 0 -22 1t-20.5 5.5t-16 12t-7.5 21.5l-33 -2l-20 -102q24 -1 45 -9t35.5 -23.5t20 -40.5t-1.5 -59l-39 -203q-7 -35 -6 -62t25 -41l-100 -17q-27 10 -30 28.5t5 60.5l49 256q10 51 -1.5 74.5t-62.5 23.5
q-23 0 -42.5 -13t-35 -33.5t-26 -46t-15.5 -50.5l-12 -58q-5 -29 -2.5 -49.5t21.5 -35.5l-100 -21q-14 11 -22.5 26.5t-1.5 49.5l10 52q13 66 62.5 113t122.5 67l20 107l-31 -3q-5 -15 -16.5 -24.5t-25 -15t-28 -7.5t-26.5 -3q-11 -2 -24 -1.5t-28 -1.5q10 9 20.5 28
t13.5 37q2 13 -1 24.5t-10 16.5q18 3 40.5 5.5t41.5 2.5q29 0 39.5 -11t8.5 -39l158 10q8 29 25 42.5t40 15.5q19 2 35 3t34 2q-6 -5 -11 -17t-8 -24q-1 -18 4.5 -37t16.5 -27z" />
    <glyph glyph-name="FL123Ch" unicode="&#x123c;" horiz-adv-x="640" 
d="M630 102q-11 -49 -45 -73.5t-72 -24.5h-14q-20 0 -36 2t-29 3q-11 0 -31.5 -3.5t-35.5 -5.5q-27 10 -30.5 28.5t4.5 60.5l51 259q10 51 -2.5 73t-64.5 22q-22 0 -40.5 -11.5t-33.5 -29.5t-25.5 -41.5t-15.5 -47.5l-35 -178q-8 -42 -7.5 -73.5t24.5 -44.5l-99 -17
q-13 6 -20 14t-9 20.5t0 31.5t7 47l31 162q7 32 25.5 59.5t44 49.5t55 38t59.5 25l21 107l-32 -3q-5 -15 -16.5 -24.5t-25 -15t-28 -7.5t-26.5 -3q-11 -2 -24 -1.5t-28 -1.5q11 9 21 28t13 37q2 13 -1 24.5t-10 16.5q18 3 40.5 5.5t41.5 2.5q29 0 40 -11t8 -39
q40 2 79.5 4.5t78.5 5.5q8 29 25 42.5t40 15.5q19 2 35 3t34 2q-6 -5 -11 -17t-8 -24q-1 -18 5 -37t16 -27q-14 -2 -22.5 -3t-15.5 -2t-13 -1.5t-16 -1.5q-22 0 -42 6.5t-24 33.5l-33 -2l-20 -102q24 -1 45 -9t35.5 -23.5t20 -40.5t-1.5 -59l-26 -137q19 2 43 4t47 4
q45 0 67 -22t12 -73zM530 102q8 41 -5.5 58t-29.5 17h-7q-7 0 -13.5 -0.5t-16.5 -1.5l-11 -55q-3 -20 -5.5 -38t-2.5 -32q0 -13 4.5 -21t14.5 -8q24 0 43 15t29 66z" />
    <glyph glyph-name="FL123Dh" unicode="&#x123d;" horiz-adv-x="542" 
d="M416 -1q-27 10 -30.5 28.5t4.5 60.5l50 256q10 51 -2.5 73t-64.5 22q-23 0 -42.5 -12.5t-34.5 -32.5t-25 -45t-15 -50l-32 -165q-8 -42 -7.5 -73.5t24.5 -44.5l-99 -17q-13 6 -20 14t-9.5 20.5t-0.5 31.5t8 47l27 142q9 43 25.5 74t40.5 53.5t54.5 37t66.5 24.5
q-9 27 -16.5 53.5t-16.5 53.5l-27 -3q-5 -15 -16 -24.5t-24.5 -15t-28 -7.5t-26.5 -3q-12 -2 -25 -1.5t-28 -1.5q11 9 21 28t14 37q1 13 -1.5 24.5t-9.5 16.5q17 3 39.5 5.5t41.5 2.5q29 0 40 -11t8 -39l153 10q8 29 25 42.5t41 15.5q18 2 34 3t35 2q-6 -5 -11.5 -17
t-7.5 -24q-2 -18 4 -37t16 -27q-14 -2 -23 -3t-15.5 -2t-12.5 -1.5t-15 -1.5q-23 0 -43 6.5t-24 33.5l-33 -2l34 -102q24 -1 45 -9t35.5 -23.5t20 -40.5t-0.5 -59l-40 -203q-7 -35 -5.5 -62t24.5 -41z" />
    <glyph glyph-name="FL123Eh" unicode="&#x123e;" horiz-adv-x="501" 
d="M574 528q-15 -2 -23.5 -3t-15.5 -2t-13 -1.5t-15 -1.5q-11 0 -22 1t-20.5 5.5t-16 12t-7.5 21.5l-34 -2l-19 -102q23 -1 44 -9t35.5 -23.5t20.5 -40.5t-1 -59l-11 -54q-6 -35 -5 -62t24 -41l-99 -17q-27 10 -30.5 28.5t4.5 60.5l21 107q5 25 5 43q0 19 -7 30t-22.5 16.5
t-41.5 5.5q-23 0 -42.5 -12.5t-34.5 -32.5t-25.5 -45t-14.5 -50l-33 -165q-8 -42 -7.5 -73.5t24.5 -44.5l-99 -17q-13 6 -20 14t-9 20.5t0 31.5t7 47l28 142q6 33 22.5 62.5t40.5 54.5t55.5 43.5t67.5 28.5l21 107l-31 -3q-5 -15 -16.5 -24.5t-25 -15t-28 -7.5t-26.5 -3
q-11 -2 -24 -1.5t-29 -1.5q11 9 21.5 28t13.5 37q2 13 -1 24.5t-10 16.5q18 3 40.5 5.5t41.5 2.5q29 0 39.5 -11t8.5 -39l158 10q7 29 24.5 42.5t40.5 15.5q18 2 34.5 3t34.5 2q-6 -5 -11.5 -17t-7.5 -24q-1 -18 4.5 -37t16.5 -27z" />
    <glyph glyph-name="sh8" unicode="&#x123f;" horiz-adv-x="657" 
d="M603 -55q-46 -8 -55 -8q-5 0 -10.5 0.5t-10.5 1.5q-31 7 -46 26.5t-17 67.5h-163q-8 -29 -20.5 -47.5t-28 -29.5t-34 -17t-38.5 -10q-5 0 -6 -1h-8q-14 0 -30 2.5t-23 5.5q24 15 36 32t15 33q1 2 1 10t-1 16q-2 9 -1 13q1 9 16 9h155l57 295q10 51 -1.5 74.5t-62.5 23.5
q-23 0 -42.5 -13t-35 -33.5t-26.5 -46t-16 -50.5l-2 -13q-9 -42 -8.5 -73.5t25.5 -44.5l-100 -17q-24 11 -28 36t6 76q13 66 62.5 113t122.5 67l21 107l-32 -3q-5 -15 -16 -24.5t-24.5 -15t-28 -7.5t-26.5 -3q-12 -2 -25 -1.5t-28 -1.5q11 9 21 28t14 37q1 13 -1.5 24.5
t-9.5 16.5q17 3 39.5 5.5t41.5 2.5q29 0 40 -11t8 -39l158 10q8 29 25 42.5t41 15.5q18 2 34 3t35 2q-6 -5 -11.5 -17t-7.5 -24q-2 -18 4 -37t16 -27q-14 -2 -23 -3t-15.5 -2t-12.5 -1.5t-15 -1.5q-23 0 -43 6.5t-24 33.5l-33 -2l-20 -102q24 -1 45 -9t35.5 -23.5t20 -40.5
t-0.5 -59l-53 -272h161q12 0 10 -11q-1 -2 -3 -4.5t-5 -10.5q-5 -6 -7 -16q-3 -14 3 -30.5t24 -29.5z" />
    <glyph glyph-name="FL1240h" unicode="&#x1240;" horiz-adv-x="524" 
d="M301 421l-19 -2q-35 -4 -57.5 -26.5t-34.5 -82.5q-7 -38 5.5 -51t31.5 -13l25 1zM467 355q7 37 -7 51.5t-39 17.5l-21 -3l-46 -165l26 3q13 1 26 5t24.5 14.5t21 29t15.5 47.5zM559 333q-8 -27 -24 -43.5t-34.5 -25.5t-39 -12t-37.5 -4l-73 -5l-38 -141q-6 -31 -4 -52.5
t20 -35.5l-105 -13q-17 15 -18 41.5t7 65.5l35 123l-97 -9q-13 1 -26 6t-22.5 15t-13.5 25.5t1 38.5l1 8q8 31 26.5 52.5t42.5 35t51.5 20.5t54.5 10l39 2l19 69q2 20 -4 32t-17 23l103 16q12 -1 19.5 -15.5t3.5 -34.5l-24 -89l34.5 3t20.5 1h13q18 0 36 -5.5t31.5 -17.5
t19.5 -30.5t1 -43.5z" />
    <glyph glyph-name="FL1241h" unicode="&#x1241;" horiz-adv-x="524" 
d="M513 100q-45 -6 -62.5 -8.5t-22.5 -2.5h-6q-18 2 -33.5 11t-12.5 36l-54 -7l-16 -60q-3 -17 -1 -30.5t13 -24.5l-85 -12q-22 10 -26.5 23.5t0.5 41.5q2 10 5 22.5t7 27.5l29 117l-69 -13q-1 -1 -7 -1h-6h-14q-13 1 -26 5.5t-23 14t-14.5 24.5t0.5 38l2 10q8 31 25 52.5
t40.5 35.5t50.5 21.5t56 10.5l40 4l11 48q1 3 3 11l3 12q2 15 1 28.5t-12 24.5l102 16q13 -1 15 -16t-2 -36l-2 -12l-19 -75l38 2q3 1 11 1h10h9q18 -1 36 -6.5t31 -16.5t19.5 -28.5t1.5 -42.5l-1 -9q-9 -32 -25.5 -50t-35.5 -28t-39 -13.5t-36 -5.5h-7q-5 0 -6 -1l-60 -4
l-23 -89l52 5l1 2q4 17 20 32t34 17t34.5 4t47.5 2q-8 -8 -13.5 -21t-8.5 -22l-1 -3q-4 -22 2.5 -38.5t18.5 -23.5zM466 355q8 39 -6.5 53t-33.5 16h-8l-21 -1l-44 -175l27 4q23 2 47.5 23.5t36.5 69.5zM279 419q-30 -5 -52 -27t-34 -67l-2 -13q-8 -40 4 -52.5t32 -14.5
l26 4l44 173z" />
    <glyph glyph-name="FL1242h" unicode="&#x1242;" horiz-adv-x="535" 
d="M559 343q-7 -31 -23.5 -49.5t-36 -29t-40 -14.5t-35.5 -6q-1 -1 -7 -1q-4 0 -5 -1l-60 -6l-41 -181q-2 -11 -1 -20.5t9 -11.5l44 9l1 2q4 17 20 32t35 17l81 10q-7 -9 -13 -22.5t-8 -22.5q-4 -23 2.5 -40t20.5 -25l-92 -11q-19 1 -34 9.5t-13 35.5l-126 -20
q-20 11 -24.5 27.5t2.5 50.5l3 18q1 2 1 5t1 6q2 8 3 11l27 118l-70 -15q-5 -1 -10 -1.5t-10 -0.5h-8q-13 0 -26 4.5t-23 14.5t-14.5 26.5t0.5 40.5v4q8 31 25 53t39.5 36t49.5 22t55 12l41 5l13 64q3 17 2 32.5t-14 27.5l104 20q12 -1 15 -15t-1 -34l-4 -15l-15 -75l39 3
q7 1 14 1.5t15 0.5q19 -1 38 -6t33 -16.5t20.5 -29.5t0.5 -45v-4zM465 355q4 21 1.5 34.5t-8.5 21.5t-15.5 11t-18.5 3l-8 1l-22 -2l-40 -175l27 5q25 3 48.5 25t34.5 70zM276 418q-30 -8 -52 -29.5t-31 -66.5l-2 -10q-9 -42 3.5 -56t33.5 -14l26 6l40 172z" />
    <glyph glyph-name="FL1243h" unicode="&#x1243;" horiz-adv-x="607" 
d="M358 414q-30 -8 -51 -30.5t-30 -67.5q-4 -25 -2.5 -40t7 -23.5t14.5 -11.5t20 -3l26 6l34 172zM552 363q4 22 1 35t-10 19.5t-16.5 8t-19.5 1.5h-8l-22 -3l-34 -175l27 5q24 5 48 33t34 76zM647 361q-6 -32 -20.5 -53t-32.5 -33.5t-37.5 -19t-35.5 -9.5l-81 -11l-13 -63
q-5 -30 -21.5 -51.5t-39.5 -37.5t-49 -26t-50 -16.5t-42.5 -9t-25.5 -3.5h-4q-10 -53 -45.5 -78.5t-75.5 -25.5q-32 0 -55 17q23 18 31 28t11 21q3 14 -0.5 23t-2.5 15q1 7 14 12l137 9q97 15 120 125l11 55l-71 -17q-12 -3 -27 -3q-14 0 -28.5 4t-25 14t-15 26.5t1.5 42.5
q6 32 22 54t38.5 37t49.5 23.5t55 13.5l40 7l8 44q4 20 5 40.5t-15 34.5l102 23q14 0 17 -19t-2 -44l-14 -71l39 4q7 1 14 1.5t15 0.5q19 0 39 -2.5t35 -11.5t22.5 -25.5t1.5 -44.5z" />
    <glyph glyph-name="FL1244h" unicode="&#x1244;" horiz-adv-x="523" 
d="M396 102q7 37 -1 53t-22 17l-38 -6l-13 -55q-1 -2 -1.5 -4t-1.5 -4t-1 -4t-1 -4l-3 -16q-10 -53 16 -57h5q20 0 34 13t25 60zM297 421l-19 -3q-31 -7 -52.5 -28t-32.5 -66l-2 -8q-4 -23 -3 -37t6.5 -22t14 -11t18.5 -3l27 5zM465 352q8 42 -5.5 57t-33.5 15h-8l-21 -2
l-41 -170l27 5q24 3 47 22t34 67zM559 340q-8 -31 -24 -49t-35 -27.5t-38.5 -12.5t-35.5 -4l-75 -8l-13 -60q20 2 39.5 5t42.5 5q42 -2 59 -23.5t8 -67.5l-2 -8q-9 -42 -36 -64t-56 -22h-6h-8h-8q-4 0 -9 1q-19 1 -31.5 0.5t-25.5 0.5q-2 0 -4 0.5t-4 0.5q-9 0 -21.5 -2
t-24.5 -4l-22 -1q-18 -1 -20.5 20t3.5 51q2 9 4.5 20t6.5 25l27 117l-71 -15l-27 -1q-13 1 -26.5 5.5t-23 14t-14 25.5t0.5 40l1 6q7 31 24.5 53t41 36t51 22t55.5 11l39 5l16 71q3 13 1.5 27.5t-12.5 25.5l101 18q13 -2 15.5 -17t-1.5 -37l-2 -11l-19 -73q28 2 41 2.5
t20 0.5h9q19 -1 37.5 -6.5t31.5 -16.5t19.5 -29t1.5 -45z" />
    <glyph glyph-name="FL1245h" unicode="&#x1245;" horiz-adv-x="525" 
d="M279 416q-30 -7 -52 -28.5t-33 -66.5l-1 -7q-9 -45 3.5 -59t33.5 -14l26 4l40 173zM467 355q4 19 2 32t-8 21t-15 11.5t-19 3.5l-8 1l-21 -2l-42 -175l28 4q23 3 46.5 25.5t34.5 70.5zM561 340q-7 -31 -23 -49t-35.5 -28t-40 -14.5t-36.5 -7.5l-73 -7l-23 -102
q-1 -3 -3 -11q-1 -2 -1 -5t-1 -5l-4 -20q-5 -26 -4.5 -46.5t12.5 -29.5l-87 -16q-23 11 -27.5 26.5t2.5 49.5l3 17q1 2 1 5t1 5q2 8 3 11l28 117l-71 -13q-12 -3 -27 -3q-13 1 -26.5 5.5t-23.5 14t-14.5 25.5t0.5 40l1 6q7 31 24 53.5t40.5 36.5t51 22t54.5 11l40 4l10 52
q4 20 -4.5 31t-19.5 12l-149 -15q15 8 21 18.5t10 24.5q3 17 -2 34t-19 25l85 9q9 0 19 -2.5t18 -8.5t14 -16t7 -25q0 -6 -0.5 -11t-1.5 -10l-3 -13l95 10h9q22 -2 25 -16t0 -31l-1 -8l-15 -58q18 1 30 2.5t19.5 2.5t12.5 1.5t9 0.5q19 -1 37.5 -6t32 -16t20 -29t1.5 -45z
" />
    <glyph glyph-name="FL1246h" unicode="&#x1246;" horiz-adv-x="523" 
d="M276 395q-32 -5 -54 -26.5t-33 -67.5l-3 -11q-4 -21 -3 -34t6.5 -20.5t14 -10.5t18.5 -4l27 3l44 173zM462 332q7 38 -7 52t-32 16l-30 -2l-44 -174l27 3q24 4 48 25t35 69zM462 565q5 25 -1 46t-31 23h-3q-26 0 -43 -22t-26 -55l-5 -20q-6 -31 -2.5 -57t26.5 -34h2
q14 0 26.5 9.5t22.5 25.5t18 35.5t14 40.5zM554 314q-8 -31 -24.5 -49.5t-36.5 -28.5t-40.5 -14t-36.5 -6q-1 -1 -4 -1q-4 0 -18 -1t-49 -4l-20 -78q-4 -13 -7 -25.5t-5 -23.5q-5 -25 -4.5 -43.5t12.5 -27.5l-86 -12q-21 11 -26 25.5t1 44.5q2 10 4.5 20.5t5.5 24.5l25 95
l-71 -12q-4 -1 -7.5 -1.5t-8.5 -0.5q-9 0 -11 1q-13 0 -26 4.5t-22.5 14.5t-14 25.5t-0.5 38.5l2 8q8 32 25.5 53t40.5 34.5t50.5 20t55.5 9.5l39 5l3 15q2 11 -3.5 18.5t-24.5 16.5q-15 10 -19 33.5t2 57.5q5 18 22.5 35t41 30t51.5 20.5t54 7.5h9q30 -2 56 -5t44 -10.5
t26.5 -20.5t3.5 -35l-1 -6q-9 -37 -31 -59t-44.5 -34t-39.5 -16t-17 -5h1q-17 -7 -22.5 -13t-7.5 -16l-4 -12l69 4q19 -1 37 -6.5t31 -16.5t19.5 -28.5t2.5 -42.5z" />
    <glyph glyph-name="FL1248h" unicode="&#x1248;" horiz-adv-x="655" 
d="M652 139q-14 -60 -40.5 -83t-65.5 -23h-6q-18 0 -49 6q-37 -10 -67 -10q-40 2 -51.5 33.5t3.5 109.5l4 20l-41 -3l-18 -91q-6 -31 -4 -49t19 -30l-92 -16q-28 12 -30 32q-2 12 4 41l3 19q1 5 3 10.5t4 11.5l22 117l-69 -15q-8 -1 -14.5 -1.5t-13.5 -0.5q-33 1 -53 20.5
t-11 64.5l1 5q7 31 23 53t38 37t49.5 23t57.5 11l40 5l12 63q4 20 3 35t-13 26l100 19l1 1h1q11 0 14 -14.5t-1 -35.5l-4 -14l-14 -76l39 5q5 1 8 1.5t7 0.5h16q47 -2 74.5 -24.5t17.5 -71.5l-1 -4q-7 -31 -22.5 -49.5t-35 -29t-40.5 -15t-39 -7.5q-2 -1 -6 -1h-2l-63 -6
l-7 -33l52 5q6 1 13 2t20 3t33.5 4.5t52.5 6.5q15 2 34 2.5t32 0.5h12q37 -2 52.5 -20.5t7.5 -70.5zM464 355q8 40 -6 56.5t-43 17.5l-23 -2l-37 -175l27 5q26 3 48.5 27.5t32.5 67.5zM276 420q-32 -8 -52.5 -29.5t-31.5 -66.5l-1 -7q-9 -42 3 -57t34 -16l26 5l39 173z
M550 134q5 38 -1.5 56t-28.5 19h-2q-23 0 -33 -15t-17 -44l-2 -10q-2 -11 -3.5 -26t0.5 -28.5t8.5 -23t21.5 -9.5h2q23 0 33.5 18t21.5 63z" />
    <glyph glyph-name="FL124Ah" unicode="&#x124a;" horiz-adv-x="879" 
d="M277 424q-30 -7 -51.5 -29t-31.5 -67l-2 -11q-8 -38 3 -52.5t33 -16.5l26 6l41 173zM466 360q7 38 -6.5 54t-42.5 18l-22 -3l-41 -175l28 6q26 2 49 26.5t34 67.5zM874 131q-39 -11 -67 -11h-5q-42 2 -66 30t-12 91l1 4h-160l24 43h-63q-22 -20 -48 -27.5t-58 -11.5
q-1 -1 -4 -1t-4 -1l-60 -6l-32 -135q-7 -33 -5.5 -51.5t13.5 -29.5l-88 -18q-23 12 -28 33q-1 8 0 20t5 31l2 14q1 2 1 4t1 4t1.5 4t1.5 4l27 118l-70 -15q-10 -2 -15 -2h-13q-31 2 -51.5 22t-12.5 62l2 7q7 31 23 53t38.5 36t50 22t57.5 11l40 5l15 66q4 20 1.5 33.5
t-13.5 24.5l104 20q10 -2 13 -16t-1 -35l-4 -15l-15 -74l40 4h19h11q48 -2 73.5 -25.5t15.5 -74.5q-4 -23 -19 -46l57 2l18 44q8 20 4.5 34.5t-13.5 20.5l99 17q13 -5 18.5 -22.5t-1.5 -30.5l-46 -106h188q11 -4 10 -14q-2 -7 -13 -21t-13 -27l-1 -6q-5 -21 1 -33t26 -29z
" />
    <glyph glyph-name="FL124Bh" unicode="&#x124b;" horiz-adv-x="553" 
d="M306 400q-32 -8 -53.5 -29t-32.5 -66l-2 -11q-7 -39 4 -54t34 -16l26 5l42 173zM493 335q8 38 -5 53.5t-42 17.5l-21 -2l-43 -175l26 5q27 2 50 26.5t34 67.5zM585 321q-6 -29 -20.5 -46.5t-33.5 -28t-40 -15.5t-39 -8l-5 -1l-68 -6l-20 -84q48 -2 74 -9t37 -19
q18 -15 10 -57l-21 -91q-3 -19 1.5 -33t22.5 -25l-109 -13q-31 11 -23 47l27 121q7 34 0.5 46.5t-20.5 13.5l-24 1q-51 0 -79 -7.5t-42 -7.5h-2q-17 -51 -45 -83t-65 -33q-20 1 -41 4t-30 11q29 20 38 35t14 29q1 4 0 24q-1 7 0 11q2 8 15 11q26 0 51.5 0.5t49.5 2.5
q50 6 58 13l23 90l-71 -14q-7 -1 -14 -1.5t-14 -0.5q-31 2 -51 22t-12 62l1 7q7 31 23.5 53t39 36t50.5 22t58 11l39 5l16 66q3 19 1.5 33t-12.5 25l101 18q12 -1 15.5 -16.5t-0.5 -38.5l-21 -84l39 3q3 1 14 1h16q48 -2 73.5 -25t16.5 -71z" />
    <glyph glyph-name="FL124Ch" unicode="&#x124c;" horiz-adv-x="581" 
d="M466 108q6 29 -5 46t-28 20h-18q-5 0 -9.5 -0.5t-10.5 -1.5l-14 -59l-3 -16q-5 -26 -2.5 -40.5t18.5 -15.5h4q26 0 42 12.5t25 49.5zM335 411q-31 -8 -52 -29.5t-33 -66.5l-1 -8q-8 -40 3 -55t34 -17l26 5l41 173zM523 346q8 38 -5.5 54t-42.5 18l-21 -2l-41 -175l27 5
q25 3 48.5 27.5t33.5 66.5zM616 335q-7 -30 -22.5 -49t-35 -30t-41 -15.5t-40.5 -6.5l-68 -6l-10 -43l89 3q45 -2 65 -23.5t12 -61.5l-1 -4q-9 -37 -39.5 -56t-72.5 -19h-26q-16 1 -28.5 3t-30.5 9q-5 1 -10 1h-9h-15h-25h-18q-9 0 -11 -1q-6 0 -16 -2t-21 -5t-21 -5t-17 -2
q-15 -57 -46.5 -91t-77.5 -34h-5q-37 1 -62 17q30 20 38 34t10 28l1 3q2 9 0 20q-1 4 -1 7l1 4q1 6 15 11q36 5 73 9.5t73 9.5q17 2 34.5 24.5t25.5 51.5l26 109l-71 -14q-12 -4 -28 -4q-31 2 -51 22.5t-12 63.5l1 7q7 31 23.5 53t39.5 36.5t50.5 22.5t56.5 11l39 4l16 68
q4 18 2 31.5t-14 24.5l103 19q11 -1 14.5 -16.5t-1.5 -38.5l-19 -84l39 3q3 1 11 1h11h9q45 -2 71.5 -24.5t17.5 -69.5z" />
    <glyph glyph-name="FL124Dh" unicode="&#x124d;" horiz-adv-x="860" 
d="M278 424q-30 -7 -51 -28.5t-32 -66.5t1 -62t35 -18l26 5l39 173zM467 355q9 42 -4.5 59.5t-43.5 18.5l-21 -3l-40 -175l27 6q25 3 48.5 27t33.5 67zM869 199q-23 -14 -48.5 -17t-44.5 -2q-27 1 -42.5 14t-23.5 32.5t-11 42.5t-5 44l-156 -8q-19 -29 -50 -40t-67 -15
q-5 0 -6 -1l-60 -7l-25 -102q-4 -25 -8.5 -44t-6 -33t1 -24t12.5 -17l-85 -14q-27 11 -30 32q0 10 2 30t10 51l27 118l-70 -14q-15 -3 -28 -3q-33 2 -53 23.5t-10 67.5q7 31 23.5 53t39 36.5t50 22.5t57.5 12l40 4l10 48q6 27 6.5 44.5t-13.5 30.5l103 20q12 -1 15 -19.5
t-4 -44.5l-17 -75l39 4q7 1 15 1.5t15 -1.5q48 -1 75 -25t16 -75q-4 -10 -6.5 -17.5t-5.5 -12.5l52 4q8 24 13.5 38.5t8.5 23t4.5 12t1.5 6.5q5 24 -16 42l120 20q23 -2 15 -28q0 -1 -1 -4l-4.5 -13.5t-11.5 -31.5t-22 -57q-2 -11 6 -16t33 -7l98 1q13 -1 11 -9
q-2 -5 -8 -16q-11 -20 -12 -29q-3 -13 4.5 -30t26.5 -26z" />
    <glyph glyph-name="FL1250h" unicode="&#x1250;" horiz-adv-x="534" 
d="M534 515q-11 0 -22.5 2t-21 6.5t-16 13t-7.5 22.5l-50 -4l-22 -114l39 5q7 1 14.5 1.5t15.5 0.5q48 0 76 -22.5t18 -73.5q-5 -30 -20 -49t-34.5 -30.5t-41 -17t-39.5 -8.5q-1 0 -3 -0.5t-8.5 -1t-20 -2.5t-37.5 -5l-20 -102q-9 -51 -10 -78t13 -41l-85 -16q-27 10 -31 31
q-1 10 1 30t8 51l23 118l-70 -17q-15 -3 -28 -3q-34 0 -55 20.5t-12 66.5q6 31 21.5 53.5t38 37.5t49.5 24t57 14l39 6l23 115l-35 -2q-5 -15 -15.5 -25t-23.5 -16t-26.5 -8.5t-25.5 -2.5l-65 -3q17 14 29.5 33t15.5 39q4 19 1 29t-10 15l67 8h11q29 0 39.5 -13.5t8.5 -41.5
l177 14q6 24 25 41t40 18l77 4q-13 -13 -18 -34q-3 -26 -0.5 -47t17.5 -34zM463 354q8 42 -6.5 58.5t-44.5 16.5l-21 -3l-34 -175l27 6q26 4 48 29t31 68zM272 416q-31 -8 -51.5 -30.5t-29.5 -67.5t3 -61.5t36 -16.5l26 6l33 173z" />
    <glyph glyph-name="FL1251h" unicode="&#x1251;" horiz-adv-x="537" 
d="M529 114q-31 -5 -48 -8t-26 -4.5l-12 -2t-6 -0.5q-19 0 -34.5 8t-13.5 35l-56 -11l-8 -43q-5 -24 -3.5 -41.5t15.5 -28.5l-85 -18q-15 6 -22.5 14t-9 20.5t1.5 31.5t8 47l23 117l-71 -17q-12 -3 -27 -3t-29 4t-24 14t-14.5 26.5t0.5 42.5q6 31 22 53.5t38.5 37.5t50 24
t55.5 14l39 6l23 116l-35 -2q-5 -15 -15.5 -25t-23.5 -16t-26.5 -8.5t-25.5 -2.5l-65 -3q17 14 29.5 33t15.5 39q4 19 1 29t-10 15l67 8h11q29 0 39.5 -13.5t8.5 -41.5l167 13q7 24 26.5 41t39.5 18l77 4q-13 -13 -18 -34q-3 -26 -0.5 -47t17.5 -34l-71 -7q-22 0 -43.5 8.5
t-24.5 35.5l-40 -3l-22 -115l38 5q8 1 15 1.5t15 0.5q19 0 38.5 -4.5t34 -15.5t21.5 -29.5t1 -46.5q-6 -31 -21 -50t-34 -30t-39.5 -16t-36.5 -8q-1 -1 -7 -1q-4 0 -5 -1l-61 -8l-17 -89l52 9v2q3 17 18.5 32t34.5 19q18 4 34.5 6.5t46.5 5.5q-7 -9 -12 -22.5t-7 -22.5
q-3 -23 4 -39.5t21 -23.5zM463 353q4 22 1.5 37t-9 23t-16 11.5t-19.5 3.5h-8l-21 -3l-34 -175l27 6q24 4 46.5 26.5t32.5 70.5zM272 415q-31 -8 -52 -30.5t-29 -67.5q-5 -25 -3.5 -40t7.5 -23.5t15 -11.5t19 -3l27 6l33 173z" />
    <glyph glyph-name="FL1252h" unicode="&#x1252;" horiz-adv-x="548" 
d="M425 -23q-19 0 -34.5 8t-14.5 35l-127 -24q-14 6 -20.5 14t-7.5 21t2 32.5t9 48.5l23 118l-71 -17q-12 -3 -27 -3t-29 4t-24 14t-14.5 26.5t0.5 42.5q6 31 22 53.5t38.5 37.5t50 24t55.5 14l39 6l22 115l-36 -2q-5 -15 -15.5 -25t-23.5 -16t-26.5 -8.5t-25.5 -2.5l-65 -3
q17 14 29 33t16 39q4 19 1 29t-10 15l66 8h11q29 0 40 -13.5t9 -41.5l167 13q7 24 26 41t40 18l76 4q-12 -12 -17 -34q-3 -26 -0.5 -47t17.5 -34l-71 -7q-22 0 -43.5 8.5t-24.5 35.5l-38 -3l-22 -114l38 5q8 1 15 1.5t15 0.5q19 0 38.5 -4.5t34 -15.5t21.5 -29.5t1 -46.5
q-6 -31 -21 -50t-34 -30t-39.5 -16t-36.5 -8q-1 -1 -7 -1q-4 0 -5 -1l-61 -8l-31 -162q-10 -43 7 -50l44 10v2q3 17 18.5 32t34.5 19l81 12q-6 -9 -11.5 -22.5t-6.5 -22.5q-4 -23 3 -39.5t21 -23.5zM465 353q4 22 1.5 37t-9 23t-16 11.5t-19.5 3.5h-8l-21 -3l-34 -175l27 6
q24 4 46.5 26.5t32.5 70.5zM274 415q-31 -8 -52 -30.5t-29 -67.5q-5 -25 -3.5 -40t7.5 -23.5t15 -11.5t19 -3l27 6l33 173z" />
    <glyph glyph-name="FL1253h" unicode="&#x1253;" horiz-adv-x="627" 
d="M627 514q-22 0 -43.5 8.5t-24.5 35.5l-40 -3l-19 -97l39 4q7 1 14 1.5t15 0.5q19 0 38.5 -4.5t34 -15t21.5 -29t2 -46.5q-6 -32 -20.5 -52.5t-33 -33.5t-38 -19.5t-35.5 -9.5h-78q-8 -42 -25.5 -76t-48 -59t-75.5 -41t-109 -22l-1 -7q-12 -53 -47 -76t-74 -23
q-32 0 -55 17q23 18 31 28t11 21q3 14 -0.5 23t-2.5 15q1 7 14 12l137 9q64 10 97 54t47 119l-70 -17q-14 -3 -28 -3t-28 4t-24.5 14t-15 26.5t0.5 42.5q6 32 22.5 54t39 37t49.5 23.5t55 13.5l39 7l20 98l-35 -2q-5 -15 -15.5 -25t-23.5 -16t-26.5 -8.5t-25.5 -2.5l-65 -3
q17 14 29.5 33t15.5 39q4 19 1 29t-10 15l67 8h11q29 0 39.5 -13.5t8.5 -41.5l167 13q7 24 26.5 41t39.5 18l77 4q-13 -13 -18 -34q-3 -26 -0.5 -47t17.5 -34zM568 371q4 22 1.5 37t-9 23t-15.5 11.5t-19 3.5h-8l-22 -3l-34 -175l27 5q24 5 47 27.5t32 70.5zM377 433
q-30 -8 -51 -30.5t-30 -67.5q-5 -25 -3.5 -40t7.5 -23.5t15 -11.5t20 -3l26 6l34 172z" />
    <glyph glyph-name="FL1254h" unicode="&#x1254;" horiz-adv-x="525" 
d="M563 348q-6 -31 -21.5 -49.5t-34.5 -29t-39 -14.5t-36 -6l-73 -10l-11 -60q20 3 41 5t45 4q45 0 66.5 -22t11.5 -73q-5 -24 -16.5 -41.5t-27.5 -28.5t-34.5 -16.5t-37.5 -5.5h-14q-20 0 -33 2t-26 3q-11 0 -31 -3.5t-36 -5.5q-14 6 -21 14t-9 20.5t0.5 31.5t7.5 47
l23 117l-70 -17q-14 -3 -28 -3t-28 4t-24.5 14t-15 26.5t0.5 42.5q6 31 22.5 53.5t39 37.5t49.5 24t55 14l39 6l23 117l-39 -2q-5 -15 -15.5 -25t-23.5 -16t-26.5 -8.5t-25.5 -2.5l-65 -3q17 14 29 33t16 39q4 19 1 29t-10 15l66 8h11q29 0 40 -13.5t8 -41.5l168 13
q7 24 26 41t39 18l77 4q-12 -12 -17 -34q-3 -26 -1 -47t18 -34l-71 -7q-22 0 -43.5 8.5t-24.5 35.5l-37 -3l-22 -114q18 1 29.5 2t19 2t11.5 1h9q20 0 39 -4.5t33.5 -15.5t21.5 -29.5t2 -46.5zM467 350q4 22 1.5 37t-9 23t-15.5 11.5t-19 3.5h-8l-22 -3l-33 -170l27 6
q24 4 46.5 24t31.5 68zM276 412q-30 -8 -51 -30.5t-30 -67.5q-5 -25 -3.5 -40t7.5 -23.5t15 -11.5t20 -3l26 6l34 173zM412 93q8 42 -2 59t-26 17l-39 -3l-11 -56q-7 -40 -7 -67q0 -26 20 -26q12 0 22 2t18 10t14 23t11 41z" />
    <glyph glyph-name="FL1255h" unicode="&#x1255;" horiz-adv-x="670" 
d="M698 296q-6 -30 -21 -49t-34.5 -30.5t-40.5 -17t-40 -8.5q-1 -1 -6 -1l-63 -8l-9 -48q-1 -7 -2 -14.5t-3 -16.5q-2 -8 -3 -14.5t-2 -11.5q-5 -28 -4.5 -43.5t15.5 -26.5l-86 -22q-27 10 -31 31q-1 10 2.5 37t9.5 58l12 65l-70 -17q-15 -3 -28 -3q-34 0 -55 20t-12 66
q11 58 56 88t110 41l39 6l10 50q3 17 0.5 27t-19.5 10l-123 -20q13 8 21.5 22t11.5 28q3 17 1 31.5t-16 22.5l-37 -3q-5 -15 -15.5 -25t-23.5 -16t-26.5 -8.5t-25.5 -2.5l-65 -3q17 14 29 33t16 39q4 19 1 29t-10 15l66 8h11q29 0 40 -13.5t9 -41.5l167 13q7 24 26 41t40 18
l76 4q-12 -12 -17 -34q-3 -26 -0.5 -47t17.5 -34l-71 -7q-22 0 -43.5 8.5t-24.5 35.5l-57 -3q12 -2 19.5 -9.5t12 -18.5t5.5 -24.5t-2 -26.5l70 14q5 0 6 1h5q23 0 27 -16.5t0 -36.5l-10 -51l40 4q8 1 15.5 1.5t15.5 0.5q46 0 74.5 -22.5t19.5 -73.5zM602 298q8 42 -6 59
t-44 17l-22 -4l-34 -174l27 5q26 3 48.5 28.5t30.5 68.5zM411 360q-31 -8 -51.5 -30.5t-29.5 -67.5t3 -61t36 -16l26 5l34 173z" />
    <glyph glyph-name="FL1256h" unicode="&#x1256;" horiz-adv-x="594" 
d="M598 533q-22 0 -43.5 8.5t-24.5 35.5l-36 -2q30 -11 44 -36.5t9 -48.5q-5 -27 -20 -44t-33 -26.5t-35 -13t-26 -3.5q-2 0 -2 1l1 1q-17 -8 -22.5 -16t-8.5 -25l45 4q7 1 13 1.5t12 0.5q48 0 75.5 -22t17.5 -73q-5 -30 -19 -47.5t-32.5 -27.5t-39.5 -14t-40 -7l-71 -10
l-21 -105q-5 -27 -3.5 -43.5t16.5 -27.5l-86 -20q-27 10 -31 31q-1 10 3 41t10 62l11 56l-71 -17q-14 -3 -27 -3q-34 0 -55 20.5t-12 66.5q5 29 19 49t35.5 33.5t49 22t60.5 14.5l39 7q4 19 -1.5 28t-26.5 18q-16 5 -25 22.5t-6 32.5q10 55 101 111l-56 -3q-5 -15 -15.5 -25
t-23.5 -16t-26.5 -8.5t-25.5 -2.5l-65 -3q17 14 29 33t16 39q4 19 1 29t-10 15l66 8h11q29 0 40 -13.5t9 -41.5l236 13q7 24 26 41t40 18l76 4q-12 -12 -17 -34q-3 -26 -1 -47t18 -34zM454 478q2 12 1 28t-5.5 31t-12.5 25t-20 10t-26 -9.5t-26.5 -24t-21.5 -31t-11 -31.5
q-6 -30 7.5 -52.5t36.5 -30.5q25 0 48 24t30 61zM469 276q8 42 -6.5 59t-44.5 17l-21 -4l-32 -165l27 5q26 5 47 25t30 63zM278 338q-30 -6 -50.5 -25t-29.5 -64q-8 -45 3.5 -61t35.5 -16l26 5l32 164z" />
    <glyph glyph-name="kkx1" unicode="&#x1258;" horiz-adv-x="663" 
d="M662 147q-12 -62 -39.5 -85t-69.5 -23q-9 0 -21.5 1t-29.5 3q-23 -5 -39.5 -8t-27.5 -3q-42 0 -53.5 35.5t5.5 124.5l-39 -4l-11 -52q-9 -50 -10.5 -76.5t21.5 -40.5l-93 -18q-28 10 -31 31q-1 10 1 30t8 51l23 118l-70 -17q-15 -3 -28 -3q-34 0 -55 20.5t-12 66.5
q6 31 21.5 53.5t38 37.5t49.5 24t57 14l39 6l23 115l-38 -2q-5 -15 -15.5 -25t-23.5 -16t-26.5 -8.5t-25.5 -2.5l-65 -3q17 14 29.5 33t15.5 39q4 19 1 29t-10 15l67 8h11q29 0 39.5 -13.5t8.5 -41.5l167 13q7 24 26.5 41t39.5 18l77 4q-13 -13 -18 -34q-3 -26 -0.5 -47
t17.5 -34l-71 -7q-22 0 -43.5 8.5t-24.5 35.5l-38 -3l-23 -116l41 7q4 1 7 1.5t7 0.5h16q48 0 76 -22.5t18 -73.5q-5 -30 -20 -49t-34.5 -30.5t-41 -17t-39.5 -8.5q-2 -1 -6 -1h-2l-61 -8l-6 -33l50 7q5 1 13 2.5t21.5 3.5t34 5t51.5 8q14 2 33.5 3.5t32.5 1.5h12
q38 0 53.5 -18.5t9.5 -70.5zM466 354q8 42 -6.5 58.5t-44.5 16.5l-21 -3l-34 -175l27 6q26 4 48 29t31 68zM275 416q-31 -8 -51.5 -30.5t-29.5 -67.5t3 -61.5t36 -16.5l26 6l33 173zM559 140q4 37 -3 55t-30 18q-24 0 -33.5 -15t-15.5 -45q-2 -11 -4 -27t-0.5 -31.5
t8.5 -26.5t24 -11q25 0 35 19t19 64z" />
    <glyph glyph-name="FL125Ah" unicode="&#x125a;" horiz-adv-x="895" 
d="M894 148q-45 -14 -72 -14q-21 0 -38.5 9t-29.5 25t-16.5 36.5t-0.5 43.5l-162 -10l25 55l-64 -4q-21 -20 -46.5 -29t-57.5 -14q-1 -1 -4 -1q-4 0 -5 -1l-60 -8l-20 -102q-10 -51 -10 -76q0 -24 14 -38l-86 -21q-27 10 -31 31q-1 10 1 30t8 51l23 118l-71 -17
q-5 -2 -13.5 -2.5t-13.5 -0.5q-34 0 -55 20.5t-12 66.5q6 31 21.5 53.5t37.5 37.5t49.5 24t57.5 14l39 6l23 117l-44 -3q-5 -15 -15.5 -25t-23.5 -16t-26.5 -8.5t-25.5 -2.5l-65 -3q17 14 29 33t16 39q4 19 1 29t-10 15l66 8h11q29 0 40 -13.5t9 -41.5l167 13q7 24 26 41
t40 18l76 4q-12 -12 -17 -34q-3 -26 -0.5 -47t17.5 -34l-71 -7q-22 0 -43.5 8.5t-24.5 35.5l-32 -2l-23 -116l40 5q7 1 15 1.5t16 0.5q48 0 76 -22.5t18 -73.5q-5 -22 -16 -43l57 4l14 34q4 22 2 38.5t-12 22.5l99 21q15 -3 23 -14.5t5 -24.5q0 -2 -1 -3l-1 -3l-50 -120
l191 14q11 -4 10 -14l-2 -4.5t-6 -12.5q-11 -18 -12 -28q-3 -14 3 -31t23 -38zM471 352q9 42 -5.5 58.5t-44.5 16.5l-22 -3l-34 -175l28 6q25 4 47.5 29t30.5 68zM280 414q-30 -8 -51 -30.5t-30 -67.5q-8 -45 3.5 -61.5t35.5 -16.5l26 6l34 173z" />
    <glyph glyph-name="FL125Bh" unicode="&#x125b;" horiz-adv-x="539" 
d="M381 -109q-34 7 -26 48l20 104q9 42 2 57.5t-23 15.5q-32 0 -56.5 -3.5t-42.5 -7t-30 -7t-19 -3.5q-14 -51 -40.5 -84.5t-64.5 -35.5q-20 0 -41 2t-33 9q30 22 39 37.5t11 29.5q2 5 0 23q-2 9 -1 11q1 7 15 12q26 1 52 2.5t50 5.5q49 7 58 15l17 90l-70 -17
q-15 -3 -28 -3q-34 0 -55 20.5t-12 66.5q6 31 21.5 53.5t38 37.5t49.5 24t57 14l39 6l27 135l-41 -3q-5 -15 -15.5 -25t-23.5 -16t-26.5 -8.5t-25.5 -2.5l-65 -3q17 14 29.5 33t15.5 39q4 19 1 29t-10 15l67 8h11q29 0 39.5 -13.5t8.5 -41.5l167 13q7 24 26.5 41t39.5 18
l77 4q-13 -13 -18 -34q-3 -26 -0.5 -47t17.5 -34l-71 -7q-22 0 -43.5 8.5t-24.5 35.5l-34 -3l-26 -133l39 5q7 1 14.5 1.5t15.5 0.5q48 0 76.5 -22.5t18.5 -73.5q-6 -30 -21 -48.5t-34.5 -30t-40.5 -17t-40 -9.5l-68 -9l-17 -84q48 0 75 -6t40 -17q20 -17 12 -62l-16 -80
q-4 -20 1 -35.5t25 -26.5zM478 335q8 42 -6 58.5t-44 16.5l-22 -3l-34 -175l27 6q26 4 48.5 29t30.5 68zM287 397q-30 -8 -51 -30.5t-30 -67.5t3 -61.5t36 -16.5l26 6l34 173z" />
    <glyph glyph-name="FL125Ch" unicode="&#x125c;" horiz-adv-x="567" 
d="M601 345q-6 -30 -21 -49t-34 -30.5t-40.5 -17t-39.5 -8.5l-69 -9l-8 -43q38 3 55.5 4.5t24.5 1.5h9q45 0 66.5 -21.5t13.5 -63.5q-7 -39 -40.5 -59t-78.5 -20h-9q-1 -1 -8 -1q-16 0 -29 2t-30 8q-40 0 -59.5 -1t-29.5 -3q-6 0 -16 -2.5t-21 -6t-21 -6t-17 -2.5
q-13 -57 -45 -93t-80 -36q-32 0 -63 14q29 22 36.5 36t10.5 28q1 2 0.5 8t-1.5 15q-2 9 -1 10q1 7 15 12q36 6 73 12t73 13q18 3 35 26t22 52l22 109l-71 -17q-18 -5 -28 -5q-34 0 -54.5 21.5t-11.5 67.5q6 31 21.5 53.5t37.5 37.5t49.5 24t57.5 14l39 6l24 123l-46 -3
q-5 -15 -15.5 -25t-23.5 -16t-26.5 -8.5t-25.5 -2.5l-65 -3q17 14 29.5 33t15.5 39q4 19 1 29t-10 15l67 8h11q29 0 39.5 -13.5t8.5 -41.5l167 13q7 24 26.5 41t39.5 18l77 4q-13 -13 -18 -34q-3 -26 -0.5 -47t17.5 -34l-71 -7q-22 0 -43.5 8.5t-24.5 35.5l-29 -2l-24 -122
l39 5q8 1 15.5 1.5t15.5 0.5q48 0 76 -22.5t18 -73.5zM399 244l28 6q25 4 47.5 29t30.5 68q9 42 -5.5 58.5t-44.5 16.5l-22 -3zM315 409q-31 -8 -51.5 -30.5t-30.5 -67.5q-8 -45 3.5 -61.5t35.5 -16.5l26 6l34 173zM458 109q6 31 -5.5 49t-29.5 20q-19 0 -38 -3l-11 -59
q-7 -34 -4.5 -52.5t20.5 -18.5q27 0 44 13t24 51z" />
    <glyph glyph-name="FL125Dh" unicode="&#x125d;" horiz-adv-x="871" 
d="M883 214q-22 -15 -48 -19t-45 -4q-27 0 -43 12.5t-25.5 31t-13.5 41.5t-6 44l-156 -14q-19 -29 -49.5 -41t-67.5 -18q-4 0 -5 -1l-61 -8l-20 -102q-2 -14 -3 -24l-2 -10l-2 -10q-6 -29 -5.5 -46t15.5 -28l-85 -17q-27 10 -31 31q-1 10 1 30t8 51l23 118l-70 -17
q-15 -3 -28 -3q-34 0 -55 20.5t-12 66.5q6 31 21.5 53.5t38 37.5t49.5 24t57 14l39 6l23 116l-44 -3q-5 -15 -15.5 -25t-23.5 -16t-26.5 -8.5t-25.5 -2.5l-65 -3q17 14 29.5 33t15.5 39q4 19 1 29t-10 15l67 8h11q29 0 39.5 -13.5t8.5 -41.5l167 13q7 24 26.5 41t39.5 18
l77 4q-13 -13 -18 -34q-3 -26 -0.5 -47t17.5 -34l-71 -7q-22 0 -43.5 8.5t-24.5 35.5l-31 -2l-22 -115l39 5q7 1 14.5 1.5t15.5 0.5q48 0 76 -22.5t18 -73.5q-5 -25 -10 -31l53 6q7 24 12 38.5t8 23t4 12t1 6.5q5 24 -18 41l120 24q22 0 16 -27q0 -1 -1 -4t-4 -13.5
t-10 -31.5l-19 -57q-2 -11 6 -15.5t33 -5.5l99 4q13 0 11 -8q-1 -7 -7 -16q-11 -20 -12 -30q-2 -13 6.5 -29.5t27.5 -24.5zM472 354q8 42 -6.5 58.5t-44.5 16.5l-21 -3l-34 -175l27 6q26 4 48 29t31 68zM281 416q-31 -8 -51.5 -30.5t-29.5 -67.5t3 -61.5t36 -16.5l26 6
l33 173z" />
    <glyph glyph-name="FL1260h" unicode="&#x1260;" horiz-adv-x="470" 
d="M344 0q-15 6 -22.5 14t-9 20.5t1.5 31.5t8 47l68 351q5 24 7 41.5t-2.5 29.5t-17.5 18t-38 6q-42 0 -81 -51.5t-57 -141.5l-45 -231q-8 -42 -7.5 -73.5t24.5 -44.5l-99 -17q-13 6 -20 14t-9 20.5t0 31.5t7 47l39 203q15 73 40 122.5t61 79.5t82.5 43t103.5 13
q25 0 47.5 -7.5t37.5 -27.5t19.5 -57t-6.5 -95l-52 -267q-6 -35 -5 -62t24 -41z" />
    <glyph glyph-name="FL1261h" unicode="&#x1261;" horiz-adv-x="625" 
d="M558 265q-19 0 -34.5 9.5t-14.5 36.5l-50 -12l-35 -179q-6 -35 -5 -62t24 -41l-99 -17q-27 10 -30.5 28.5t4.5 60.5l73 375q10 48 -2 71.5t-64 23.5q-42 0 -74 -51t-50 -142l-45 -231q-8 -42 -7.5 -73.5t24.5 -44.5l-99 -17q-13 6 -20 14t-9 20.5t0 31.5t7 47l39 203
q14 70 39 119t61 80t83 45t104 14q25 0 47.5 -7.5t37.5 -27.5t19.5 -57t-6.5 -95l-14 -74l47 10v2q3 17 19 32.5t34 18.5l82 13q-7 -9 -12.5 -23t-6.5 -23q-4 -23 3 -39.5t21 -23.5z" />
    <glyph glyph-name="FL1262h" unicode="&#x1262;" horiz-adv-x="646" 
d="M523 -20q-19 0 -34.5 8t-14.5 35l-122 -24q-25 9 -33.5 33.5t3.5 83.5l61 313q8 39 7.5 64.5t-7.5 40.5t-20 21t-30 6q-42 0 -78 -51t-53 -142l-45 -230q-8 -42 -8 -74q0 -31 25 -44l-99 -17q-13 6 -20 14t-9.5 20.5t-0.5 31.5t8 47l39 202q13 70 39.5 119t64 80t85.5 45
t105 14q25 0 47.5 -7.5t38 -27.5t20 -57t-6.5 -95l-52 -266q-9 -48 -8.5 -70.5t11.5 -22.5l38 8l1 2q3 17 18.5 32.5t34.5 18.5l81 13q-7 -9 -12 -23t-7 -23q-6 -49 25 -63z" />
    <glyph glyph-name="FL1263h" unicode="&#x1263;" horiz-adv-x="484" 
d="M358 0q-15 6 -22.5 14t-9 20.5t1.5 31.5t8 47l68 350q9 47 -2.5 71t-63.5 24q-42 0 -80.5 -51t-56.5 -142l-13 -65q-8 -42 -7.5 -73.5t24.5 -44.5l-99 -17q-13 6 -20 14t-9.5 20.5t-0.5 31.5t8 46l8 41q13 69 40.5 117.5t66 79t87.5 44.5t105 14q25 0 47.5 -7.5t38 -27.5
t20 -57t-6.5 -95l-52 -266q-6 -35 -5 -62t24 -41z" />
    <glyph glyph-name="FL1264h" unicode="&#x1264;" horiz-adv-x="617" 
d="M507 102q8 41 -5.5 58t-29.5 17h-7q-7 0 -13.5 -0.5t-16.5 -1.5l-11 -55q-3 -20 -5.5 -38t-2.5 -32q0 -13 4.5 -21t14.5 -8q24 0 43 15t29 66zM607 102q-10 -48 -44.5 -73t-72.5 -25h-14q-20 0 -36 2t-29 3q-11 0 -31.5 -3.5t-35.5 -5.5q-27 10 -30.5 28.5t4.5 60.5
l73 374q9 48 -3 71.5t-64 23.5q-40 0 -72.5 -51t-50.5 -142l-45 -230q-8 -42 -7.5 -73.5t24.5 -44.5l-99 -17q-13 6 -20 14t-9 20.5t0 31.5t7 47l39 202q14 70 39 119t61 80t82.5 45t103.5 14q25 0 47.5 -7.5t38 -27.5t20 -57t-6.5 -95l-38 -197q19 2 43 4t47 4q45 0 67 -22
t12 -73z" />
    <glyph glyph-name="FL1265h" unicode="&#x1265;" horiz-adv-x="665" 
d="M539 -1q-27 10 -30.5 28.5t4.5 60.5l73 374q4 24 5 42t-4.5 29.5t-19.5 17.5t-40 6q-54 0 -87 -51t-50 -142l-45 -230q-8 -42 -7.5 -73.5t24.5 -44.5l-99 -17q-13 6 -20 14t-9.5 20.5t-0.5 31.5t8 47l43 220l-60 -11v-2q-12 -61 -43 -85.5t-69 -24.5q-26 0 -39 12
q16 16 21.5 23t7.5 19q3 17 -1 29.5t-2 19.5q2 6 10 9l180 30q16 63 42.5 105.5t62.5 68t80.5 36.5t97.5 11q25 0 47.5 -7.5t38 -27.5t20 -57t-6.5 -95l-52 -266q-7 -35 -5.5 -62t24.5 -41z" />
    <glyph glyph-name="FL1266h" unicode="&#x1266;" horiz-adv-x="470" 
d="M376 165q-15 6 -22.5 14t-9.5 20.5t1 31.5t9 46l37 191q4 22 5.5 39t-3 28t-17.5 17t-38 6q-45 0 -82 -51t-55 -142l-45 -230q-8 -42 -7.5 -73.5t24.5 -44.5l-99 -17q-13 6 -20 14t-9 20.5t0 31.5t7 47l39 202q14 72 39 121.5t61 79.5t82.5 43.5t103.5 13.5
q25 0 47.5 -7.5t38 -27.5t20 -57t-6.5 -95l-20 -101q-6 -35 -5 -62t24 -41z" />
    <glyph glyph-name="b8" unicode="&#x1267;" horiz-adv-x="636" 
d="M581 50q12 0 10 -11q-1 -2 -9 -13.5t-11 -24.5q-3 -14 2 -27t23 -26q-30 -6 -42 -8.5t-20 -2.5q-43 0 -61.5 25t-20.5 77h-148q-18 -61 -53 -83t-83 -22q-14 0 -26 2.5t-19 5.5q25 15 32.5 32t10.5 33q1 1 -1 20q-2 9 -1 13q1 9 16 9h146l82 423q9 50 -4.5 72t-63.5 22
q-52 0 -85.5 -49t-51.5 -143l-17 -88q-10 -49 -8 -77.5t25 -40.5l-100 -17q-12 6 -19 14t-9 20t-0.5 31t6.5 48l12 59q26 135 103.5 196.5t196.5 61.5q26 0 48.5 -7.5t37.5 -28.5t19.5 -57.5t-6.5 -93.5l-67 -344h156z" />
    <glyph glyph-name="FL1268h" unicode="&#x1268;" horiz-adv-x="488" 
d="M342 0q-6 3 -12 12t-10 22t-5 29t3 33l57 295q5 25 7 43t-2 30t-17 17.5t-38 5.5q-46 0 -78.5 -49.5t-50.5 -143.5l-31 -158q-9 -49 -7 -77.5t24 -40.5l-99 -17q-12 6 -19 13.5t-9.5 20t-0.5 31.5t7 48l27 136q10 56 33 102.5t57.5 79.5t80.5 51t102 18q26 0 49 -7.5
t37.5 -29t18.5 -60t-8 -100.5l-33 -169q-10 -51 -7.5 -78t23.5 -40zM488 516q-22 0 -43 8.5t-24 35.5l-139 -8q-5 -15 -15.5 -25t-23.5 -16t-26.5 -8.5t-25.5 -2.5l-64 -3q16 14 28.5 33t16.5 39q3 19 0 29t-10 15l67 8h11q29 0 39.5 -13.5t8.5 -41.5l130 9q6 24 25.5 41
t39.5 18l77 4q-13 -13 -18 -34q-3 -26 -0.5 -47t18.5 -34z" />
    <glyph glyph-name="FL1269h" unicode="&#x1269;" horiz-adv-x="619" 
d="M545 229q-19 0 -34.5 8t-14.5 35l-49 -8l-25 -129q-10 -51 -7.5 -78t23.5 -40l-99 -17q-6 3 -12 12t-10 22t-5 29t3 33l57 295q5 25 7.5 43t-1 30t-16 17.5t-37.5 5.5q-46 0 -78.5 -49.5t-50.5 -143.5l-31 -158q-9 -49 -7 -77.5t24 -40.5l-99 -17q-12 6 -19 13.5t-9.5 20
t-0.5 31.5t7 48l27 136q11 57 33 103.5t56 79.5t79 50.5t102 17.5q26 0 49 -7.5t37.5 -29t18.5 -60t-8 -100.5l-5 -24l46 7v2q3 17 19 32.5t34 18.5l82 13q-7 -9 -12.5 -23t-6.5 -23q-4 -23 3 -39.5t21 -23.5zM522 516q-22 0 -43 8.5t-24 35.5l-173 -8q-5 -15 -15.5 -25
t-23.5 -16t-26.5 -8.5t-25.5 -2.5l-64 -3q16 14 28.5 33t16.5 39q3 19 0 29t-10 15l67 8h11q29 0 39.5 -13.5t8.5 -41.5l164 9q6 24 25.5 41t39.5 18l77 4q-13 -13 -18 -34q-3 -26 -0.5 -47t18.5 -34z" />
    <glyph glyph-name="FL126Ah" unicode="&#x126a;" horiz-adv-x="622" 
d="M498 -27q-19 0 -34.5 8t-14.5 35l-117 -16q-26 0 -29 29t8 83l53 274q5 25 7.5 43t-1.5 29.5t-16.5 17t-37.5 5.5q-46 0 -78 -49.5t-50 -143.5l-30 -153q-9 -49 -7 -77.5t24 -40.5l-99 -17q-12 6 -19 13.5t-9.5 20.5t-1 31.5t7.5 47.5l24 125q25 126 91 192t181 66
q25 0 48.5 -7.5t38.5 -27t20 -54t-6 -88.5l-46 -235q-4 -24 -3.5 -41t21.5 -17l26 5v2q4 17 19.5 32.5t33.5 18.5l82 13q-7 -9 -12 -23t-7 -23q-4 -23 3 -39.5t22 -23.5zM497 512q-22 0 -43.5 8.5t-24.5 35.5l-147 -8q-5 -15 -15.5 -25t-23.5 -16t-27 -8.5t-26 -2.5l-64 -3
q17 14 29 33t16 39q4 19 0.5 29t-10.5 15l67 8h11q29 0 40 -13.5t8 -41.5l139 9q7 24 26 41t39 18l77 4q-12 -12 -17 -34q-3 -26 -1 -47t18 -34z" />
    <glyph glyph-name="FL126Bh" unicode="&#x126b;" horiz-adv-x="490" 
d="M451 17q-21 13 -23.5 40t7.5 78l34 175q11 57 6.5 93.5t-19 57t-37 28.5t-48.5 8q-54 0 -99 -16.5t-78 -44t-54.5 -63.5t-29.5 -76l-8 -39q-5 -29 -6 -45t2.5 -25.5t11 -14.5t20.5 -11l100 17q-11 6 -17.5 12.5t-9 17.5t-2 28t3.5 43l9 42q6 35 18 64.5t28 51t35.5 33.5
t41.5 12q25 0 37.5 -5.5t16 -17.5t1 -30t-7.5 -43l-53 -274l-1 -1q-5 -32 -7 -52t-2 -29q4 -21 31 -31zM490 516q-22 0 -43 8.5t-24 35.5l-141 -8q-5 -15 -15.5 -25t-23.5 -16t-26.5 -8.5t-25.5 -2.5l-64 -3q16 14 28.5 33t16.5 39q3 19 0 29t-10 15l67 8h11
q29 0 39.5 -13.5t8.5 -41.5l132 9q6 24 25.5 41t39.5 18l77 4q-13 -13 -18 -34q-3 -26 -0.5 -47t18.5 -34z" />
    <glyph glyph-name="FL126Ch" unicode="&#x126c;" horiz-adv-x="611" 
d="M601 102q9 49 -12 72t-67 23q-25 -2 -48.5 -4t-41.5 -4l24 125q11 57 6.5 93.5t-19.5 57t-37.5 28.5t-48.5 8q-113 0 -182.5 -69t-93.5 -189l-25 -130q-6 -29 -7.5 -47.5t1 -31.5t9.5 -20.5t19 -13.5l99 17q-22 12 -24 40.5t7 77.5l31 158q18 94 50 143.5t78 49.5
q25 0 38 -5.5t18 -17t3 -29.5t-7 -43l-54 -278l-1 -1q-5 -32 -7 -52t-2 -29q4 -21 31 -31q29 3 41 5t18 2.5t11 0.5q6 0 21 -1q28 -3 49 -3q45 0 79 25t44 73zM501 102q-10 -48 -27.5 -64.5t-44.5 -16.5q-20 0 -18.5 34t18.5 120q12 0 17.5 1t19.5 1q19 -1 30.5 -19t4.5 -56
zM497 515q-11 0 -22.5 2t-21 6.5t-16 13t-7.5 22.5l-148 -8q-5 -15 -15.5 -25t-23.5 -16t-26.5 -8.5t-25.5 -2.5l-65 -3q17 14 29.5 33t15.5 39q4 19 1 29t-10 15l67 8h11q29 0 39.5 -13.5t8.5 -41.5l139 9q6 24 25.5 41t39.5 18l77 4q-13 -13 -18 -34q-3 -26 -0.5 -47
t17.5 -34z" />
    <glyph glyph-name="FL126Dh" unicode="&#x126d;" horiz-adv-x="646" 
d="M606 17q-21 13 -23.5 40t7.5 78l35 181q12 57 8 93.5t-19 57t-38 28.5t-49 8q-47 0 -89.5 -13.5t-76.5 -37.5t-56.5 -55.5t-29.5 -67.5l-169 -24q-8 -1 -10 -7l2 -10q4 -16 2 -29q-5 -21 -28 -43q13 -10 39 -10q39 0 69.5 25t39.5 74l49 8l-39 -198q-5 -29 -7.5 -48
t-1 -31t7.5 -20t18 -14l100 17q-23 12 -25 40.5t8 77.5l31 160q18 94 50 143.5t78 49.5q25 0 38 -5.5t17.5 -17.5t2.5 -30.5t-7 -43.5l-54 -280l-1 -1q-5 -32 -7 -52t-2 -29q4 -21 31 -31zM647 520q-11 0 -22.5 2t-21 6.5t-16 13t-7.5 22.5l-192 -9q-5 -15 -15.5 -25
t-23.5 -16t-26.5 -8.5t-25.5 -2.5l-65 -3q17 14 29 33t16 39q4 19 1 29t-10 15l66 8h11q29 0 40 -13.5t9 -41.5l183 10q6 24 25.5 41t39.5 18l77 4q-13 -13 -18 -34q-3 -26 -0.5 -47t17.5 -34z" />
    <glyph glyph-name="FL126Eh" unicode="&#x126e;" horiz-adv-x="488" 
d="M477 170q-11 6 -17.5 12.5t-9.5 17t-2.5 26.5t5.5 41q1 8 4 20.5t6 26.5t6 27.5t5 23.5q8 42 2 68t-21 41t-37 20t-46 5q-115 0 -183 -67.5t-92 -188.5l-25 -129q-5 -29 -7 -48t0.5 -31.5t9.5 -20t19 -13.5l99 17q-22 12 -24 40.5t7 77.5l31 157q18 94 50 143.5t78 49.5
t54.5 -20t0.5 -60q-1 -5 -3 -14t-6.5 -26.5t-11 -45.5t-16.5 -70q-5 -31 -5.5 -44t-0.5 -22q4 -21 31 -31zM488 515q-11 0 -22.5 2t-21 6.5t-16 13t-7.5 22.5l-139 -8q-5 -15 -15.5 -25t-23.5 -16t-26.5 -8.5t-25.5 -2.5l-65 -3q17 14 29.5 33t15.5 39q4 19 1 29t-10 15
l67 8h11q29 0 39.5 -13.5t8.5 -41.5l130 9q6 24 25.5 41t39.5 18l77 4q-13 -13 -18 -34q-3 -26 -0.5 -47t17.5 -34z" />
    <glyph glyph-name="FL126Fh" unicode="&#x126f;" horiz-adv-x="634" 
d="M581 -54l13 3q-17 13 -20 29.5t0 30.5q2 10 7 16q3 8 5 10.5t3 4.5q2 11 -10 11h-142l49 250q12 62 8 100.5t-18.5 60t-37.5 29t-49 7.5q-57 0 -104.5 -14.5t-83.5 -41t-59.5 -63t-32.5 -79.5l-9 -46q-5 -29 -6.5 -48t1 -31t9 -20t18.5 -14l100 17q-23 12 -25 40.5
t8 77.5l13 68q12 63 42 101t76 38q50 0 63 -22.5t3 -72.5l-65 -338h-142q-15 0 -16 -9q-1 -4 1 -13q1 -9 1.5 -14t0.5 -6q-4 -16 -11.5 -33t-32.5 -32q7 -3 19 -5.5t26 -2.5h8q1 1 7 1q20 4 37.5 10t32 17t26.5 29.5t21 47.5h135q2 -46 16 -69.5t45 -30.5q5 -1 10.5 -1.5
t10.5 -0.5q8 0 18.5 2t30.5 6zM509 512l71 7q-16 13 -18 34t1 47q5 22 17 34l-77 -4q-20 -1 -39 -18t-26 -41l-151 -9q3 28 -8 41.5t-40 13.5h-11l-67 -8q7 -5 10.5 -15t-0.5 -29q-4 -20 -16 -39t-29 -33l64 3q12 0 26 2.5t27 8.5t23.5 16t15.5 25l159 8q3 -27 24.5 -35.5
t43.5 -8.5z" />
    <glyph glyph-name="FL1270h" unicode="&#x1270;" horiz-adv-x="567" 
d="M82 266q8 -4 24 -7.5t33 -3.5q38 0 63 29t36 83l64 3l-67 -259l-2 -9q-5 -24 -7.5 -41t-0.5 -28.5t9.5 -19t21.5 -13.5l102 17q-25 16 -25.5 47t6.5 70l63 242l68 3q-6 -27 -3 -46.5t12 -32.5t21.5 -19t25.5 -6q37 0 67 13q-20 14 -21 30.5t1 27.5q4 18 10 26.5t7 15.5
q1 2 0 6.5t-6 4.5l-178 -9l33 125q5 25 1.5 44t-17.5 19l-102 -23q16 -14 15 -34.5t-5 -40.5l-25 -96l-173 -9q-10 -4 -10 -12q-2 -7 2.5 -14.5t1.5 -25.5q-2 -11 -13.5 -27t-31.5 -30z" />
    <glyph glyph-name="FL1271h" unicode="&#x1271;" horiz-adv-x="567" 
d="M82 266q8 -4 24 -7.5t33 -3.5q38 0 63 29t36 83l64 3l-67 -259l-2 -9q-5 -24 -7.5 -41t-0.5 -28.5t9.5 -19t21.5 -13.5l102 17q-25 16 -25.5 47t6.5 70l17 66l61 3q-5 -27 -1.5 -44t12 -26.5t21 -13t26.5 -3.5q17 0 31.5 3.5t29.5 9.5q-20 14 -22.5 26.5t-0.5 23.5
q3 15 8.5 20.5t6.5 12.5q1 2 -0.5 6.5t-6.5 4.5l-161 -9l42 162l68 3q-6 -27 -3 -46.5t12 -32.5t21.5 -19t25.5 -6q37 0 67 13q-20 14 -21 30.5t1 27.5q4 18 10 26.5t7 15.5q1 2 0 6.5t-6 4.5l-178 -9l33 125q5 25 1.5 44t-17.5 19l-102 -23q16 -14 15 -34.5t-5 -40.5
l-25 -96l-173 -9q-10 -4 -10 -12q-2 -7 2.5 -14.5t1.5 -25.5q-2 -11 -13.5 -27t-31.5 -30z" />
    <glyph glyph-name="FL1272h" unicode="&#x1272;" horiz-adv-x="567" 
d="M395 24q-1 -14 4 -21.5t13.5 -11t19 -4.5t19.5 -1l72 14q-32 14 -26 59q2 9 7 21.5t12 21.5l-69 -13q-20 -4 -34.5 -17.5t-17.5 -30.5v-2l-56 -11q-7 0 -10 6.5t-3 16.5q0 11 2 23.5t4 25.5q2 10 3.5 18t3.5 16l63 242l68 3q-6 -27 -3 -46.5t12 -32.5t21.5 -19t25.5 -6
q37 0 67 13q-20 14 -21 30.5t1 27.5q4 18 10 26.5t7 15.5q1 2 0 6.5t-6 4.5l-178 -9l33 125q5 25 1.5 44t-17.5 19l-102 -23q16 -14 15 -34.5t-5 -40.5l-25 -96l-173 -9q-10 -4 -10 -12q-2 -7 2.5 -14.5t1.5 -25.5q-2 -11 -13.5 -27t-31.5 -30q8 -4 24 -7.5t33 -3.5
q38 0 63 29t36 83l64 3l-67 -259l-2 -9q-5 -24 -7.5 -41t-0.5 -28.5t9.5 -19t21.5 -13.5z" />
    <glyph glyph-name="FL1273h" unicode="&#x1273;" horiz-adv-x="611" 
d="M67 75q-2 -7 2.5 -14.5t1.5 -25.5q-2 -11 -13.5 -27t-31.5 -30q8 -4 24 -7.5t33 -3.5q38 0 63 29t36 83q60 0 100.5 13t67.5 38t42.5 60t25.5 79l28 107l68 3q-6 -27 -3 -46.5t12 -32.5t21.5 -19t25.5 -6q37 0 67 13q-20 14 -21 30.5t1 27.5q4 18 10 26.5t7 15.5
q1 2 0 6.5t-6 4.5l-178 -9l33 125q5 25 1.5 44t-17.5 19l-102 -23q16 -14 15 -34.5t-5 -40.5l-25 -96l-173 -9q-10 -4 -10 -12q-2 -7 2.5 -14.5t1.5 -25.5q-2 -11 -13.5 -27t-31.5 -30q8 -4 24 -7.5t33 -3.5q38 0 63 29t36 83l64 3l-25 -100q-12 -51 -25.5 -84.5
t-29.5 -53.5t-35 -29t-41 -10l-113 -6q-10 -4 -10 -12z" />
    <glyph glyph-name="FL1274h" unicode="&#x1274;" horiz-adv-x="567" 
d="M82 266q8 -4 24 -7.5t33 -3.5q38 0 63 29t36 83l64 3l-67 -257q-5 -28 -8 -47t-1.5 -31.5t9 -20.5t22.5 -14q15 2 35.5 5.5t31.5 3.5q13 -1 29 -3t36 -2h14q38 0 72.5 25t44.5 73q10 51 -12 73t-67 22q-23 -2 -46.5 -4t-39.5 -4l47 187l68 3q-6 -27 -3 -46.5t12 -32.5
t21.5 -19t25.5 -6q37 0 67 13q-20 14 -21 30.5t1 27.5q4 18 10 26.5t7 15.5q1 2 0 6.5t-6 4.5l-178 -9l33 125q5 25 1.5 44t-17.5 19l-102 -23q16 -14 15 -34.5t-5 -40.5l-25 -96l-173 -9q-10 -4 -10 -12q-2 -7 2.5 -14.5t1.5 -25.5q-2 -11 -13.5 -27t-31.5 -30zM378 177h7
q16 0 29.5 -17t5.5 -58q-10 -51 -29 -66t-43 -15q-20 0 -20 29q0 30 9 70l14 54q10 1 15 2t12 1z" />
    <glyph glyph-name="FL1275h" unicode="&#x1275;" horiz-adv-x="567" 
d="M406 390l29 107q5 16 -2 28.5t-29 12.5l-114 -6q5 23 1.5 41t-12 30t-21.5 17.5t-26 3.5l-71 -11q15 -8 22.5 -19t4.5 -28q-3 -14 -13 -30t-27 -25q51 3 82 4.5t48.5 2.5t24.5 1h9q9 0 13.5 -4t6 -10t0.5 -12.5t-2 -11.5q0 -3 -24 -97l-173 -9q-10 -4 -10 -12
q-2 -7 2.5 -14.5t1.5 -25.5q-2 -11 -13.5 -27t-31.5 -30q8 -4 24 -7.5t33 -3.5q38 0 63 29t36 83l64 3l-67 -259q-6 -28 -9 -46.5t-1 -31t9.5 -20t21.5 -13.5l102 17q-25 16 -25.5 47t6.5 70l63 242l68 3q-6 -27 -3 -46.5t12 -32.5t21.5 -19t25.5 -6q37 0 67 13
q-20 14 -21 30.5t1 27.5q4 18 10 26.5t7 15.5q1 2 0 6.5t-6 4.5z" />
    <glyph glyph-name="FL1276h" unicode="&#x1276;" horiz-adv-x="567" 
d="M413 396q2 11 7.5 18t17.5 13q-2 2 14.5 3.5t38.5 10t43.5 28.5t29.5 60q4 24 -4.5 37.5t-27.5 20.5t-45.5 8.5t-58.5 1.5q-27 0 -56 -9t-53.5 -23t-42 -32.5t-21.5 -37.5q-6 -34 2.5 -47.5t24.5 -21.5q12 -8 18.5 -21.5t4.5 -38.5l-9 -33l-173 -9q-10 -4 -10 -12
q-2 -7 2.5 -14.5t1.5 -25.5q-2 -11 -13 -27t-32 -30q8 -4 24 -7.5t33 -3.5q38 0 63 29t36 83l64 3l-56 -208q-6 -28 -9 -46.5t-1 -31t9.5 -20t21.5 -13.5l102 17q-25 16 -25.5 47t6.5 70l52 191l68 3q-5 -27 -2 -46.5t11.5 -32.5t21 -19t26.5 -6q36 0 66 13q-20 14 -21 30.5
t1 27.5q4 18 10 26.5t8 15.5q0 2 -1 6.5t-6 4.5l-178 -9zM390 434q-26 8 -32.5 22.5t-0.5 49.5q7 34 24.5 56.5t44.5 22.5t33.5 -22.5t1.5 -49.5q-8 -42 -25 -60.5t-46 -18.5z" />
    <glyph glyph-name="t8" unicode="&#x1277;" horiz-adv-x="567" 
d="M28 -65q9 -4 24 -7.5t32 -3.5q38 0 63.5 29t36.5 83l189 7q-5 -27 -2 -46.5t11.5 -32.5t21 -19t26.5 -6q37 0 67 13q-21 14 -21.5 30.5t1.5 27.5q3 18 9.5 26.5t7.5 15.5q0 2 -1 6.5t-6 4.5l-163 -4l78 317l68 3q-6 -27 -3 -46.5t12 -32.5t21.5 -19t25.5 -6q37 0 67 13
q-20 14 -21 30.5t1 27.5q4 18 10 26.5t7 15.5q1 2 0 6.5t-6 4.5l-178 -9l33 125q5 25 1.5 44t-17.5 19l-102 -23q16 -14 15 -34.5t-5 -40.5l-25 -96l-173 -9q-10 -4 -10 -12q-2 -7 2.5 -14.5t1.5 -25.5q-2 -11 -13.5 -27t-31.5 -30q8 -4 24 -7.5t33 -3.5q38 0 63 29t36 83
l64 3l-78 -317l-145 -9q-6 -2 -8 -5.5t-3 -6.5q-1 -7 3.5 -14.5t0.5 -25.5q-2 -11 -12.5 -27t-31.5 -30z" />
    <glyph glyph-name="FL1278h" unicode="&#x1278;" horiz-adv-x="569" 
d="M77 242q8 -4 24 -7.5t33 -3.5q38 0 63 29t37 83l62 3l-62 -235l-2 -9q-5 -24 -7.5 -41t-0.5 -28.5t9.5 -19t21.5 -13.5l102 17q-25 16 -24 47t9 70l55 217l70 4q-5 -27 -2 -46.5t11.5 -32.5t21 -19t26.5 -6q36 0 66 13q-20 14 -21 30.5t2 27.5q3 18 9 26.5t8 15.5
q0 2 -1 6.5t-6 4.5l-180 -10l39 152l50 3q3 -27 24.5 -35.5t43.5 -8.5l71 7q-16 13 -18 34t1 47q5 22 17 34l-77 -4q-20 -1 -39 -18t-26 -41l-206 -13q3 28 -8 41.5t-40 13.5h-11l-66 -8q7 -5 10 -15t-1 -29q-4 -20 -16 -39t-29 -33l65 3q12 0 25.5 2.5t26.5 8.5t23.5 16
t15.5 25l64 3l-40 -151l-172 -9q-10 -4 -10 -12q-1 -7 3.5 -14.5t0.5 -25.5q-2 -11 -13 -27t-32 -30z" />
    <glyph glyph-name="FL1279h" unicode="&#x1279;" horiz-adv-x="569" 
d="M414 152q-1 -14 4 -21.5t13.5 -12t19 -5.5t19.5 -1l70 7q-32 14 -25 59q1 9 6 21.5t12 21.5l-67 -6q-21 -4 -35 -17.5t-18 -30.5v-2l-64 -4l48 190l70 4q-5 -27 -2 -46.5t11.5 -32.5t21 -19t26.5 -6q36 0 66 13q-20 14 -21 30.5t2 27.5q3 18 9 26.5t8 15.5q0 2 -1 6.5
t-6 4.5l-180 -10l39 152l50 3q3 -27 24.5 -35.5t43.5 -8.5l71 7q-16 13 -18 34t1 47q5 22 17 34l-77 -4q-20 -1 -39 -18t-26 -41l-206 -13q3 28 -8 41.5t-40 13.5h-11l-66 -8q7 -5 10 -15t-1 -29q-4 -20 -16 -39t-29 -33l65 3q12 0 25.5 2.5t26.5 8.5t23.5 16t15.5 25l64 3
l-40 -151l-172 -9q-10 -4 -10 -12q-1 -7 3.5 -14.5t0.5 -25.5q-2 -11 -13 -27t-32 -30q8 -4 24 -7.5t33 -3.5q38 0 63 29t37 83l62 3l-62 -235l-2 -9q-5 -24 -7.5 -41t-0.5 -28.5t9.5 -19t21.5 -13.5l102 17q-25 16 -24 47t9 70l3 12z" />
    <glyph glyph-name="FL127Ah" unicode="&#x127a;" horiz-adv-x="569" 
d="M394 24q-1 -14 4 -21.5t13.5 -11t19 -4.5t19.5 -1l72 14q-32 14 -26 59q2 9 7 21.5t12 21.5l-69 -13q-20 -4 -34.5 -17.5t-17.5 -30.5v-2l-53 -11q-16 1 -12.5 29.5t13.5 76.5l55 217l70 4q-5 -27 -2 -46.5t11.5 -32.5t21 -19t26.5 -6q36 0 66 13q-20 14 -21 30.5t2 27.5
q3 18 9 26.5t8 15.5q0 2 -1 6.5t-6 4.5l-180 -10l39 152l50 3q3 -27 24.5 -35.5t43.5 -8.5l71 7q-16 13 -18 34t1 47q5 22 17 34l-77 -4q-20 -1 -39 -18t-26 -41l-206 -13q3 28 -8 41.5t-40 13.5h-11l-66 -8q7 -5 10 -15t-1 -29q-4 -20 -16 -39t-29 -33l65 3q12 0 25.5 2.5
t26.5 8.5t23.5 16t15.5 25l64 3l-40 -151l-172 -9q-10 -4 -10 -12q-1 -7 3.5 -14.5t0.5 -25.5q-2 -11 -13 -27t-32 -30q8 -4 24 -7.5t33 -3.5q38 0 63 29t37 83l62 3l-62 -235l-2 -9q-5 -24 -7.5 -41t-0.5 -28.5t9.5 -19t21.5 -13.5z" />
    <glyph glyph-name="FL127Bh" unicode="&#x127b;" horiz-adv-x="611" 
d="M162 454l65 3q12 0 25.5 2.5t26.5 8.5t23.5 16t15.5 25l59 3l-32 -154l-173 -9q-10 -4 -10 -12q-2 -7 2.5 -14.5t1.5 -25.5q-2 -11 -13.5 -27t-31.5 -30q8 -4 24 -7.5t33 -3.5q38 0 63 29t36 83l64 3l-24 -100q-12 -51 -26 -84.5t-30.5 -53.5t-35 -29t-40.5 -10l-113 -6
q-10 -4 -10 -12q-2 -7 2.5 -14.5t1.5 -25.5q-2 -11 -13.5 -27t-31.5 -30q8 -4 24 -7.5t33 -3.5q38 0 63 29t36 83q59 0 100 13t68 38t43 60t26 79l27 107l68 3q-6 -27 -3 -46.5t12 -32.5t21.5 -19t25.5 -6q37 0 67 13q-20 14 -21 30.5t1 27.5q4 18 10 26.5t7 15.5q1 2 0 6.5
t-6 4.5l-179 -9l31 153l56 3q3 -27 24.5 -35.5t43.5 -8.5l71 7q-16 13 -18 34t1 47q5 22 17 34l-77 -4q-20 -1 -39 -18t-26 -41l-204 -12q2 28 -9 41.5t-40 13.5h-11l-66 -8q7 -5 10 -15t-1 -29q-4 -20 -16 -39t-29 -33z" />
    <glyph glyph-name="FL127Ch" unicode="&#x127c;" horiz-adv-x="569" 
d="M352 177l45 172l70 4q-6 -27 -3 -46.5t12 -32.5t21.5 -19t25.5 -6q37 0 67 13q-20 14 -21 30.5t1 27.5q4 18 10 26.5t7 15.5q1 2 0 6.5t-6 4.5l-180 -10l39 152l50 3q1 -14 7.5 -22.5t16 -13t21 -6.5t22.5 -2l71 7q-15 13 -17.5 34t0.5 47q5 21 18 34l-77 -4
q-20 -1 -39.5 -18t-25.5 -41l-206 -13q3 28 -8 41.5t-40 13.5h-11l-67 -8q7 -5 10 -15t0 -29q-4 -20 -16.5 -39t-28.5 -33l64 3q12 0 25.5 2.5t26.5 8t23.5 15.5t15.5 25l65 4l-40 -151l-172 -9q-10 -4 -10 -12q-2 -7 2.5 -14.5t1.5 -25.5q-2 -11 -13.5 -27t-31.5 -30
q8 -4 24 -7.5t33 -3.5q38 0 63 29t36 83l63 3l-63 -233q-6 -27 -9 -45.5t-0.5 -31t10.5 -20.5t23 -14q15 2 36 5.5t32 3.5q13 -1 29 -3t36 -2h14q37 0 66.5 21t39.5 74q10 51 -8 69.5t-63 18.5l-86 -8zM376 167h7q7 0 15.5 -2.5t14.5 -9.5t9 -19.5t-1 -33.5q-10 -51 -29 -66
t-43 -15q-18 0 -22 15.5t2 49.5l20 79q8 1 14 1.5t13 0.5z" />
    <glyph glyph-name="FL127Dh" unicode="&#x127d;" horiz-adv-x="650" 
d="M153 215q8 -4 24 -7.5t33 -3.5q38 0 63 29t36 83l63 3l-58 -211l-2 -9q-4 -25 -6.5 -41.5t-1 -28t8.5 -19t22 -13.5l103 17q-12 8 -17.5 20t-6.5 27t2 32.5t6 37.5l51 193l70 4q-5 -27 -2 -46.5t11.5 -32.5t21 -19t26.5 -6q36 0 66 13q-20 14 -21 30.5t1 27.5
q4 18 10 26.5t8 15.5q0 2 -1 6.5t-6 4.5l-180 -10l19 68q2 11 -4 24t-28 13q-11 0 -12 -1l-56 -8l16 82l90 5q1 -16 10.5 -24.5t22 -12.5t26.5 -4.5t25 -0.5l57 7q-15 13 -17.5 33.5t-0.5 40.5l1 6q5 22 18 35l-79 -5q-24 -2 -41 -15.5t-25 -43.5l-220 -13l1 7q4 22 -2 37.5
t-17 24.5t-25.5 12t-27.5 1l-62 -11q15 -8 20.5 -23t2.5 -31q-4 -25 -29 -40l171 10l-19 -99l62 9q5 1 9.5 1.5t8.5 0.5q27 0 19 -38l-15 -52l-172 -9q-10 -4 -10 -12q-2 -7 2.5 -14.5t1.5 -25.5q-2 -11 -13 -27t-32 -30z" />
    <glyph glyph-name="FL127Eh" unicode="&#x127e;" horiz-adv-x="594" 
d="M94 202q8 -4 24 -7.5t33 -3.5q38 0 63 29t37 83l62 3l-50 -195l-2 -9q-5 -24 -7.5 -41t-0.5 -28.5t9.5 -19t21.5 -13.5l102 17q-25 16 -24 47t9 70l43 177l70 4q-5 -27 -2 -46.5t11.5 -32.5t21 -19t26.5 -6q37 0 67 13q-21 14 -21.5 30.5t1.5 27.5q3 18 9.5 26.5
t7.5 15.5q0 2 -1 6.5t-6 4.5l-180 -10l10 37q5 11 6.5 17.5t18.5 11.5q8 0 25.5 3.5t36.5 14.5t35.5 31.5t22.5 53.5q4 17 4 27t-3 16t-9.5 10.5t-16.5 10.5q42 6 66 14.5t37 18t17.5 20.5t6.5 23q2 11 2.5 24.5t-3.5 24.5l-108 -16q9 -6 12.5 -15t-0.5 -28q-1 -8 -4 -17
t-8.5 -17.5t-12.5 -14t-15 -5.5l-242 -14q4 19 3.5 36.5t-7 30.5t-19.5 20.5t-35 5.5l-13 -1l-71 -12q14 -8 25.5 -18.5t7.5 -30.5q-3 -15 -9.5 -29t-20.5 -28l182 13q-18 -13 -38 -34t-25 -48q-9 -31 -4 -45t15.5 -21.5t22 -15.5t15.5 -27l-8 -32l-172 -9q-5 -2 -7 -5.5
t-3 -6.5q-1 -7 3.5 -14.5t0.5 -25.5q-2 -11 -13 -27t-32 -30zM403 386q-26 9 -34 28t-1 56q7 34 26.5 56.5t46.5 22.5t36.5 -19.5t4.5 -46.5q-8 -42 -29 -69.5t-50 -27.5z" />
    <glyph glyph-name="ch8" unicode="&#x127f;" horiz-adv-x="571" 
d="M23 -67q8 -4 24 -7.5t33 -3.5q38 0 63 29t37 83l228 12q-5 -27 -2 -46.5t11.5 -32.5t21 -19t26.5 -6q36 0 66 13q-20 14 -21 30.5t2 27.5q3 18 9 26.5t8 15.5q0 2 -1 6.5t-6 4.5l-172 -10q-8 9 -9.5 21t0.5 26.5t6.5 31t7.5 35.5l44 181l70 4q-5 -27 -2 -46.5t11.5 -32.5
t21 -19t26.5 -6q36 0 66 13q-20 14 -21 30.5t2 27.5q3 18 9 26.5t8 15.5q0 2 -1 6.5t-6 4.5l-180 -10l39 152l50 3q3 -27 24.5 -35.5t43.5 -8.5l71 7q-16 13 -18 34t1 47q5 22 17 34l-77 -4q-20 -1 -39 -18t-26 -41l-206 -13q3 28 -8 41.5t-40 13.5h-11l-66 -8q7 -5 10 -15
t-1 -29q-4 -20 -16 -39t-29 -33l65 3q12 0 25.5 2.5t26.5 8.5t23.5 16t15.5 25l64 3l-40 -151l-172 -9q-10 -4 -10 -12q-1 -7 3.5 -14.5t0.5 -25.5q-2 -11 -14 -27t-33 -30q8 -4 25 -7.5t34 -3.5q38 0 63 29t37 83l62 3l-51 -199q-5 -24 -7.5 -40t-2.5 -27q0 -10 1.5 -16.5
t5.5 -12.5l-170 -9q-10 -4 -10 -12q-2 -7 3 -14.5t1 -25.5q-2 -11 -13 -27t-32 -30z" />
    <glyph glyph-name="hhh1" unicode="&#x1280;" horiz-adv-x="495" 
d="M539 383q0 -4 -1.5 -7t-2.5 -8l-103 -262q-7 -13 -10 -30q-3 -15 2.5 -26.5t23.5 -23.5l-101 -25q-17 0 -24.5 19.5t-2.5 48.5q2 10 4.5 18t6.5 14l117 298l-149 -19l21 56l-75 -10q-10 -52 -33.5 -74t-68.5 -29q-14 0 -26 3.5t-22 8.5q21 19 30.5 33t11.5 24q3 12 -3 22
v7q1 4 11 4l179 24l21 69q5 28 -20 35l104 21q16 -9 20.5 -21.5t0.5 -31.5q-1 -6 -3.5 -15t-6.5 -21l-30 -81l90 13q5 0 6 1h6q15 0 23 -8.5t4 -26.5z" />
    <glyph glyph-name="hhh2" unicode="&#x1281;" horiz-adv-x="673" 
d="M689 236q-13 -12 -35 -19.5t-43 -9.5q-29 0 -46.5 24t-20.5 58l-48 -12l-67 -174q-7 -13 -10 -30q-3 -15 3 -26.5t23 -23.5l-100 -25q-17 0 -25 19.5t-2 48.5q5 22 10 32l117 299l-148 -20l20 57l-68 -10l-1 -8q-1 -6 0 -7l-2 -8q-7 -38 -34 -60.5t-72 -31.5
q-29 0 -47 15q21 20 30.5 35.5t11.5 26.5q2 12 -1 23q-1 4 -1 7q2 5 10 6l179 26l17 58l2 6l1 5q6 28 -19 35l103 21q17 -9 21.5 -21.5t0.5 -31.5q-1 -6 -3.5 -15t-6.5 -21l-31 -81l91 13q5 0 6 1h6q15 0 23 -8.5t4 -26.5q-1 -4 -2.5 -7t-2.5 -8l-29 -73l139 34q10 -4 11 -7
t-1 -11v-2q-1 -5 -2 -14t1.5 -19.5t11 -21t26.5 -17.5z" />
    <glyph glyph-name="hhh3" unicode="&#x1282;" horiz-adv-x="661" 
d="M540 -10q-19 0 -34.5 8t-14.5 35l-130 -32q-17 0 -24.5 19.5t-2.5 48.5q2 10 4.5 18t6.5 14l116 294l-148 -13l21 55l-81 -11q-10 -51 -34.5 -73t-72.5 -29q-29 0 -51 12q22 18 32 32.5t12 23.5q3 12 -3 22q-2 5 -1 7q0 2 12 5l191 23l21 69q5 28 -20 35l104 21
q16 -9 20.5 -21.5t0.5 -31.5q-1 -6 -3.5 -15t-6.5 -21l-30 -81l90 13q5 0 6 1h6q15 0 23 -8.5t4 -26.5q0 -4 -1.5 -7t-2.5 -8l-104 -262q-10 -25 -12 -38q-4 -24 9 -31l49 11l1 2q3 17 18.5 32.5t34.5 18.5l81 13q-7 -9 -12 -23t-7 -23q-6 -49 25 -63z" />
    <glyph glyph-name="hhh4" unicode="&#x1283;" horiz-adv-x="585" 
d="M587 240q-24 -75 -127 -127q-97 -52 -250 -52q-41 -125 -130 -125q-36 0 -59 17q40 34 46 60q1 6 -3 30q-1 8 -1.5 11.5t-0.5 2.5q1 6 15 8l154 10q28 2 66.5 11t76 26.5t68 44.5t42.5 65l49 172l-149 -17l22 58l-75 -12q-10 -54 -34 -79t-67 -32q-28 0 -47 14
q20 20 29.5 35t11.5 25q1 6 1 11q0 6 -2 13q-1 4 -1 7q2 3 10 6l178 25l20 69q6 28 -19 35l103 21q17 -8 21.5 -20.5t0.5 -32.5q-1 -6 -3.5 -15t-6.5 -21l-31 -81l91 13q4 0 7 1t6 1q37 0 28 -50z" />
    <glyph glyph-name="hhh5" unicode="&#x1284;" horiz-adv-x="642" 
d="M471 172q-28 -73 -34 -106q-11 -54 19 -54q28 0 46 18t28 64q8 39 -2.5 57.5t-29.5 20.5h-27zM630 91q-9 -46 -44.5 -70.5t-81.5 -24.5q-11 0 -25 1.5t-31 3.5l-12 1.5l-4 0.5q-8 0 -33 -3l-34 -4q-42 20 -32 69q3 18 14 42l114 287l-149 -19l21 58l-81 -11
q-11 -57 -36 -81t-72 -31q-15 0 -28.5 3t-22.5 11q22 20 32.5 35.5t12.5 26.5q2 13 -2 22q-1 3 -1.5 5l-0.5 2q0 4 12 6l192 26l20 69q6 28 -19 35l103 21q29 -17 22 -53q-1 -6 -3.5 -15t-6.5 -21l-31 -81l91 13q5 0 6 1h6q15 0 23 -8.5t4 -26.5q-1 -4 -2.5 -7t-2.5 -8
l-70 -182q11 2 20.5 3t17.5 2h39q45 -1 65 -24t10 -74z" />
    <glyph glyph-name="hhh6" unicode="&#x1285;" horiz-adv-x="499" 
d="M544 385q-1 -4 -2.5 -7t-2.5 -8l-103 -264q-7 -13 -10 -30q-3 -15 2.5 -26.5t23.5 -23.5l-101 -25q-17 0 -24.5 19.5t-2.5 48.5q2 10 4.5 18t6.5 14l116 296l-150 -23l25 74q-28 0 -59.5 -19.5t-49.5 -48.5l-5 -9q-19 -29 -20 -41q-3 -18 10 -28l-104 -14q-9 16 -6 32
q3 13 9 27l2 5q19 38 76.5 69t150.5 39l19 60q5 28 -19 35l103 21q16 -9 20.5 -21.5t1.5 -31.5q-2 -6 -4 -15t-6 -21l-31 -81l90 13q6 0 7 1h6q15 0 22.5 -8.5t4.5 -26.5z" />
    <glyph glyph-name="hhh7" unicode="&#x1286;" horiz-adv-x="785" 
d="M699 421q20 2 34 27t21 63q2 10 3.5 25.5t0 29t-7.5 23.5t-18 10q-24 0 -37.5 -28t-24.5 -77q-1 -9 -1.5 -22t2 -24t9 -19t19.5 -8zM853 505q-11 -56 -37 -76t-62 -20q-6 0 -14.5 0.5t-19.5 1.5q-2 1 -8 1h-5h-8q-4 0 -10 -0.5t-15 -1.5q-15 -2 -25.5 -3t-18.5 -1
q-34 0 -52 17t-10 62q4 18 10 40t17 49q-45 0 -70.5 -10.5t-43.5 -32.5q-17 -21 -32 -62.5t-30 -118.5q-2 -8 -1.5 -19.5t5 -21.5t14 -17t26.5 -7q5 0 6 1h5l137 18q19 0 29 -5.5t5 -28.5l-61 -214q-6 -25 15 -38l-97 -23q-18 2 -22.5 10.5t-1.5 23.5l59 208q3 17 -7 27.5
t-34 10.5q-14 0 -32 -3l-104 -19q-18 0 -28 7.5t-13.5 20.5t-2.5 28.5t4 32.5l15 76l-63 -7q-14 -52 -52 -83t-83 -31q-31 0 -47 13q21 20 30.5 36t12.5 27q1 13 -3 27q-2 8 -2 7q1 4 11 5l203 23q11 30 31.5 56t47.5 46t58.5 32t64.5 13q-3 0 -3 1q1 1 14 1.5t33 1.5h4h5
q7 0 9 1q6 1 14.5 2.5t19.5 5.5q7 2 11.5 3t8.5 2q1 1 5 1q7 0 8 1q16 4 29.5 5.5t30.5 1.5q45 0 78.5 -9.5t41.5 -38.5q8 -20 0 -56z" />
    <glyph glyph-name="hhhx1" unicode="&#x1288;" horiz-adv-x="856" 
d="M775 259q5 37 -2 55t-30 18q-24 0 -34 -14.5t-16 -44.5q-2 -11 -3.5 -27.5t0 -31.5t8.5 -26t23 -11q25 0 35.5 19.5t18.5 62.5zM878 267q-12 -62 -39.5 -85t-69.5 -23q-9 0 -21.5 1t-28.5 3q-50 -11 -68 -11q-42 0 -53.5 35.5t6.5 124.5l-71 -7l-77 -199q-7 -13 -10 -30
q-3 -15 2.5 -26.5t23.5 -23.5l-101 -25q-17 0 -24.5 19.5t-2.5 48.5q2 10 4.5 18t6.5 14l117 302l-150 -21l23 60l-84 -12q-12 -60 -39 -87.5t-76 -35.5q-32 0 -53 15q23 22 33.5 39t13.5 28q1 12 -3 25q-1 4 -1 8q1 4 12 6l202 28l20 69q5 28 -19 35l103 21
q16 -9 20.5 -21.5t1.5 -31.5q-2 -6 -4 -15t-6 -21l-31 -81l90 13q6 0 7 1h6q15 0 22.5 -8.5t4.5 -26.5q-1 -4 -2.5 -7t-2.5 -8l-20 -53l77 9q12 2 32 5t47 7q11 2 21.5 3t19.5 3q3 0 27 3q37 3 53 3q37 0 52 -18.5t9 -69.5z" />
    <glyph glyph-name="FL128A" unicode="&#x128a;" horiz-adv-x="906" 
d="M905 150q-45 -14 -72 -14q-63 1 -85 34t-13 84l-159 -10l25 55l-72 -4l-73 -189q-7 -13 -10 -30q-3 -15 2.5 -26.5t23.5 -23.5l-101 -25q-17 0 -24.5 19.5t-2.5 48.5q2 10 4.5 18t6.5 14l117 302l-150 -20l23 59l-84 -12q-12 -60 -39 -87.5t-76 -35.5q-32 0 -53 15
q22 22 33 39t14 28q1 12 -3 25q-1 4 -1 8q1 4 12 6l202 28l20 69q5 28 -19 35l103 21q16 -9 20.5 -21.5t1.5 -31.5q-2 -6 -4 -15t-6 -21l-31 -81l90 13q6 0 7 1h6q15 0 22.5 -8.5t4.5 -26.5q-1 -4 -2.5 -7t-2.5 -8l-25 -66l74 4l13 34q5 22 2.5 38.5t-12.5 22.5l99 21
q7 -2 12.5 -9.5t8 -17t2 -19.5t-3.5 -16l-43 -103l202 14q11 -4 10 -14l-2 -4.5t-6 -12.5q-10 -20 -11 -28q-3 -14 2.5 -31t22.5 -38z" />
    <glyph glyph-name="FL128Bh" unicode="&#x128b;" horiz-adv-x="659" 
d="M502 -110q-19 4 -25 19t-2 35l21 83q18 90 -57 90q-21 0 -49 -6l-54 -17q-21 -68 -59.5 -96t-92.5 -31q-42 0 -64 13q29 22 42 40t16 32q2 5 0 23q-2 9 -1 11q1 7 15 12q47 0 80 4.5t71 12.5l8 1q14 2 21.5 10.5t14.5 30.5l86 247l-151 -22l23 63l-84 -12
q-11 -60 -38.5 -88.5t-76.5 -36.5q-32 0 -53 15q23 22 34 39t13 28q2 14 -2 25l-2 8q1 4 12 6l202 28l20 69q5 28 -19 35l103 21q29 -17 22 -53q-2 -6 -4 -15t-6 -21l-31 -81l91 13q5 0 6 1h6q15 0 23 -8.5t4 -26.5q-1 -4 -2.5 -7t-2.5 -8l-85 -242q48 -1 75 -6.5t40 -16.5
q20 -17 12 -62l-19 -75q-4 -22 1.5 -38.5t26.5 -28.5z" />
    <glyph glyph-name="FL128Ch" unicode="&#x128c;" horiz-adv-x="670" 
d="M567 139q6 30 -4.5 44.5t-26.5 16.5q-10 0 -16 -0.5t-22 -3.5h-2q-4 -11 -6.5 -19t-4.5 -13q-11 -32 -18 -51.5t-8 -26.5q-7 -40 24 -43q27 0 46.5 16.5t33.5 64.5q2 7 3 8zM663 124q-14 -48 -50.5 -73t-81.5 -25q-10 1 -16.5 1.5t-13.5 0.5l-4 1h-14q-10 2 -24 3t-32 2
h-18q-14 1 -27 1.5t-24 0.5l-47 -13q-9 -44 -28.5 -71.5t-44 -44t-53 -22.5t-55.5 -6q-32 0 -63 14q29 22 42.5 40.5t15.5 32.5q2 5 0 23q-2 9 -1 10q1 7 15 12l156 25q14 2 25.5 8t23 21.5t23.5 42t27 69.5l78 226l-150 -21l23 62l-84 -12q-12 -60 -39 -88t-76 -36
q-32 0 -53 15q23 22 34 39t13 28q2 14 -2 25l-2 8q1 4 12 6l202 28l20 69q5 28 -19 35l103 21q29 -17 22 -53q-2 -6 -4 -15t-6 -21l-31 -81l91 13q5 0 6 1h6q15 0 23 -8.5t4 -26.5l-62 -176q13 0 30 1t40 3l21 1q42 -2 61.5 -20.5t11.5 -60.5l-2 -7z" />
    <glyph glyph-name="FL128Dh" unicode="&#x128d;" horiz-adv-x="878" 
d="M883 178q-22 -15 -47 -23.5t-51 -8.5q-42 0 -62 34.5t-16 98.5l-189 -12l-62 -161q-7 -13 -10 -30q-3 -15 2.5 -26.5t23.5 -23.5l-101 -25q-17 0 -24.5 19.5t-2.5 48.5q2 10 4.5 18t6.5 14l117 301l-150 -21l23 61l-84 -12q-12 -60 -39 -87.5t-76 -35.5q-32 0 -53 15
q23 22 33.5 39t13.5 28q1 12 -3 25q-1 4 -1 8q1 4 12 6l202 28l20 69q5 28 -19 35l103 21q16 -9 20.5 -21.5t1.5 -31.5q-2 -6 -4 -15t-6 -21l-31 -81l90 13q6 0 7 1h6q15 0 22.5 -8.5t4.5 -26.5l-40 -105l85 6q7 24 12 38.5t8 23t4 12t1 6.5q5 24 -18 41l120 24q21 0 17 -27
l-35 -106q-2 -9 8.5 -13t54.5 -4h75q13 0 11 -8q-1 -7 -7 -16q-11 -20 -12 -30q-2 -13 6.5 -29.5t27.5 -24.5z" />
    <glyph glyph-name="FL1290h" unicode="&#x1290;" horiz-adv-x="328" 
d="M370 372q-1 -2 -2 -5.5t-3 -8.5l-175 -284l-4 -10t-3 -12t-0.5 -16t5.5 -21l-75 -15q-15 2 -25 12t-7 26q2 9 8 22t19 35l155 253q5 6 7 13q1 5 -5.5 7t-23.5 2l-110 -8q-20 11 -16 32l31 79l3 14q3 17 2 33.5t-14 29.5l102 23q14 0 17 -19t-2 -44l-36 -104
q-2 -11 1 -18.5t11 -7.5l103 7q20 0 29.5 -2t7.5 -13z" />
    <glyph glyph-name="FL1291h" unicode="&#x1291;" horiz-adv-x="508" 
d="M519 209q-17 -11 -40 -20t-43 -9q-12 0 -24 4.5t-21 14t-13.5 25.5t-2.5 40l-76 -21l-109 -169l-4 -10t-3 -12t-0.5 -16t5.5 -21l-75 -15q-15 2 -25 12t-7 26q2 9 8 22t19 35l155 253q3 4 5 12q3 15 -17 15h-6l-114 -13q-20 11 -16 32l31 79l3 14q3 17 2 33.5t-14 29.5
l102 23q14 0 17 -19t-2 -44l-36 -104q-4 -22 11 -22l114 11q30 0 26 -24q-1 -2 -1.5 -5.5t-2.5 -7.5l-58 -99l179 50q9 -5 8 -9q0 -3 -2.5 -7t-3.5 -10l-2 -8q-1 -17 5.5 -31t27.5 -35z" />
    <glyph glyph-name="FL1292h" unicode="&#x1292;" horiz-adv-x="429" 
d="M399 -2l-92 -15q-19 0 -34.5 8t-14.5 35l-147 -26q-14 2 -23.5 12t-5.5 27q1 9 7 22t19 36l155 251q3 4 5 12q3 14 -17 14h-7l-113 -12q-20 11 -16 32l31 79l3 14q3 17 2 33.5t-14 29.5l102 23q14 0 17 -19t-2 -44l-36 -104q-4 -22 11 -22l111 11q33 0 29 -24
q-1 -2 -1.5 -5.5t-2.5 -7.5l-180 -283q-5 -8 -6 -15q-5 -20 13 -30l66 11v2q4 17 19.5 32.5t33.5 18.5l82 13q-7 -9 -12 -23t-7 -23q-4 -23 3 -39.5t22 -23.5z" />
    <glyph glyph-name="FL1293h" unicode="&#x1293;" horiz-adv-x="496" 
d="M556 461q-20 -9 -43 -11t-41 -2q-35 0 -50 28.5t-10 76.5q-41 0 -74 -4t-59.5 -24.5t-46.5 -62t-35 -116.5q-5 -26 -5.5 -41.5t4 -24t15 -11.5t28.5 -3l144 17q13 0 23.5 -5t7.5 -20l-66 -219q-3 -11 0 -21t16 -18l-98 -23q-19 2 -23.5 11t-1.5 23q1 4 3.5 14.5t9.5 34
t19 63t32 101.5q2 13 -4 21t-31 8q-4 0 -24 -2.5t-43.5 -5t-45 -5t-28.5 -2.5q-17 0 -26.5 5.5t-13 15t-3 22t3.5 26.5l13 66q8 45 29 80.5t50.5 60t64.5 38.5t71 17q7 0 26 0.5t40 1.5t40 2.5t26 2.5h92q12 0 11 -9q-1 -6 -8 -17.5t-10 -25.5q-2 -6 -3 -15.5t0.5 -18.5
t7 -17t16.5 -12z" />
    <glyph glyph-name="FL1294h" unicode="&#x1294;" horiz-adv-x="407" 
d="M312 117q5 27 -2 40.5t-17 18.5q-1 1 -9 1h-18l-10 -2q-28 -48 -44 -77.5t-19 -46.5q-8 -35 33 -35q10 0 19.5 2t18.5 8.5t18 20t19 37.5q4 7 6.5 15t4.5 18zM397 102q-2 -7 -4 -13t-4 -13q-9 -27 -23 -42t-29 -22t-30 -8.5t-25 -1.5h-7q-17 0 -29 1.5t-23 3.5h-16
q-16 0 -36.5 -1t-51.5 -4q-31 5 -25 38q2 9 8 23t14 28l147 257q5 6 7 13q1 5 -5.5 7t-23.5 2l-110 -8q-20 11 -16 32l31 79l3 14q3 17 2 33.5t-14 29.5l102 23q14 0 17 -19t-2 -44l-36 -104q-2 -11 1 -18.5t11 -7.5l103 7q20 0 29.5 -2t7.5 -13q-1 -2 -2 -5.5t-3 -8.5
l-103 -172q18 1 39.5 1.5t34.5 0.5q38 -5 53 -28t8 -58z" />
    <glyph glyph-name="FL1295h" unicode="&#x1295;" horiz-adv-x="469" 
d="M511 369q-1 -7 -7 -16l-187 -279l-3 -7.5l-1 -2.5q-1 -8 2 -19t13 -27l-101 -18q-13 3 -19 15t-2 29q1 13 11 27l164 248q10 16 15.5 26t6.5 15q1 12 -11 12q-3 0 -6 -0.5t-8 -1.5l-75 -11q-11 0 -19 3t-5 17l58 120l3 6l1 2l1 8q3 15 -3 26t-21 11l-56 -10l-2 -10
q-7 -36 -27.5 -61.5t-55.5 -25.5q-39 0 -58 15q21 11 28 24.5t9 22.5q1 8 0 15t0 12q1 7 12 10l187 29q43 0 65 -7t16 -38q-2 -8 -4.5 -15.5t-5.5 -13.5l-49 -96q-3 -18 17 -18l72 11q1 1 12 1q37 0 33 -28z" />
    <glyph glyph-name="FL1296h" unicode="&#x1296;" horiz-adv-x="520" 
d="M501 480q2 8 3 22t-0.5 27.5t-7 23.5t-17.5 10q-13 0 -22.5 -8t-16.5 -21.5t-12.5 -31.5t-9.5 -37q-1 -8 -1.5 -19t2 -22t9.5 -18.5t20 -7.5q22 2 34.5 26t18.5 56zM583 478q-6 -30 -14.5 -48.5t-19 -28t-23 -13t-27.5 -3.5q-14 0 -26.5 1.5t-24.5 1.5q-11 0 -30 -3.5
t-38 -3.5q-29 0 -42.5 14t-5.5 60q3 14 9.5 39.5t18.5 54.5q-36 0 -62 -8.5t-44.5 -32t-32.5 -66t-27 -109.5q-8 -38 -1 -54t42 -17l150 18q6 0 12.5 -0.5t11.5 -3t7.5 -8t0.5 -14.5l-58 -207q-2 -12 1 -21.5t17 -17.5l-98 -23q-19 2 -23 11t-1 23l55 203q6 27 -40 27
l-143 -16q-17 0 -26 5t-12.5 14t-3.5 21t3 26l14 73q8 39 27.5 74t48 61t63.5 41t75 15q14 0 28.5 -1.5t26.5 -1.5q27 0 52 6.5t57 6.5q16 0 32.5 -1t30 -5.5t24 -13t15.5 -23.5q7 -19 1 -52z" />
    <glyph glyph-name="n8" unicode="&#x1297;" horiz-adv-x="604" 
d="M416 10h-180q-9 -29 -24.5 -49.5t-33 -33.5t-35 -19t-29.5 -6q-15 0 -36 1.5t-32 5.5q25 15 37 32t15 33q2 8 -1 18t-2 15t5 11.5t13 8.5h173l35 177q6 35 -43 35q-4 0 -9.5 -0.5t-20 -2t-41.5 -5.5t-73 -11q-37 0 -44.5 23.5t-0.5 61.5q5 23 9.5 42.5t10.5 38.5
q17 56 42 90t55 53t65 26t71 9q3 0 15.5 1t28 2t30 2t21.5 1h91q12 0 11 -7q-2 -10 -9.5 -24.5t-8.5 -20.5q-3 -15 0.5 -30t21.5 -25q-9 -10 -33.5 -14t-48.5 -4q-35 0 -48.5 29.5t-8.5 75.5q-46 0 -80 -6t-56 -27q-21 -21 -40 -69t-34 -124q-2 -8 -0.5 -20.5t7.5 -23.5
t17 -19t28 -8l149 19q19 0 29 -5.5t5 -28.5l-41 -210h158q12 0 10 -11q0 -2 -6.5 -13t-9.5 -23q-2 -14 1 -31t18 -25q-15 -8 -34 -11.5t-26 -3.5q-43 0 -62.5 25.5t-20.5 74.5z" />
    <glyph glyph-name="FL1298h" unicode="&#x1298;" horiz-adv-x="550" 
d="M548 505q-11 0 -22.5 2t-21 6.5t-16 13t-7.5 22.5l-51 -3l-44 -162q-4 -25 11 -25l106 16q40 -3 35 -26q-1 -5 -6 -13l-170 -266l-4 -10t-4 -12q-1 -7 -0.5 -16t5.5 -21l-75 -15q-14 2 -28.5 12t-10.5 26q1 9 7.5 22t19.5 35l151 234l8 14q1 5 -5.5 7t-23.5 2l-105 -20
q-13 0 -15.5 13t0.5 27q0 3 1 6q1 4 3 13.5t7.5 28.5t14 48.5t22.5 74.5l-51 -3q-5 -15 -15.5 -25t-23.5 -16t-26.5 -8.5t-25.5 -2.5l-65 -3q17 14 29.5 33t15.5 39q4 19 1 29t-10 15l67 8h11q29 0 39.5 -13.5t8.5 -41.5l193 14q6 24 25.5 41t39.5 18l77 4q-13 -13 -18 -34
q-3 -26 -0.5 -47t18.5 -34z" />
    <glyph glyph-name="FL1299h" unicode="&#x1299;" horiz-adv-x="668" 
d="M679 209q-16 -10 -38 -17t-42 -8q-20 1 -31.5 6.5t-18.5 16t-9.5 27t-4.5 40.5l-67 -14l-120 -186l-4 -10t-3 -12t-0.5 -16t5.5 -21l-75 -15q-15 2 -28 12t-10 26q2 9 8.5 22t18.5 35l151 234q7 13 8 14q1 5 -6 7t-24 2l-105 -20q-13 0 -15.5 13t-0.5 27l56 170l-44 -3
q-5 -15 -15.5 -25t-23.5 -16t-26.5 -8.5t-25.5 -2.5l-65 -3q17 14 29 33t16 39q4 19 1 29t-10 15l66 8h11q29 0 40 -13.5t8 -41.5l183 14q7 24 26 41t40 18l76 4q-12 -12 -17 -34q-3 -26 -0.5 -47t17.5 -34l-71 -7q-22 0 -43.5 8.5t-24.5 35.5l-46 -3l-53 -161
q-4 -25 12 -25l106 16q40 -3 35 -26q-1 -5 -6 -13l-43 -66l181 38q6 -5 5 -10l-7 -21l-1 -5q-3 -17 2 -30.5t23 -36.5z" />
    <glyph glyph-name="FL129Ah" unicode="&#x129a;" horiz-adv-x="571" 
d="M449 -18q-19 0 -34.5 8t-14.5 35l-136 -25q-16 0 -27 14.5t-7 35.5q1 7 5.5 16t8.5 15l160 244l8 14q1 5 -5.5 7t-23.5 2l-103 -18q-13 0 -15.5 12t0.5 26l52 173l-37 -2q-5 -15 -15.5 -25t-23.5 -16t-26.5 -8.5t-25.5 -2.5l-65 -3q17 14 29 33t16 39q4 19 1 29t-10 15
l66 8h11q29 0 40 -13.5t8 -41.5l183 14q7 24 26 41t40 18l76 4q-12 -12 -17 -34q-3 -26 -0.5 -47t17.5 -34l-71 -7q-22 0 -43.5 8.5t-24.5 35.5l-53 -4l-49 -164q-4 -25 11 -25l106 16q40 -3 35 -26q-1 -5 -6 -13l-177 -260q-3 -4 -6.5 -12.5t-4.5 -13.5q-3 -13 2.5 -18
t13.5 -5l57 13v2q3 17 18.5 32.5t34.5 18.5l82 13q-7 -9 -12.5 -23t-6.5 -23q-4 -23 3 -39.5t21 -23.5z" />
    <glyph glyph-name="FL129Bh" unicode="&#x129b;" horiz-adv-x="504" 
d="M462 599h-173q3 28 -9.5 39t-50.5 11l-61 -8q7 -5 10.5 -12.5t-0.5 -26.5q-4 -20 -15.5 -36.5t-28.5 -30.5l65 3q12 0 24.5 2t24.5 7t21.5 14t14.5 24h41l-22 -92q-43 -8 -77.5 -19.5t-60 -30.5t-42 -48t-24.5 -72l-9 -44q-2 -14 -2.5 -27t3 -22.5t12 -15t24.5 -5.5
q66 5 108.5 9t50.5 4q25 0 33.5 -11t5.5 -25q-17 -55 -26.5 -84.5t-14 -43.5t-6 -18t-2.5 -8q-3 -14 1.5 -23t23.5 -11l101 23q-13 8 -16.5 17.5t-0.5 21.5l54 160q4 21 -7.5 24.5t-25.5 3.5q-54 -5 -87.5 -7.5t-53 -4t-28 -2t-10.5 -0.5q-23 0 -31.5 15.5t-0.5 57.5
q12 61 24.5 96.5t35.5 53t61.5 22t103.5 4.5q-5 -24 -1 -41.5t13 -29.5t20.5 -18t21.5 -6q11 0 30.5 3t36.5 10q-12 7 -14.5 22.5t0.5 31.5q3 14 6 20t5 14q2 12 -11 13l-129 -5l22 87h144q9 7 10 14q1 4 -0.5 5t-3 2.5t-2.5 5t1 12.5q4 20 13 33t24 23q-19 13 -47 13
q-45 0 -66 -25.5t-31 -67.5z" />
    <glyph glyph-name="FL129Ch" unicode="&#x129c;" horiz-adv-x="559" 
d="M549 103q-2 -7 -4 -13t-4 -13q-8 -26 -21 -41t-27 -23t-28 -10.5t-24 -2.5q-13 0 -33 1.5t-31 1.5q-18 0 -50 -1.5t-61 -1.5q-16 0 -25.5 9.5t-6.5 25.5q2 9 8 22.5t19 34.5l138 234q8 14 8 15q1 5 -4 6.5t-22 1.5l-104 -20q-13 0 -15.5 13t0.5 27q1 9 3 11l58 163
l-43 -2q-5 -15 -15.5 -25t-23.5 -16t-26.5 -8.5t-25.5 -2.5l-65 -3q17 14 29.5 33t15.5 39q4 19 1 29t-10 15l67 8h11q29 0 39.5 -13.5t8.5 -41.5l184 11q7 24 26 41t39 18l77 4q-12 -12 -17 -34q-3 -26 -1 -47t18 -34l-71 -7q-22 0 -43.5 8.5t-24.5 35.5l-49 -3l-58 -163
q-4 -25 11 -25l106 16q16 0 26.5 -7.5t8.5 -18.5l-2 -6t-3 -7l-98 -150q19 1 39.5 1.5t33.5 0.5q39 0 53.5 -25.5t7.5 -60.5zM442 177q-1 1 -15 1h-16l-77 -136q-6 -31 43 -31q12 0 25.5 9.5t25.5 25t22 34.5t14 38q5 27 -3.5 40.5t-18.5 18.5z" />
    <glyph glyph-name="FL129Dh" unicode="&#x129d;" horiz-adv-x="523" 
d="M529 515q-11 0 -23 1.5t-22 6.5t-16.5 13.5t-6.5 22.5l-51 -4l-25 -69q32 -2 47 -10.5t10 -33.5q-3 -18 -10 -29l-45 -80q-5 -18 16 -18l56 11q2 1 16 1q17 0 24.5 -7.5t4.5 -19.5q-2 -10 -7 -16l-150 -217l-3 -7.5l-1 -2.5q-1 -8 1.5 -19t13.5 -27l-112 -18
q-14 3 -19.5 15t-2.5 29q3 12 11 27l129 186q10 16 15.5 26t6.5 15q2 11 -12 11q-12 0 -13 -1l-56 -12q-11 0 -19 3t-5 18l55 103q2 4 3 8l2 8q3 15 -2.5 26t-20.5 11l-49 -8l-2 -12q-7 -36 -27.5 -61.5t-55.5 -25.5q-39 0 -58 15q20 11 27 24.5t9 22.5q1 8 0 15t0 12
q1 7 12 10l110 17l25 77l-32 -2q-4 -10 -13 -17.5t-21 -12.5t-25 -7.5t-25 -2.5l-64 -3q16 11 26.5 22.5t13.5 28.5q8 39 -8 49l62 8h11q29 0 40 -12.5t8 -40.5l176 7q6 24 25 39.5t39 16.5l71 4q-6 -6 -10.5 -13t-6.5 -18q-3 -26 0 -44.5t18 -31.5z" />
    <glyph glyph-name="FL129Eh" unicode="&#x129e;" horiz-adv-x="560" 
d="M612 424q-5 -28 -14.5 -45t-21.5 -26t-25.5 -12t-26.5 -3q-11 0 -21.5 2.5t-23.5 2.5q-10 0 -25 -2.5t-32 -2.5q-18 0 -30 3t-18 13t-6.5 27.5t4.5 47.5q2 8 5.5 17t9.5 21q2 4 4 7t2 6q1 5 -1 10.5t-6 6.5q-47 0 -77 -9t-49.5 -32.5t-32 -63t-24.5 -100.5q-2 -8 -2 -16
t5 -15t16 -11.5t31 -4.5h8l140 18q7 0 15.5 -0.5t15 -3t10 -8.5t1.5 -16q-2 -8 -9.5 -34t-16 -56t-16 -55t-8.5 -30q-3 -12 0.5 -21.5t16.5 -17.5l-105 -23q-19 2 -23.5 11t-1.5 23q1 4 3 10.5t6.5 23.5t13 49t22.5 86q8 29 -40 29q-16 0 -35 -3l-103 -15q-5 -1 -8.5 -1.5
t-5.5 -0.5q-17 0 -24 10t-8.5 26t1.5 35.5t6 38.5q14 72 60 120.5t128 59.5l21 83l-34 -2q-10 -30 -35.5 -38.5t-49.5 -8.5l-65 -3q17 14 28.5 30.5t15.5 36.5q4 19 0.5 26.5t-10.5 12.5l66 8h11q29 0 38 -11.5t6 -39.5l181 7q6 24 25 38.5t39 15.5l72 4q-6 -6 -11.5 -18.5
t-7.5 -23.5q-3 -26 1 -38t20 -25l-72 -7q-23 0 -43.5 7t-22.5 34l-54 -4l-20 -77q4 -9 20 -9q12 0 19.5 2.5t16 5.5t22 5.5t37.5 2.5q36 0 59 -3.5t34.5 -13.5t13 -27.5t-4.5 -45.5zM480 349q19 2 30.5 26t16.5 54q3 13 4.5 27t0 25t-6.5 18.5t-15 7.5q-11 0 -19.5 -7.5
t-14.5 -18.5t-10.5 -25t-7.5 -27q-3 -15 -3.5 -29.5t1.5 -25.5t7.5 -18t16.5 -7z" />
    <glyph glyph-name="gn8" unicode="&#x129f;" horiz-adv-x="614" 
d="M559 -64q-23 -4 -37 -6t-19 -2t-10.5 0.5t-10.5 1.5q-31 7 -45 32t-15 73v2h-160q-8 -29 -20.5 -47t-28 -29t-34 -16.5t-38.5 -9.5q-5 0 -6 -1h-8q-14 0 -30 2.5t-23 5.5q25 15 36.5 32t14.5 33q1 1 -1 20q-2 9 -1 13q1 9 16 9h155l34 129q6 35 -43 35q-15 0 -31 -3
l-103 -16q-37 0 -46 16t-3 48l10 49q6 31 22 60t40.5 51.5t55.5 38.5t67 22l20 71h-35q-5 -15 -15.5 -25t-23.5 -16t-26.5 -8.5t-25.5 -2.5l-65 -3q17 14 29 33t16 39q4 19 1 29t-10 15l66 8h11q29 0 40 -13.5t9 -41.5l180 9q7 24 26.5 41t39.5 18l77 4q-13 -13 -18 -34
q-3 -26 -0.5 -47t17.5 -34l-71 -7q-22 0 -43.5 8.5t-24.5 35.5l-54 -2l-19 -69h128q14 -2 12 -11q-2 -6 -7 -16q-10 -19 -11 -29q-2 -8 -2 -13t2 -10.5t7.5 -13t14.5 -19.5q-41 -7 -84 -7q-27 0 -43 30.5t-13 73.5q-55 -2 -84 -10t-48 -26q-18 -16 -33 -49t-27 -96
q-2 -8 -1.5 -19t4.5 -21t13.5 -17t25.5 -7q5 0 6 1h6l138 18q19 0 28.5 -6t5.5 -29l-43 -162h158q11 -1 10 -14q-1 -1 -9 -20q-5 -6 -7 -16q-3 -14 3.5 -30.5t23.5 -29.5z" />
    <glyph glyph-name="FL12A0h" unicode="&#x12a0;" horiz-adv-x="576" 
d="M416 0q-14 16 -15.5 34.5t0.5 56.5l2 108q1 52 -3 81t-11 42.5t-16 16t-18 2.5h-9l-26 -5l-138 -214q-6 -8 -12.5 -20.5t-7.5 -20.5q-4 -19 1.5 -31t18.5 -24l-114 -26q-14 1 -23 11t-5 39v1q3 15 30 63.5t76 121.5l130 191l-98 -27q6 6 12.5 20.5t8.5 28.5q6 30 -3 57
t-28 35l108 31q5 1 8 1.5t2 0.5q12 0 16 -12.5t5 -27.5l-10 -90l123 23l-95 -117l134 17q55 0 55 -79l-1 -174q-3 -32 9.5 -55.5t28.5 -33.5z" />
    <glyph glyph-name="FL12A1h" unicode="&#x12a1;" horiz-adv-x="691" 
d="M706 230q-28 -25 -69 -29q-35 0 -55 21t-22 54l-51 -17v-145q-3 -32 9.5 -55.5t28.5 -33.5l-131 -25q-14 16 -17.5 34.5t-1.5 56.5l2 108q1 52 -3 81t-11 42.5t-16 16t-18 2.5h-9l-26 -5l-133 -217q-5 -8 -11.5 -19t-7.5 -19q-4 -19 0.5 -31t17.5 -24l-111 -26
q-14 1 -24.5 11t-6.5 39v1q3 15 28.5 61t74.5 119l132 196l-101 -27q6 6 12.5 20.5t8.5 28.5q6 30 -3 57t-28 35l108 31q5 1 8 1.5t2 0.5q12 0 16 -12.5t5 -27.5l-10 -90l113 23l-78 -114l127 14q55 0 55 -79l-1 -14l151 53q10 -4 11 -7t-1 -11v-2q-1 -5 -2.5 -15t1 -21.5
t11 -22.5t26.5 -18z" />
    <glyph glyph-name="FL12A2h" unicode="&#x12a2;" horiz-adv-x="741" 
d="M620 -12q-19 0 -34.5 8t-14.5 35l-153 -31q-14 16 -17.5 34.5t-1.5 56.5l2 108q1 52 -3 81t-11 42.5t-16 16t-18 2.5h-9l-26 -5l-137 -218q-6 -8 -11.5 -18.5t-6.5 -18.5q-4 -19 1 -31t18 -24l-114 -26q-14 1 -23 11t-5 39v1q3 15 30.5 64t76.5 122l129 190l-100 -27
q6 6 12.5 20.5t8.5 28.5q6 30 -3 57t-28 35l108 31q5 1 8 1.5t2 0.5q12 0 16 -12.5t5 -27.5l-10 -90l115 23l-87 -117l134 17q56 0 55 -79l-4 -174v-26t2.5 -25t7.5 -18.5t16 -7.5l37 9v2q4 17 19.5 32.5t33.5 18.5l82 13q-7 -9 -12 -23t-7 -23q-4 -23 3 -39.5t22 -23.5z
" />
    <glyph glyph-name="FL12A3h" unicode="&#x12a3;" horiz-adv-x="546" 
d="M388 0q-14 14 -15.5 31.5t-1.5 49.5v3v14q0 12 0.5 35.5t1.5 65.5q1 52 -3 81t-11 42.5t-16 16t-18 2.5h-9l-32 -5q-35 -47 -56.5 -76t-34 -46.5t-17.5 -27t-6 -17.5q-4 -19 3.5 -27.5t20.5 -20.5l-110 -25q-14 1 -21.5 17t-2.5 39q3 19 13.5 42.5t33.5 52.5l142 180
l-101 -27q6 6 12.5 20.5t8.5 28.5q6 30 -3 57t-28 35l108 31q5 1 8 1.5t2 0.5q12 0 16 -12.5t5 -27.5l-10 -90l123 23l-95 -117l134 17q55 0 55 -79l-1 -174q-3 -32 9.5 -55.5t28.5 -33.5z" />
    <glyph glyph-name="FL12A4h" unicode="&#x12a4;" horiz-adv-x="716" 
d="M704 92q-9 -48 -43 -70t-79 -22h-167q-14 16 -18 34.5t-2 56.5l3 108q1 52 -3 81t-11 42.5t-16 16t-18 2.5h-9l-30 -5l-139 -222q-9 -14 -12 -29q-4 -19 1.5 -36t20.5 -23l-112 -26q-14 1 -24 11t-6 39v1q3 18 11.5 40t32.5 61.5t68.5 104.5t118.5 170l-98 -27
q6 6 12.5 20.5t8.5 28.5q6 30 -3 57t-28 35l108 31q5 1 8 1.5t2 0.5q12 0 16 -12.5t5 -27.5l-10 -90l111 23l-83 -117l134 17q55 0 55 -79l-1 -122l116 24q5 1 9 1.5t9 0.5q33 0 52 -25.5t10 -74.5zM601 70q10 55 1.5 75t-41.5 20q-8 -1 -18 -2.5t-35 -6.5q-1 -30 -2 -56.5
t2 -46.5t11.5 -31.5t26.5 -11.5q20 0 34 13.5t21 46.5z" />
    <glyph glyph-name="FL12A5h" unicode="&#x12a5;" horiz-adv-x="576" 
d="M420 -1q-8 8 -12 16t-6 18.5t-2 23.5v33l1 86q1 52 -2.5 81t-10.5 42.5t-16 16t-18 2.5l-39 -5q-17 -29 -39.5 -63.5t-43 -67.5t-36 -61t-18.5 -43q-6 -32 22 -53l-112 -26q-14 1 -24 11t-6 39q3 18 22.5 56t51 87.5t72 106t85.5 112.5l-102 -12l80 101l-129 -11
q25 15 29 43q4 17 -1.5 32t-21.5 23l70 4h13q10 0 20.5 -1t19.5 -5t15 -12.5t8 -23.5q0 -8 -1 -15t-3 -18l110 18l-84 -101l103 22l-91 -128l134 17q55 0 55 -79v-152q-3 -32 9.5 -55.5t28.5 -33.5z" />
    <glyph glyph-name="FL12A6h" unicode="&#x12a6;" horiz-adv-x="546" 
d="M424 109q-9 3 -14.5 12.5t-8.5 23t-4.5 29.5t-2.5 32q-4 48 -7.5 75t-7.5 40.5t-10 16.5t-15 3h-9l-31 -5l-145 -222q-10 -14 -13 -33q-4 -19 2.5 -31t19.5 -24l-112 -26q-14 1 -21.5 12.5t-4.5 40.5v1q3 15 23 61t72 116l143 196l-101 -27q6 6 12.5 20.5t8.5 28.5
q6 30 -3 57t-28 35l110 31q4 0 9 -3.5t9.5 -9.5t7 -12.5t1.5 -12.5l-8 -90l114 23l-86 -117l124 17q13 0 21.5 -3t13.5 -10.5t8 -20.5t6 -33l5 -81q3 -32 9 -53.5t32 -25.5z" />
    <glyph glyph-name="a8" unicode="&#x12a7;" horiz-adv-x="725" 
d="M569 0q-14 16 -17.5 34.5t-1.5 56.5l2 108q1 52 -3 81t-11 42.5t-16 16t-18 2.5h-9l-43 -5l-128 -209q-3 -3 -6.5 -9.5t-6.5 -14t-6 -14.5t-4 -10q-3 -16 4.5 -30t20.5 -23l-115 -26q-7 0 -14 1t-12 5.5t-7 13t1 22.5l2 12q2 9 9.5 31t31 65t69 110t122.5 165
q-28 -7 -52 -12t-51 -12l10 142l-40 -5q-5 -15 -15.5 -25t-23.5 -16t-27 -8.5t-26 -2.5l-64 -3q17 14 29 33t16 39q4 19 0.5 29t-10.5 15l67 8h11q29 0 40 -13.5t8 -41.5l189 20q7 24 26 41t40 18l76 4q-12 -12 -17 -34q-3 -26 -0.5 -47t17.5 -34l-71 -7q-22 0 -43.5 9
t-24.5 36l-58 -5l-6 -110l133 22l-85 -115l147 17q55 0 55 -79l-1 -174q-3 -32 9.5 -55.5t28.5 -33.5z" />
    <glyph glyph-name="FL12A8h" unicode="&#x12a8;" horiz-adv-x="539" 
d="M408 3q-23 16 -25.5 37t2.5 47l49 255q7 32 10 56t-2 40t-21 24t-47 8q-15 0 -35.5 -10.5t-41 -34t-39 -62t-29.5 -94.5l-26 -134q-6 -33 0.5 -66.5t23.5 -50.5l-105 -18q-17 -2 -24 9.5t-8.5 29t1 36.5t5.5 31l16 83q3 19 9.5 44t18.5 52.5t29.5 55.5t42.5 52l-97 -19
q5 10 10.5 23.5t11.5 33.5l13 44q5 23 4.5 41.5t-17.5 35.5l102 23q13 -2 18.5 -10.5t6.5 -21t-1.5 -28t-5.5 -32.5q-4 -20 -13.5 -38.5t-17.5 -37.5q2 7 18 19t40 24t53 21t58 9q88 0 122.5 -31.5t20.5 -103.5l-47 -243q-4 -22 2.5 -44t20.5 -34z" />
    <glyph glyph-name="FL12A9h" unicode="&#x12a9;" horiz-adv-x="688" 
d="M610 210q-19 0 -34.5 8t-14.5 35l-41 -8l-28 -143q-4 -21 3.5 -44.5t21.5 -36.5l-106 -21q-24 16 -27 38.5t2 48.5l49 253q6 32 9 56t-2 40t-20.5 24t-46.5 8q-15 0 -35.5 -10.5t-41 -34t-39 -62t-29.5 -94.5l-26 -132q-6 -33 0.5 -66.5t23.5 -50.5l-107 -18
q-13 9 -19.5 22.5t-9 28t-1 29t4.5 26.5l15 81q4 19 11 44.5t19 53.5t30 56.5t44 52.5l-101 -22q3 5 6 11.5t7 17.5t9.5 28t12.5 44q4 23 4.5 41.5t-16.5 35.5l101 23q13 -2 19.5 -9t7.5 -19t-2 -28t-7 -36l-29 -74q15 15 36 28.5t44 23t46.5 15.5t43.5 6q93 0 122.5 -38.5
t14.5 -118.5l-12 -61l39 6v2q4 17 19.5 32.5t33.5 18.5l82 13q-7 -9 -12 -23t-7 -23q-6 -49 25 -63z" />
    <glyph glyph-name="FL12AAh" unicode="&#x12aa;" horiz-adv-x="700" 
d="M578 -18q-19 0 -34.5 8t-14.5 35l-123 -25q-18 2 -24.5 30.5t2.5 70.5l46 238q6 32 9 56.5t-1.5 40.5t-20 24t-46.5 8q-15 0 -35.5 -10.5t-41 -34.5t-38.5 -62.5t-29 -94.5l-26 -132q-7 -34 0 -68t24 -50l-105 -18q-14 9 -20 22t-8 28t-0.5 30t3.5 26l16 82
q4 19 10.5 44.5t17 53.5t27.5 56.5t42 52.5l-95 -22q6 10 11.5 23.5t11.5 34.5l13 44q4 23 4.5 41.5t-16.5 35.5l100 23q26 -4 26 -28t-8 -64l-28 -69q11 16 31 29t43 21.5t47 13t44 4.5q36 0 65 -9.5t47.5 -28.5t26 -46t0.5 -62l-46 -234q0 -7 -1 -11q-1 -2 -1 -5t-1 -6
q-3 -16 -1 -30t14 -16l34 8v2q3 17 18.5 32.5t34.5 18.5l82 13q-7 -9 -12.5 -23t-6.5 -23q-4 -23 3 -39.5t21 -23.5z" />
    <glyph glyph-name="FL12ABh" unicode="&#x12ab;" horiz-adv-x="537" 
d="M402 4q-10 0 -16 3.5t-7.5 18t2.5 43.5t14 79l38 195q6 32 9 56.5t-1.5 40.5t-20 24t-46.5 8q-15 0 -35.5 -8.5t-40.5 -30t-38 -58t-29 -93.5l-9 -45q-3 -14 -5.5 -30t-1.5 -30.5t7 -25.5t20 -15l-105 -27q-17 10 -24 30t-1 52l11 58q3 13 11 34.5t19.5 44t25.5 41.5
t28 27l-93 -21q12 20 23 58l13 44q4 23 4.5 42t-16.5 36l100 23q27 -4 26.5 -27.5t-7.5 -65.5q-4 -19 -13.5 -35t-16.5 -35q14 15 34.5 28t43.5 22t46.5 14t43.5 5q93 0 122.5 -38.5t13.5 -119.5l-43 -224q-4 -21 2 -45t21 -37z" />
    <glyph glyph-name="FL12ACh" unicode="&#x12ac;" horiz-adv-x="672" 
d="M662 102q-5 -24 -16.5 -42.5t-27 -31t-33 -18.5t-35.5 -6h-13q-20 0 -35.5 2t-26.5 3q-12 0 -35 -4.5t-38 -4.5q-21 0 -24 28t8 85l45 229q7 32 10.5 56t-2 40t-21 24t-46.5 8q-15 0 -35.5 -10.5t-41 -34t-38.5 -62t-29 -94.5l-26 -134q-6 -33 0.5 -66.5t23.5 -50.5
l-106 -18q-12 9 -18 22.5t-8.5 28t-1 29t4.5 26.5l16 83q3 19 9.5 44.5t18 53.5t29 56t42.5 52l-98 -21q12 19 23 57l12 44q5 23 5 41q0 19 -17 36l101 23q25 -4 25.5 -28t-7.5 -64l-29 -76q10 16 30 30t44 24t48.5 15.5t44.5 5.5q93 0 121.5 -41t11.5 -126l-24 -126
q17 2 39.5 4t45.5 4q42 0 63 -22t11 -73zM567 102q8 41 -5 58t-28 17h-7q-7 0 -13 -0.5t-14 -1.5l-11 -55q-4 -20 -7 -38t-2.5 -31.5t4.5 -21.5t13 -8q23 0 41.5 15t28.5 66z" />
    <glyph glyph-name="FL12ADh" unicode="&#x12ad;" horiz-adv-x="512" 
d="M380 0q-16 6 -17 30.5t6 61.5l48 250q7 32 10 56t-2 40t-20 24t-43 8q-20 -1 -40 -15t-37.5 -35.5t-31 -49.5t-19.5 -56l77 14q-27 -15 -46.5 -31.5t-33.5 -41.5t-25 -60.5t-21 -87.5q-7 -34 -6 -54t27 -32l-99 -22q-14 11 -18 30.5t2 54.5l13 63q2 15 9 34.5t17 38.5
t22.5 35t26.5 24l-48 -13q6 30 26.5 63.5t47.5 56.5l-91 -12q3 8 9 22.5t12 34.5l13 44q5 23 5 41q0 19 -16 36l99 23q25 -4 24.5 -30.5t-8.5 -66.5l-29 -74q9 16 28 30.5t42.5 25t47.5 16.5t42 6q88 0 115.5 -38t11.5 -119l-43 -223q-2 -11 -3.5 -23.5t0 -24t6.5 -20.5
t16 -13z" />
    <glyph glyph-name="FL12AEh" unicode="&#x12ae;" horiz-adv-x="523" 
d="M422 132q-11 0 -16.5 10.5t-7 26.5t0 34.5t4.5 33.5l20 104q7 32 10 56t-2 40t-20 24t-45 8q-15 0 -35 -10.5t-40 -34.5t-38 -62.5t-29 -94.5l-26 -134q-6 -30 1 -62.5t23 -48.5l-105 -25q-13 9 -19 22.5t-7.5 28t0 29.5t3.5 27l20 102q8 39 26 84.5t64 94.5l-90 -12
q10 15 22 57l13 45q5 23 5 41q0 19 -17 36l99 23q25 -4 25 -28t-8 -64l-22 -75q13 16 32 29.5t40.5 23.5t43.5 15.5t40 5.5q45 0 74.5 -10t45 -28t19 -44t-2.5 -58l-21 -105q-4 -21 2.5 -44.5t18.5 -36.5z" />
    <glyph glyph-name="qx1" unicode="&#x12b0;" horiz-adv-x="853" 
d="M770 247q4 37 -3 55t-30 18q-24 0 -33.5 -14.5t-15.5 -44.5q-2 -11 -4 -27.5t-0.5 -32t8.5 -26.5t24 -11q25 0 35 19t19 64zM872 254q-5 -20 -14.5 -39t-23 -34t-31 -24.5t-38.5 -9.5q-9 0 -22 1t-30 3q-50 -11 -68 -11q-42 0 -53 35t6 124l-52 -8l-37 -189
q-5 -25 -0.5 -44t24.5 -37l-101 -21q-14 0 -20.5 9t-8.5 23t0 32.5t6 37.5l46 238q14 71 2 99q-11 29 -72 29q-17 0 -39 -11t-44.5 -35.5t-41.5 -62.5t-29 -92l-26 -132q-4 -23 -5 -39.5t1.5 -29.5t10 -24.5t19.5 -23.5l-106 -18q-23 14 -28.5 43t0.5 59q8 44 14.5 72
t12 46.5t10.5 31.5t10 27q11 27 26.5 54t41.5 51l-98 -12q2 3 7 14t11 25t12 29t9 26q3 26 1.5 47.5t-17.5 36.5l107 33q26 -4 27 -28.5t-9 -73.5l-28 -76q12 17 33.5 31t46 23.5t49.5 15t44 5.5q97 0 129 -41t14 -131l62 11q-1 0 13 2t35 4.5t46 5.5t47 5.5t38.5 4.5
t19.5 2q38 0 52.5 -18.5t8.5 -70.5z" />
    <glyph glyph-name="qx2" unicode="&#x12b2;" horiz-adv-x="894" 
d="M891 137q-45 -14 -72 -14q-32 0 -50 8.5t-26 23.5t-8 36t5 47l-154 -16l25 58l-67 -6l-33 -172q-5 -25 -0.5 -44t24.5 -37l-101 -21q-14 1 -20.5 10t-8.5 23t0 32t6 37l46 240q7 35 6.5 60t-5.5 39q-12 29 -73 29q-17 0 -39 -11t-44 -35.5t-41 -62.5t-30 -92l-29 -151
q-9 -45 -5 -65t32 -32l-104 -21q-23 14 -28.5 43t0.5 59l14 72q8 43 14 65t15 42q11 27 28.5 56t43.5 53l-97 -16q1 4 4.5 14t8.5 23t10 26.5t9 24.5q3 22 5 36t1 23.5t-4.5 16t-11.5 14.5l106 23q25 -4 27 -23.5t-7 -68.5l-35 -80q13 18 36 32t48.5 23.5t51 14.5t43.5 5
q91 0 127.5 -32t21.5 -110l-9 -47l72 6l14 34q4 22 2 38.5t-12 22.5l99 21q13 -3 21.5 -15t5.5 -27l-1 -3l-50 -120l177 19q11 -4 10 -14l-2 -4.5t-7 -12.5q-10 -20 -11 -28q-3 -14 3 -31t23 -38z" />
    <glyph glyph-name="qx3" unicode="&#x12b3;" horiz-adv-x="680" 
d="M520 -109q-16 4 -22.5 17t-3.5 31l19 98q3 17 4.5 33t-1 28.5t-11 20t-25.5 7.5l-119 -36q-11 -32 -22.5 -52.5t-27 -33t-35.5 -18.5t-47 -9q-31 0 -64 14q30 22 40.5 34t13.5 26q1 2 0.5 8t-1.5 15q-1 7 0 11q1 7 15 12q19 0 44 1.5t50 5.5t46.5 10.5t32.5 16.5h2
l42 213q13 69 2 99q-11 29 -72 29q-17 0 -39 -11t-43.5 -35t-40 -61t-28.5 -89q-10 -49 -7 -72.5t26 -36.5l-97 -23q-24 15 -28 34.5t3 50.5l6 34q2 12 8.5 29.5t17.5 36.5t25 36t31 29l-99 -18q2 3 7 13.5t10.5 24.5t11 29.5t8.5 28.5q3 22 4 34.5t-0.5 20.5t-6 13.5
t-11.5 13.5l105 23q25 -4 27.5 -23.5t-7.5 -68.5l-29 -74q13 18 34.5 31.5t45 23t47 14t41.5 4.5q49 0 81 -9.5t48.5 -30.5t19.5 -53.5t-6 -77.5l-34 -172q63 0 92 -22t20 -70l-15 -74q-4 -22 0 -36.5t26 -22.5z" />
    <glyph glyph-name="qx4" unicode="&#x12b4;" horiz-adv-x="706" 
d="M601 99q8 38 -7 55t-33 19q-8 0 -19.5 -0.5t-19.5 -2.5l-18 -93q-8 -42 -5 -59t21 -17q34 0 53 25t28 73zM694 92q-7 -33 -19 -53.5t-28 -32.5t-35.5 -16t-42.5 -4q-41 2 -54 4t-20 4q-26 6 -49 9.5t-38 3.5l-54 -14q-10 -44 -29 -71.5t-43 -44t-51 -22.5t-54 -6
q-31 0 -64 14q30 22 43 40.5t16 32.5q1 2 0.5 8t-1.5 15q-2 9 -1 10q1 7 15 12l157 25q28 8 43 30.5t24 65.5l46 236q13 69 2 99q-11 29 -72 29q-28 0 -52 -15t-43.5 -41t-34.5 -62t-24 -79l-17 -88q-7 -37 -3.5 -58t29.5 -37l-99 -21q-11 0 -18.5 8t-12 21t-5.5 29.5
t3 34.5l12 65q3 16 12 36.5t21.5 42.5t27.5 43t30 38l-97 -12q2 3 7 13.5t11 24t11.5 28t7.5 25.5q5 29 3.5 50.5t-17.5 35.5l105 24q25 -5 27.5 -24.5t-7.5 -67.5l-26 -74q14 18 36 31.5t46 22.5t47.5 14t41.5 5q91 0 125.5 -39.5t20.5 -112.5l-28 -144l91 7q20 -1 37 -5.5
t28 -15.5t15 -29.5t-2 -47.5z" />
    <glyph glyph-name="qx5" unicode="&#x12b5;" horiz-adv-x="875" 
d="M880 181q-23 -16 -40 -21.5t-38 -5.5q-9 0 -10 1h-12q-37 0 -60 27.5t-21 69.5v31l-158 -15l-32 -166q-9 -47 30 -81l-107 -21q-25 16 -28 40t5 62l46 237q14 71 2 99q-11 29 -72 29q-17 0 -40 -11t-45.5 -35.5t-41.5 -62.5t-29 -92l-26 -131q-4 -23 -5 -39.5t1.5 -29.5
t10 -24.5t19.5 -23.5l-104 -18q-23 14 -28.5 43t0.5 59l14 71q4 22 7.5 37t6.5 26.5t6.5 21t7.5 20.5q11 27 29 54t43 51l-97 -12q2 3 6.5 14t9.5 25.5t10 29.5t9 26q6 34 5 51t-17 32l105 23q25 -4 27.5 -23.5t-7.5 -68.5l-27 -74q16 18 38.5 31.5t46 23t46.5 14t41 4.5
q91 0 126.5 -34t20.5 -112l-9 -47l62 7q8 24 12.5 38.5t7 23t4 12.5t2.5 7q5 23 -18 41l119 23q9 0 14.5 -6t2.5 -20q0 -3 -5 -15l-30 -91q-2 -12 5.5 -16.5t31.5 -5.5l101 5q12 0 11 -9q-2 -9 -7 -16q-5 -10 -7.5 -17t-3.5 -12q-3 -14 6 -30t27 -24z" />
    <glyph glyph-name="qq1" unicode="&#x12b8;" horiz-adv-x="713" 
d="M581 0q-23 16 -25.5 37t2.5 47l50 255q6 32 9 56t-1.5 40t-20.5 24t-47 8q-15 0 -35.5 -10.5t-41 -34t-39 -62t-29.5 -94.5l-26 -134q-3 -16 -3 -34q0 -17 3 -33t9 -29.5t15 -20.5l-106 -15h-5q-15 0 -20.5 12t-6.5 28.5t1.5 34t4.5 28.5l16 83q4 19 10.5 44t18 52.5
t29 55.5t43.5 52l-98 -19q9 13 20.5 43.5t17.5 60.5q5 23 3 45t-10 32l-37 -2q-5 -15 -15.5 -25t-23.5 -16t-26.5 -8.5t-25.5 -2.5l-65 -3q17 14 29 33t16 39q4 19 1 29t-10 15l66 8h11q29 0 40 -13.5t9 -41.5l181 8q7 24 26 41t40 18l76 4q-12 -12 -17 -34q-3 -26 -0.5 -47
t17.5 -34l-71 -7q-22 0 -43.5 8.5t-24.5 35.5l-44 -2q5 -8 7 -29t-2 -44q-3 -12 -12 -34t-20 -41q0 -1 -1 -2.5t-1 -2.5l3 2q5 4 22 16t40.5 24.5t51 22.5t53.5 10q88 0 122 -31.5t20 -103.5l-47 -243q-4 -22 2.5 -44t20.5 -34z" />
    <glyph glyph-name="qq2" unicode="&#x12b9;" horiz-adv-x="852" 
d="M774 210q-19 0 -34.5 8t-14.5 35l-41 -8l-28 -143q-4 -21 3.5 -44.5t21.5 -36.5l-106 -21q-24 16 -27 38.5t2 48.5l49 253q6 32 9 56t-2 40t-20.5 24t-46.5 8q-15 0 -35.5 -10.5t-41 -34t-39 -62t-29.5 -94.5l-26 -132q-6 -33 0.5 -66.5t23.5 -50.5l-107 -18
q-13 9 -19.5 22.5t-9 28t-1 29t4.5 26.5l15 81q4 19 11 44.5t19 53.5t30 56.5t44 52.5l-101 -22q6 9 16 38.5t19 62.5q5 28 6.5 49.5t-2.5 26.5l-36 -2q-5 -15 -15.5 -25t-23 -16t-26.5 -8.5t-26 -2.5l-64 -3q16 14 28.5 33t16.5 39q3 19 0 29t-10 15l67 8h11
q29 0 39.5 -13.5t8.5 -41.5l172 12q7 24 26.5 41t39.5 18l77 4q-13 -13 -18 -34q-3 -26 -0.5 -47t17.5 -34l-71 -7q-22 0 -43.5 8.5t-24.5 35.5l-38 -3q4 -6 3 -27t-7 -47q-3 -13 -11 -34.5t-18 -39.5q15 15 36 28.5t44 23t46.5 15.5t43.5 6q93 0 122.5 -38.5t14.5 -118.5
l-12 -61l39 6v2q4 17 19.5 32.5t33.5 18.5l82 13q-7 -9 -12 -23t-7 -23q-6 -49 25 -63z" />
    <glyph glyph-name="qq3" unicode="&#x12ba;" horiz-adv-x="880" 
d="M758 -16q-19 0 -34.5 8t-14.5 35l-123 -25q-17 2 -23.5 30.5t1.5 70.5l46 238q7 32 10.5 56.5t-2 40.5t-21 24t-46.5 8q-15 0 -35.5 -10.5t-41 -34.5t-38.5 -62.5t-29 -94.5l-26 -132q-6 -34 1 -68t23 -50l-105 -18q-12 9 -18.5 22t-9 28t-1 30t4.5 26l16 82q3 18 9 44
t17 54.5t28 56.5t43 52l-95 -22q6 12 16 41.5t19 60.5q4 21 2 43t-9 34l-40 -2q-5 -15 -15.5 -25.5t-23.5 -16.5t-26.5 -8.5t-25.5 -2.5l-65 -3q17 14 29 33t16 39q4 19 1 29t-10 15l66 8h11q29 0 40 -13.5t8 -41.5l187 9q7 24 26 41t40 18l76 4q-12 -12 -17 -34
q-3 -26 -0.5 -47t17.5 -34l-71 -7q-22 0 -43.5 9t-24.5 36l-46 -2q13 -24 5 -73q-4 -16 -11.5 -33.5t-17.5 -35.5q12 16 32 29t43 21.5t47 13t44 4.5q36 0 64.5 -9.5t47.5 -28.5t26 -46t0 -62l-45 -234q0 -7 -1 -11q-1 -2 -1 -5t-1 -6q-4 -16 -2 -30t15 -16l33 8l1 2
q3 17 18.5 32.5t33.5 18.5l82 13q-7 -9 -12 -23t-7 -23q-6 -49 25 -63z" />
    <glyph glyph-name="qq4" unicode="&#x12bb;" horiz-adv-x="710" 
d="M574 0q-10 0 -16 3.5t-7.5 18t2.5 43.5t14 79l38 195q6 32 9 56.5t-1.5 40.5t-20 24t-46.5 8q-15 0 -35.5 -10.5t-41 -34.5t-39 -62.5t-29.5 -95.5l-7 -32q-4 -27 0.5 -57t20.5 -44l-106 -27q-18 6 -24 31t1 62l10 47q1 8 7 25t17 38t26.5 42.5t36.5 39.5l-97 -19
q13 30 23 59.5t13 42.5q5 24 3.5 47.5t-8.5 31.5l-35 -2q-5 -15 -15.5 -25t-23.5 -16t-26.5 -8.5t-25.5 -2.5l-65 -3q17 14 29 33t16 39q4 19 1 29t-10 15l66 8h11q29 0 40 -13.5t9 -41.5l175 7q7 24 26 41t39 18l77 4q-12 -12 -17 -34q-3 -26 -1 -47t18 -34l-71 -7
q-22 0 -43.5 9t-24.5 36l-36 -2q4 -5 4 -27q0 -21 -5 -47q-3 -15 -12 -36.5t-18 -37.5q14 15 34.5 28.5t43.5 23.5t46.5 15.5t43.5 5.5q93 0 122.5 -38.5t14.5 -119.5l-44 -224q-4 -21 2.5 -45t20.5 -37z" />
    <glyph glyph-name="qq5" unicode="&#x12bc;" horiz-adv-x="844" 
d="M834 102q-5 -24 -16.5 -42.5t-27 -31t-33 -18.5t-35.5 -6h-13q-20 0 -35.5 2t-26.5 3q-12 0 -35 -4.5t-38 -4.5q-21 0 -24 28t8 85l45 229q7 32 10.5 56t-2 40t-21 24t-46.5 8q-15 0 -35.5 -10.5t-41 -34t-38.5 -62t-29 -94.5l-26 -134q-6 -33 0.5 -66.5t23.5 -50.5
l-106 -18q-12 9 -18 22.5t-8.5 28t-1 29t4.5 26.5l16 83q3 19 9.5 44.5t18 53.5t29 56t42.5 52l-98 -21q4 9 15 38.5t20 62.5q5 26 5 49q0 24 -6 32l-37 -2q-5 -15 -15.5 -25t-23.5 -16t-26.5 -8.5t-25.5 -2.5l-65 -3q17 14 29 33t16 39q4 19 1 29t-10 15l66 8h11
q29 0 40 -13.5t8 -41.5l181 9q7 24 26 41t40 18l76 4q-12 -12 -17 -34q-3 -26 -0.5 -47t17.5 -34l-71 -7q-22 0 -43.5 9t-24.5 36l-42 -3q4 -6 3.5 -28.5t-5.5 -48.5q-1 -3 -9 -25t-20 -51q10 16 30 30t44 24t48.5 15.5t44.5 5.5q93 0 121.5 -41t11.5 -126l-24 -126
q17 2 39.5 4t45.5 4q42 0 63 -22t11 -73zM739 102q8 41 -5 58t-28 17h-7q-7 0 -13 -0.5t-14 -1.5l-11 -55q-4 -20 -7 -38t-2.5 -31.5t4.5 -21.5t13 -8q23 0 41.5 15t28.5 66z" />
    </font>
</defs>
</svg>
